<?xml version="1.0" encoding="UTF-8"?>
<svg version="1.1" viewBox="0 0 299 63" xmlns="http://www.w3.org/2000/svg">
<title>Group</title>
<desc>Created with Sketch.</desc>
<g fill="none" fill-rule="evenodd">
<g transform="translate(-73 -15)" fill="#382672" fill-rule="nonzero">
<g transform="translate(59)">
<g transform="translate(14 15)">
<g transform="translate(80 7)">
<path d="m1.4 6.7c1.2-0.6 2.9-0.9 4.3-0.9 3.8 0 5.3 1.6 5.3 5.2v1.6 3.1c0 0.9 0.1 1.8 0.1 2.8h-2.8c-0.1-0.6-0.1-1.5-0.1-1.8-0.7 1.4-2.4 2.1-3.8 2.1-2.2 0-4.3-1.3-4.3-3.7 0-1.8 0.9-2.9 2.1-3.5s2.8-0.7 4.2-0.7h1.8c0-2-0.9-2.7-2.8-2.7-1.4 0-2.7 0.5-3.8 1.3l-0.2-2.8zm3.7 9.7c1 0 1.8-0.4 2.3-1.1s0.7-1.6 0.7-2.5h-1.4c-1.4 0-3.6 0.2-3.6 2.1 0 1 0.9 1.5 2 1.5z"/>
<path d="m13.7 6.1h3.1v1.8c0.7-1.2 1.9-2 3.8-2 3.8 0 5.2 3 5.2 6.4s-1.4 6.5-5.3 6.5c-1.4 0-2.5-0.3-3.6-1.7v6.5h-3.2v-17.5zm3.2 6.1c0 1.8 0.7 4 2.8 4s2.7-2.3 2.7-4-0.6-3.9-2.7-3.9c-1.9 0-2.8 2.2-2.8 3.9z"/>
<path d="m28 6.1h3.1v1.8c0.7-1.2 1.9-2 3.8-2 3.8 0 5.2 3 5.2 6.4s-1.4 6.5-5.3 6.5c-1.4 0-2.5-0.3-3.6-1.7v6.5h-3.2v-17.5zm3.2 6.1c0 1.8 0.7 4 2.8 4s2.7-2.3 2.7-4-0.6-3.9-2.7-3.9c-1.9 0-2.8 2.2-2.8 3.9z"/>
<path d="m42.3 6.1h2.9v2.8c0.1-1.2 1.5-3.1 3.4-3.1 0.3 0 0.6 0 1 0.1v3.2c-0.3-0.2-0.9-0.3-1.4-0.3-2.6 0-2.6 3.3-2.6 5v4.5h-3.2v-12.2h-0.1z"/>
<path d="m56.8 5.8c3.7 0 6.5 2.5 6.5 6.6 0 3.6-2.4 6.4-6.5 6.4s-6.5-2.8-6.5-6.4c0-4.1 2.9-6.6 6.5-6.6zm0 10.4c2.5 0 3.1-2.2 3.1-4.3 0-1.9-1-3.7-3.1-3.7s-3.1 1.8-3.1 3.7c0 2.1 0.7 4.3 3.1 4.3z"/>
<polygon points="63.5 6.1 67 6.1 70.1 15.1 70.1 15.1 73.1 6.1 76.3 6.1 71.7 18.5 68.1 18.5"/>
<path d="m87.1 17.7c-1.2 0.6-2.5 1-4.2 1-4.1 0-6.5-2.4-6.5-6.4 0-3.6 1.9-6.5 5.7-6.5 4.6 0 5.9 3.1 5.9 7.5h-8.5c0.1 2 1.5 3.1 3.5 3.1 1.6 0 2.9-0.6 4.1-1.2v2.5zm-2.1-6.7c-0.1-1.6-0.8-2.9-2.6-2.9s-2.7 1.2-2.9 2.9h5.5z"/>
<path d="m98.5 17.1c-1 1.2-2.3 1.7-3.8 1.7-3.8 0-5.2-3.1-5.2-6.5s1.4-6.4 5.2-6.4c1.6 0 2.7 0.6 3.7 1.7v-7.1h3.2v18h-3.1v-1.4zm-3-0.9c2.1 0 2.8-2.3 2.8-4s-0.8-3.9-2.9-3.9-2.7 2.3-2.7 3.9c0.1 1.7 0.7 4 2.8 4z"/>
<path d="m120.9 17.7c-1.2 0.6-2.5 1-4.2 1-4.1 0-6.5-2.4-6.5-6.4 0-3.6 1.9-6.5 5.7-6.5 4.6 0 5.9 3.1 5.9 7.5h-8.5c0.1 2 1.5 3.1 3.5 3.1 1.6 0 2.9-0.6 4.1-1.2v2.5zm-2.2-6.7c-0.1-1.6-0.8-2.9-2.6-2.9s-2.7 1.2-2.9 2.9h5.5z"/>
<polygon points="123.8 13.3 123.8 10.7 130.1 10.7 130.1 13.3"/>
<polygon points="132 0.4 135.2 0.4 135.2 18.4 132 18.4"/>
<path d="m148.1 17.7c-1.2 0.6-2.5 1-4.2 1-4.1 0-6.5-2.4-6.5-6.4 0-3.6 1.9-6.5 5.7-6.5 4.6 0 5.9 3.1 5.9 7.5h-8.5c0.1 2 1.5 3.1 3.5 3.1 1.6 0 2.9-0.6 4.1-1.2v2.5zm-2.2-6.7c-0.1-1.6-0.8-2.9-2.6-2.9s-2.7 1.2-2.9 2.9h5.5z"/>
<path d="m151.7 6.7c1.2-0.6 2.9-0.9 4.3-0.9 3.8 0 5.3 1.6 5.3 5.2v1.6 3.1c0 0.9 0.1 1.8 0.1 2.8h-2.8c-0.1-0.6-0.1-1.5-0.1-1.8-0.7 1.4-2.4 2.1-3.8 2.1-2.2 0-4.3-1.3-4.3-3.7 0-1.8 0.9-2.9 2.1-3.5s2.8-0.7 4.2-0.7h1.8c0-2-0.9-2.7-2.8-2.7-1.4 0-2.7 0.5-3.8 1.3l-0.2-2.8zm3.8 9.7c1 0 1.8-0.4 2.3-1.1s0.7-1.6 0.7-2.5h-1.5c-1.4 0-3.6 0.2-3.6 2.1 0 1 0.9 1.5 2.1 1.5z"/>
<path d="m163.8 6.1h2.9v2.8c0.1-1.2 1.5-3.1 3.4-3.1 0.3 0 0.6 0 1 0.1v3.2c-0.3-0.2-0.9-0.3-1.4-0.3-2.6 0-2.6 3.3-2.6 5v4.5h-3.2v-12.2h-0.1z"/>
<path d="m172.7 6.1h3v1.7c1-1.4 2.4-2 4.1-2 2.9 0 4.2 2.1 4.2 4.8v7.8h-3.2v-6.6c0-1.5 0-3.6-2.1-3.6-2.3 0-2.8 2.5-2.8 4.1v6h-3.2v-12.2z"/>
<path d="m186.5 0.8h3.2v3.1h-3.2v-3.1zm0 5.3h3.2v12.4h-3.2v-12.4z"/>
<path d="m192.5 6.1h3v1.7c1-1.4 2.4-2 4.1-2 2.9 0 4.2 2.1 4.2 4.8v7.8h-3.2v-6.6c0-1.5 0-3.6-2.1-3.6-2.3 0-2.8 2.5-2.8 4.1v6h-3.2v-12.2z"/>
<path d="m218.1 6.1v11.2c0 3.4-1.3 6.5-6.5 6.5-1.3 0-2.7-0.2-4.3-0.8l0.3-2.7c1 0.5 2.6 1.1 3.6 1.1 3.6 0 3.7-2.7 3.7-4.8-0.6 1.1-2 2-3.8 2-3.6 0-5-2.9-5-6.2 0-3 1.5-6.4 5.2-6.4 1.6 0 2.9 0.6 3.8 2v-1.7h3v-0.2zm-3.2 6c0-2.1-0.8-3.8-2.7-3.8-2.2 0-2.9 2-2.9 3.9 0 1.7 0.9 3.7 2.7 3.7 2.1 0 2.9-1.7 2.9-3.8z"/>
<path d="m0.8 26.4h3.2v7.2c0.9-1.2 2-1.9 3.7-1.9 3.8 0 5.2 3 5.2 6.4s-1.4 6.5-5.2 6.5c-1.4 0-2.9-0.5-3.8-1.8v1.5h-3.1v-17.9zm6.1 15.8c2.1 0 2.7-2.3 2.7-4s-0.6-3.9-2.7-3.9-2.9 2.2-2.9 3.9c0.1 1.8 0.8 4 2.9 4z"/>
<path d="m15.1 26.8h3.2v3.1h-3.2v-3.1zm0 5.3h3.2v12.4h-3.2v-12.4z"/>
<path d="m22.3 34.4h-2.4v-2.4h2.4v-2.5l3.2-1v3.5h2.9v2.4h-2.9v5.8c0 1.1 0.3 2 1.5 2 0.6 0 1.1-0.1 1.5-0.3l0.1 2.5c-0.7 0.2-1.4 0.3-2.4 0.3-2.5 0-3.9-1.6-3.9-4v-6.3z"/>
<path d="m40 43.7c-1.2 0.6-2.5 1-4.2 1-4.1 0-6.5-2.4-6.5-6.4 0-3.6 1.9-6.5 5.7-6.5 4.6 0 5.9 3.1 5.9 7.5h-8.5c0.1 2 1.5 3.1 3.5 3.1 1.6 0 2.9-0.6 4.1-1.2v2.5zm-2.2-6.7c-0.1-1.6-0.8-2.9-2.6-2.9s-2.7 1.2-2.9 2.9h5.5z"/>
<path d="m50.4 34.7c-1-0.3-1.7-0.5-2.9-0.5-0.9 0-1.9 0.3-1.9 1.4 0 2 5.6 0.7 5.6 5.2 0 2.9-2.6 4-5.2 4-1.2 0-2.5-0.2-3.6-0.5l0.2-2.6c1 0.5 2.1 0.8 3.2 0.8 0.8 0 2.1-0.3 2.1-1.5 0-2.4-5.6-0.8-5.6-5.2 0-2.7 2.3-3.8 4.8-3.8 1.5 0 2.5 0.2 3.5 0.5l-0.2 2.2z"/>
<path d="m53.2 26.8h3.2v3.1h-3.2v-3.1zm0 5.3h3.2v12.4h-3.2v-12.4z"/>
<polygon points="58.7 32.1 68.5 32.1 68.5 34.7 62.4 41.9 68.8 41.9 68.8 44.4 58.5 44.4 58.5 41.8 64.8 34.6 58.8 34.6 58.8 32.1"/>
<path d="m80.4 43.7c-1.2 0.6-2.5 1-4.2 1-4.1 0-6.5-2.4-6.5-6.4 0-3.6 1.9-6.5 5.7-6.5 4.6 0 5.9 3.1 5.9 7.5h-8.5c0.1 2 1.5 3.1 3.5 3.1 1.6 0 2.9-0.6 4.1-1.2v2.5zm-2.2-6.7c-0.1-1.6-0.8-2.9-2.6-2.9s-2.7 1.2-2.9 2.9h5.5z"/>
<path d="m97.9 34.7c-0.6-0.3-1.2-0.5-2.2-0.5-2 0-3.3 1.6-3.3 3.9s1.1 4 3.3 4c0.9 0 1.9-0.3 2.5-0.6l0.1 2.7c-0.9 0.3-1.9 0.4-3.2 0.4-4.1 0-6.1-2.8-6.1-6.5 0-3.6 2.1-6.4 6-6.4 1.3 0 2.2 0.1 3.1 0.4l-0.2 2.6z"/>
<path d="m105.6 31.8c3.7 0 6.5 2.5 6.5 6.6 0 3.6-2.4 6.4-6.5 6.4s-6.5-2.8-6.5-6.4c0.1-4.1 2.9-6.6 6.5-6.6zm0 10.4c2.5 0 3.1-2.2 3.1-4.3 0-1.9-1-3.7-3.1-3.7s-3.1 1.8-3.1 3.7c0 2.1 0.7 4.3 3.1 4.3z"/>
<path d="m125.4 44.4h-3v-1.7c-1 1.2-2.4 2-4.1 2-2.9 0-4.2-2.1-4.2-4.8v-7.8h3.2v6.6c0 1.5 0 3.6 2.1 3.6 2.3 0 2.8-2.5 2.8-4.1v-6h3.2v12.2z"/>
<path d="m128.1 32.1h2.9v2.8c0.1-1.2 1.5-3.1 3.4-3.1 0.3 0 0.6 0 1 0.1v3.2c-0.3-0.2-0.9-0.3-1.4-0.3-2.6 0-2.6 3.3-2.6 5v4.5h-3.2v-12.2h-0.1z"/>
<path d="m144.6 34.7c-1-0.3-1.7-0.5-2.9-0.5-0.9 0-1.9 0.3-1.9 1.4 0 2 5.6 0.7 5.6 5.2 0 2.9-2.6 4-5.2 4-1.2 0-2.5-0.2-3.6-0.5l0.2-2.6c1 0.5 2.1 0.8 3.2 0.8 0.8 0 2.1-0.3 2.1-1.5 0-2.4-5.6-0.8-5.6-5.2 0-2.7 2.3-3.8 4.8-3.8 1.5 0 2.5 0.2 3.5 0.5l-0.2 2.2z"/>
<path d="m157.4 43.7c-1.2 0.6-2.5 1-4.2 1-4.1 0-6.5-2.4-6.5-6.4 0-3.6 1.9-6.5 5.7-6.5 4.6 0 5.9 3.1 5.9 7.5h-8.5c0.1 2 1.5 3.1 3.5 3.1 1.6 0 2.9-0.6 4.1-1.2v2.5zm-2.2-6.7c-0.1-1.6-0.8-2.9-2.6-2.9s-2.7 1.2-2.9 2.9h5.5z"/>
</g>
<path d="m0.9 31.3c0-16 13.5-29.2 31.1-31.3-13.2 2.7-23.2 15.6-23.2 31.3s10 28.7 23.2 31.3c-17.6-2.1-31.1-15.3-31.1-31.3z"/>
<path d="m41.8 62.6c13.2-2.7 23.2-15.6 23.2-31.3s-10-28.7-23.2-31.3c17.6 2.1 31.1 15.3 31.1 31.3-0.1 16-13.6 29.2-31.1 31.3z"/>
<g transform="translate(13 17)">
<g transform="translate(0 2)">
<path d="m0 6.8h5.5v14.8h-3.1v-11.3c0-1.6-0.5-2.1-2.4-2.1v-1.4z"/>
<circle cx="3.9" cy="2.3" r="2.1"/>
</g>
<path d="m14.3 8.4c-4.6 0-7.3 3.4-7.3 7.9 0 4.4 2.7 7.9 7.3 7.9s7.3-3.4 7.3-7.9-2.7-7.9-7.3-7.9zm0 14.4c-3.2 0-4-3.6-4-6.5s0.8-6.5 4-6.5 4 3.6 4 6.5-0.8 6.5-4 6.5z"/>
<path d="m47.4 23.7v-10.5c0-3.6-2-4.9-4.6-4.9-1.4 0-2.6 0.5-4.7 2.3v-10h-5.5v1.4c1.7 0 2.4 0.3 2.4 2.1v19.5h3.1v-11.2c2.2-1.9 3.3-2.1 4.1-2.1 1.2 0 2 0.6 2 2.9v10.4h3.2v0.1z"/>
<path d="m29.9 15.2c-1-0.4-1.9-0.7-3-1.1s-1.9-1.1-1.9-2.1c0-1.5 1-2.3 2.6-2.3 0.8 0 1.5 0.1 2.5 0.8 0.5 0.3 0.9 1.1 0.9 2.3h1.4v-2.8-0.1-0.2c-1.4-0.7-3-1.3-4.8-1.3-2.7 0-5.2 1-5.2 4.2 0 1.7 1.1 3.3 3 4.1 1.1 0.5 1.9 0.7 3 1.1 1.3 0.5 2.2 1.2 2.2 2.4 0 1.1-0.5 2.6-2.9 2.6-1.6 0-3.4-0.9-4.9-2.5v2.6c1.3 0.7 3.1 1.2 4.9 1.2 2.8 0 5.6-1.4 5.6-4.3 0.1-2.5-0.9-3.5-3.4-4.6z"/>
</g>
</g>
</g>
</g>
</g>
</svg>
