<?xml version="1.0" encoding="UTF-8"?>
<svg data-name="Layer 1" viewBox="0 0 253.64 213.96" xmlns="http://www.w3.org/2000/svg">
<defs>
<style>.cls-1{fill:#342f53}.cls-2{fill:#84cbf1}.cls-3{fill:#a3c75b}</style>
</defs>
<path class="cls-1" d="M192.13 214h-170c-.65-.1-1.31-.18-2-.31Q6.61 210.85 1.49 198A23.1 23.1 0 0 1 0 190.62V24.71v-1.34c.08-.85.12-1.7.25-2.54A24.1 24.1 0 0 1 9.07 5.44 24.17 24.17 0 0 1 23.12 0H191.1c.91.11 1.84.16 2.74.33a24.56 24.56 0 0 1 20.25 24.55v79.96c-.18.1-.36.22-.55.31a79 79 0 0 0-20.3 14 128.48 128.48 0 0 0-20.78 25.63 100.68 100.68 0 0 0-12.65 29.33 73.56 73.56 0 0 0-2.2 22 5.51 5.51 0 0 0 .1.91.54.54 0 0 0 1 .26 2.23 2.23 0 0 0 .27-.41c.34-.6.66-1.21 1-1.8a200.11 200.11 0 0 1 21.41-30.27 128.39 128.39 0 0 1 31.81-27.1 2.09 2.09 0 0 1 .88-.44v46.59c0 2.09.06 4.17-.07 6.25a31.69 31.69 0 0 1-.4 3.88 24.46 24.46 0 0 1-19.34 19.59 14.13 14.13 0 0 0-2.14.43zm-65-69.6c.09.31.2.7.32 1.08a179.9 179.9 0 0 0 16.45 36.41 120 120 0 0 0 11 15.67c.23.28.45.66.91.49s.38-.6.38-1a94.69 94.69 0 0 1 .56-10.91 105.87 105.87 0 0 1 2-12.39 83.18 83.18 0 0 1 6.51-18.75 64.62 64.62 0 0 1 4.13-7.12c.4-.58.33-.89-.2-1.15a.72.72 0 0 0-.73.11 41 41 0 0 1-6.25 2.86 38.7 38.7 0 0 1-16.08 2.53 28 28 0 0 1-17.82-8 2.48 2.48 0 0 0-.43-.37c-.39-.26-.79-.02-.79.5zM75.14 32.8c.14-.23.34-.28.49-.39a4 4 0 0 0 1.53-2 5.2 5.2 0 0 0-3.67-6.93 9.83 9.83 0 0 0-2.49-.29h-8.17c-.86 0-.82-.09-.82.86V43c0 .26.09.4.37.39h8.94a9.45 9.45 0 0 0 2.19-.2A5.71 5.71 0 0 0 78 36.56a4.52 4.52 0 0 0-2.86-3.76zm24.17 27.61a.13.13 0 0 1 .17.09A21.59 21.59 0 0 0 101 63c2.2 3.25 4.42 6.5 6.61 9.75a1 1 0 0 0 .92.5h2.13c.88 0 .84.07.84-.86V53.45c0-.3-.13-.42-.43-.42h-3c-.34 0-.47.15-.46.47s0 .38 0 .57V66c-.25-.42-.41-.76-.62-1.06q-3.87-5.75-7.73-11.48a.75.75 0 0 0-.69-.39h-2.7c-.35 0-.54.11-.51.48V72.68c0 .35.1.52.48.52h2.91c.34 0 .47-.14.45-.46V60.8c.06-.13-.01-.28.11-.39zm17.83-17.07a1.78 1.78 0 0 0-.26-.76l-3.16-6.51c-.43-.88-.45-.73.33-1.15a5.31 5.31 0 0 0 1.63-1.35 6.42 6.42 0 0 0 1.37-5.57 5.47 5.47 0 0 0-4.76-4.77 11.45 11.45 0 0 0-2.26-.15h-8.17c-.93 0-.83-.05-.83.85v18.93c0 .37.15.49.51.49h2.62c.87 0 .91.12.91-.92v-6c0-.65 0-.65.67-.65h2.84a.74.74 0 0 1 .81.5c.63 1.3 1.28 2.59 1.93 3.88.46.91.92 1.82 1.37 2.73.12.24.22.44.56.44 1.27 0 2.55.01 3.89.01zm-95 19.86v9.3c0 .78 0 .78.79.79h13.2a.34.34 0 0 0 .39-.39V70a.34.34 0 0 0-.39-.39H26.7c-.6 0-.62 0-.62-.59v-3.76c0-.5 0-.53.52-.53h4.83c.22 0 .44 0 .44-.32v-3.06a.28.28 0 0 0-.3-.31h-4.9c-.58 0-.59 0-.59-.6v-3c0-.57 0-.58.61-.58h8.73c.34 0 .53-.08.53-.47v-2.83c0-.26-.1-.41-.37-.4H22.51a.3.3 0 0 0-.35.34v.57zm60.38-30v9.37c0 .76 0 .76.78.76h13.15c.33 0 .45-.13.45-.45v-2.35c0-1 0-.89-.87-.89h-8.87c-.71 0-.71 0-.71-.69v-3.34c0-.88-.09-.82.85-.82h4.33c.61 0 .62 0 .62-.64v-2.56c0-.36-.11-.51-.48-.5h-4.9c-.23 0-.43 0-.43-.33v-3.54c0-.24.11-.34.35-.34H96c.24 0 .35-.1.35-.34v-3c0-.26-.12-.39-.39-.37h-13c-.26 0-.4.09-.39.36s0 .38 0 .57zm59.66 40.08h3.52c.6 0 .6 0 .81-.57.39-1.07.78-2.13 1.15-3.21a.57.57 0 0 1 .62-.44h6.81a.61.61 0 0 1 .67.47c.4 1.09.83 2.17 1.22 3.26a.65.65 0 0 0 .73.5h2.7c.9 0 .83 0 .54-.76q-1.78-4.71-3.59-9.42t-3.59-9.41c-.21-.56-.22-.56-.8-.57h-2.42c-.85 0-.74-.08-1.05.73l-7 18.36a3.67 3.67 0 0 0-.31 1.07zM77 63.14v9.73c0 .16.14.43.43.41H91a.31.31 0 0 0 .35-.35V70a.31.31 0 0 0-.35-.4h-9.57c-.35 0-.53-.11-.5-.49s0-.66 0-1V65.2c0-.37.12-.53.49-.5h4.55c.76 0 .76 0 .76-.72v-2.14c0-.72 0-.83-.88-.84h-4.4c-.5 0-.52 0-.53-.53v-2.34c0-.4-.16-.89.09-1.17s.81-.12 1.23-.13h7.88c.62 0 .63 0 .64-.63v-2.42c0-.64 0-.65-.69-.65H77.75c-.7 0-.7 0-.71.71v9.3zM46.87 52.89a7.94 7.94 0 0 0-1.62.14 6.89 6.89 0 0 0-1.11.26 5.36 5.36 0 0 0-4 5.53 5.06 5.06 0 0 0 3 4.48 28.14 28.14 0 0 0 4.23 1.62 8.68 8.68 0 0 1 2.17 1 2.23 2.23 0 0 1-.38 3.76 4.71 4.71 0 0 1-4.73-.68A6.34 6.34 0 0 1 43 67.26a.43.43 0 0 0-.6-.26c-.88.35-1.78.66-2.66 1-.47.18-.47.19-.3.66A7.42 7.42 0 0 0 43 72.75a9 9 0 0 0 7 .5A5.72 5.72 0 0 0 54.4 68a5.22 5.22 0 0 0-1.94-4.72 10.51 10.51 0 0 0-3.1-1.69c-.82-.3-1.66-.57-2.48-.87a8.49 8.49 0 0 1-2-1 1.53 1.53 0 0 1-.56-2 1.64 1.64 0 0 1 1-.94 4.44 4.44 0 0 1 3.94.45 2.42 2.42 0 0 1 .84 1 .45.45 0 0 0 .64.25l2.55-.85c.25-.08.34-.22.23-.48a6.56 6.56 0 0 0-1-1.8 7.19 7.19 0 0 0-5.65-2.46zm18.17 0h-.35a7.28 7.28 0 0 0-4.9 1.94 5.44 5.44 0 0 0-.47 6.85 6 6 0 0 0 2.16 1.69 30 30 0 0 0 4.11 1.56A7.75 7.75 0 0 1 67.81 66a2.23 2.23 0 0 1-.4 3.68A4.71 4.71 0 0 1 62.6 69a6.42 6.42 0 0 1-1.35-1.72.46.46 0 0 0-.68-.26c-.87.35-1.77.65-2.66 1-.45.17-.46.18-.27.67a7.43 7.43 0 0 0 3.78 4.14 9.18 9.18 0 0 0 6.85.4 5.69 5.69 0 0 0 4.31-5.16 5.21 5.21 0 0 0-1.94-4.85 10.7 10.7 0 0 0-3.17-1.71c-1.07-.38-2.14-.76-3.2-1.16a4.82 4.82 0 0 1-1.37-.75 1.47 1.47 0 0 1-.52-1.6 1.85 1.85 0 0 1 1.25-1.25 3.94 3.94 0 0 1 4.65 1.56.47.47 0 0 0 .64.23c.83-.29 1.66-.57 2.49-.83.34-.1.37-.28.26-.58a6 6 0 0 0-2.44-3.05A7.81 7.81 0 0 0 65 52.89zm122.72 0a8.74 8.74 0 0 0-1.7.15 6 6 0 0 0-1 .25A5.43 5.43 0 0 0 181.2 60a5.09 5.09 0 0 0 2.85 3.35 29 29 0 0 0 4.24 1.63 7.21 7.21 0 0 1 2.27 1.13 2.23 2.23 0 0 1-.45 3.63 4.68 4.68 0 0 1-4.75-.62 6.69 6.69 0 0 1-1.38-1.7c-.28-.47-.3-.47-.83-.27-.8.29-1.61.58-2.4.88-.6.22-.61.23-.38.8a7.43 7.43 0 0 0 3.63 4 9.35 9.35 0 0 0 6.78.53 5.91 5.91 0 0 0 4.49-6.45 5 5 0 0 0-1.68-3.41 10 10 0 0 0-3.37-1.92c-1.07-.39-2.15-.75-3.21-1.15a5 5 0 0 1-1.43-.78 1.59 1.59 0 0 1-.11-2.33 2.14 2.14 0 0 1 1-.61 4.76 4.76 0 0 1 1.55-.12 3.18 3.18 0 0 1 2.98 1.64.48.48 0 0 0 .69.27l2.35-.79c.49-.17.51-.22.31-.73a5.92 5.92 0 0 0-2.49-3 8 8 0 0 0-4.1-1.09zM22 33.57c0 .23 0 .68.07 1.12a12.17 12.17 0 0 0 1.59 5.25A7.22 7.22 0 0 0 28 43.29a8.83 8.83 0 0 0 3 .33 7.4 7.4 0 0 0 6.59-4.54c.21-.42.2-.45-.24-.62-.9-.37-1.81-.7-2.71-1.07-.31-.13-.47 0-.61.24a4.5 4.5 0 0 1-.87 1.12 3.61 3.61 0 0 1-5.49-.32A6.66 6.66 0 0 1 26.5 36a12.22 12.22 0 0 1-.32-3.66 8.49 8.49 0 0 1 1.05-3.72 3.81 3.81 0 0 1 6.41-.46c.1.16.23.29.33.46a.39.39 0 0 0 .58.18c.91-.44 1.84-.86 2.77-1.28.29-.12.32-.29.19-.55a7.29 7.29 0 0 0-1-1.49c-2.58-3.12-7.41-3.1-9.82-1.76a8.3 8.3 0 0 0-3.84 4.66 14.79 14.79 0 0 0-.85 5.19zm18.11-10.38a2.09 2.09 0 0 0 .38.82Q43.73 29.4 47 34.76a2.65 2.65 0 0 1 .4 1.47v6.75c0 .17.08.36.33.36H51c.24 0 .34-.12.34-.35v-.5-6.39a2.2 2.2 0 0 1 .35-1.27l6.5-10.75a3.27 3.27 0 0 0 .42-.81 1.16 1.16 0 0 0-.65-.08h-2.91a1.06 1.06 0 0 0-1.06.62c-1.37 2.29-2.77 4.57-4.17 6.85-.13.21-.21.47-.46.61a2.3 2.3 0 0 1-.46-.64c-1.39-2.28-2.8-4.56-4.17-6.86a1 1 0 0 0-1-.58H41.1zm84.83 41.86v-7.53c0-.63 0-.63.62-.64h4.54c.52 0 .54 0 .54-.51V53.6c0-.27 0-.47-.38-.45h-14.63c-.23 0-.34.11-.34.35v3c0 .31.15.41.44.4h4.83c.5 0 .51 0 .53.52v14.82a5.23 5.23 0 0 1 0 .56c0 .39.16.49.51.49h2.63c.7 0 .71 0 .71-.7zm40-1.86v9.44c0 .64 0 .64.62.66h12.64a.31.31 0 0 0 .35-.35v-3.12a.28.28 0 0 0-.31-.31h-8.52c-1 0-.89.08-.89-.87v-14.5-.57c0-.34-.15-.44-.47-.44h-2.91c-.49 0-.49 0-.51.54v.5zm-26.54 0v-9.42c0-.62 0-.63-.63-.64h-2.34c-.95 0-.87-.06-.87.89v18.87c0 .17.11.39.38.39h3c.3 0 .43-.14.41-.44s0-.33 0-.49z"/>
<path class="cls-2" d="M253.64 119.92l-1.73.35a63.25 63.25 0 0 0-9.42 2.89 165.57 165.57 0 0 0-18.65 8.48q-4.59 2.4-9 5.08a2.31 2.31 0 0 0-.74.54 2.09 2.09 0 0 0-.88.44 128.39 128.39 0 0 0-31.83 27.16A200.11 200.11 0 0 0 160 195.13c-.34.59-.66 1.2-1 1.8a2.23 2.23 0 0 1-.27.41.54.54 0 0 1-1-.26 5.51 5.51 0 0 1-.1-.91 73.56 73.56 0 0 1 2.2-22 100.68 100.68 0 0 1 12.65-29.33 128.48 128.48 0 0 1 20.78-25.63 79 79 0 0 1 20.3-14c.19-.09.37-.21.55-.31 1-.34 2-.85 3-1.26a63.51 63.51 0 0 1 14.32-4c.89-.13 1.78-.25 2.67-.3a10.61 10.61 0 0 1 6.6 2 23.22 23.22 0 0 1 5.21 4.88 54.15 54.15 0 0 1 7.64 12.78.87.87 0 0 0 .09.11z"/>
<path class="cls-3" d="M127.09 144.36c0-.52.4-.76.79-.54a2.48 2.48 0 0 1 .43.37 28 28 0 0 0 17.82 8 38.7 38.7 0 0 0 16.08-2.53 41 41 0 0 0 6.25-2.86.72.72 0 0 1 .73-.11c.53.26.6.57.2 1.15a64.62 64.62 0 0 0-4.13 7.12 83.18 83.18 0 0 0-6.52 18.79 105.87 105.87 0 0 0-2 12.39 94.69 94.69 0 0 0-.56 10.91c0 .37.09.8-.38 1s-.68-.21-.91-.49a120 120 0 0 1-11-15.67 179.9 179.9 0 0 1-16.45-36.41c-.15-.42-.26-.81-.35-1.12z"/>
<path class="cls-2" d="M75.14 32.8A4.52 4.52 0 0 1 78 36.56a5.71 5.71 0 0 1-4.52 6.64 9.45 9.45 0 0 1-2.19.2h-8.95c-.28 0-.38-.13-.37-.39v-19c0-.95 0-.86.82-.86h8.17a9.83 9.83 0 0 1 2.53.29 5.2 5.2 0 0 1 3.67 6.93 4 4 0 0 1-1.53 2c-.15.15-.35.2-.49.43zm-6.16 2H66.5c-.35 0-.51.1-.5.48v4c0 .38.14.49.5.48h3.68a12.56 12.56 0 0 0 2-.14 2.23 2.23 0 0 0 2-2 2.29 2.29 0 0 0-1.29-2.45 3.73 3.73 0 0 0-1.57-.37zm-.11-8h-2.35c-.55 0-.56 0-.56.54v3.19c0 .53 0 .54.57.54h4a5 5 0 0 0 1.67-.29 1.91 1.91 0 0 0 1.31-2 1.81 1.81 0 0 0-1.4-1.78 3.25 3.25 0 0 0-1.11-.17z"/>
<path class="cls-3" d="M99.31 60.41c-.12.11 0 .26 0 .39v11.93c0 .32-.11.47-.45.46h-2.91c-.38 0-.51-.17-.48-.52V53.94v-.43c0-.37.16-.49.51-.48h2.7a.75.75 0 0 1 .69.39q3.86 5.74 7.73 11.48c.21.3.37.64.62 1.06V54.07v-.57c0-.19.12-.47.46-.47h3c.3 0 .45.12.43.42v18.88c0 .93 0 .86-.84.86h-2.13a1 1 0 0 1-.92-.5c-2.19-3.25-4.41-6.5-6.61-9.75a21.59 21.59 0 0 1-1.56-2.45.13.13 0 0 0-.24-.08z"/>
<path class="cls-2" d="M117.14 43.34h-3.89c-.34 0-.44-.2-.56-.44-.45-.91-.91-1.82-1.37-2.73-.65-1.29-1.3-2.58-1.93-3.88a.74.74 0 0 0-.81-.5h-2.84c-.66 0-.67 0-.67.65v6c0 1 .09.91-.91.92s-1.75 0-2.62 0c-.36 0-.54-.12-.51-.49V24c0-.9-.1-.85.83-.85h8.17a11.45 11.45 0 0 1 2.26.15 5.47 5.47 0 0 1 4.76 4.7 6.42 6.42 0 0 1-1.37 5.53 5.31 5.31 0 0 1-1.63 1.35c-.78.42-.76.27-.33 1.15l3.16 6.51a1.78 1.78 0 0 1 .26.8zm-9.07-16.51h-2.7c-.34 0-.51.09-.5.48v4.25c0 .4.17.48.51.47h2.48c.83 0 1.84 0 2.76.06a2.14 2.14 0 0 0 1.63-.56 2.58 2.58 0 0 0 .75-2.13 2.33 2.33 0 0 0-2.48-2.57c-.8-.02-1.63 0-2.45 0z"/>
<path class="cls-3" d="M22.15 63.2v-9.15-.57a.3.3 0 0 1 .35-.34h13.07c.27 0 .37.14.37.4v2.83c0 .39-.19.48-.53.47h-8.72c-.6 0-.61 0-.61.58v3c0 .59 0 .6.59.6h4.9a.28.28 0 0 1 .3.31v3.06c0 .29-.22.32-.44.32H26.6c-.49 0-.52 0-.52.53V69c0 .56 0 .58.62.59h9.44a.34.34 0 0 1 .39.39v2.91a.34.34 0 0 1-.39.39h-13.2c-.78 0-.79 0-.79-.79z"/>
<path class="cls-2" d="M82.53 33.21v-9.09-.57c0-.19.13-.38.39-.36h13c.27 0 .39.11.39.37v3c0 .24-.11.35-.35.34H86.8c-.18 0-.35.1-.35.34v3.55c0 .31.2.33.43.33h4.9c.37 0 .49.14.48.5v2.56c0 .63 0 .63-.62.64H87.3c-.94 0-.85-.06-.85.82v3.34c0 .68 0 .69.71.69H96c.91 0 .87-.12.87.89v2.35c0 .32-.11.48-.45.45s-.67 0-1 0H83.31c-.77 0-.78 0-.78-.76z"/>
<path class="cls-3" d="M142.19 73.29a3.67 3.67 0 0 1 .32-1.07l7-18.36c.31-.81.2-.72 1.05-.73H153c.58 0 .59 0 .8.57q1.8 4.71 3.59 9.41t3.61 9.42c.29.75.28.75-.54.76s-1.8 0-2.7 0a.65.65 0 0 1-.73-.5c-.39-1.09-.82-2.17-1.22-3.26a.61.61 0 0 0-.67-.47h-6.81a.57.57 0 0 0-.62.44c-.37 1.08-.76 2.14-1.15 3.21-.21.56-.21.57-.81.57zm6.93-7.91a.58.58 0 0 0 .47.13h3.75c1 0 1 .1.61-.91-.56-1.53-1.21-3-1.67-4.59a10.66 10.66 0 0 0-.48-1.17c0-.05-.08 0-.13 0-.85 2.16-1.67 4.38-2.55 6.54zM77 63.14v-9.3c0-.7 0-.71.71-.71H90c.68 0 .68 0 .69.65v2.42c0 .62 0 .63-.64.63H82.2c-.42 0-.94-.19-1.23.13s-.08.77-.09 1.17v2.34c0 .5 0 .53.53.53h4.4c.87 0 .87 0 .88.84s0 1.43 0 2.14 0 .72-.76.72h-4.56c-.37 0-.5.13-.49.5v3.91c0 .34.15.51.5.49H91a.31.31 0 0 1 .35.35v3a.31.31 0 0 1-.35.35H77.47c-.29 0-.44-.1-.43-.41s0-.33 0-.5zM46.87 52.89a7.19 7.19 0 0 1 5.65 2.49 6.56 6.56 0 0 1 1 1.8c.11.26 0 .4-.23.48l-2.55.85a.45.45 0 0 1-.64-.25 2.42 2.42 0 0 0-.84-1 4.44 4.44 0 0 0-3.94-.45 1.64 1.64 0 0 0-1 .94 1.53 1.53 0 0 0 .56 2 8.49 8.49 0 0 0 2 1c.82.3 1.66.57 2.48.87a10.51 10.51 0 0 1 3.1 1.69A5.22 5.22 0 0 1 54.4 68a5.72 5.72 0 0 1-4.34 5.28 9 9 0 0 1-7-.5 7.42 7.42 0 0 1-3.59-4.06c-.17-.47-.17-.48.3-.66.88-.33 1.78-.64 2.66-1a.43.43 0 0 1 .63.22A6.34 6.34 0 0 0 44.43 69a4.71 4.71 0 0 0 4.74.68 2.23 2.23 0 0 0 .38-3.68 8.68 8.68 0 0 0-2.17-1 28.14 28.14 0 0 1-4.23-1.62 5.06 5.06 0 0 1-3-4.48 5.36 5.36 0 0 1 4-5.53 6.89 6.89 0 0 1 1.1-.37 7.94 7.94 0 0 1 1.62-.11zM65 52.89a7.81 7.81 0 0 1 4.19 1.16 6 6 0 0 1 2.44 3.05c.11.3.08.48-.26.58-.83.26-1.66.54-2.49.83a.47.47 0 0 1-.64-.23 3.94 3.94 0 0 0-4.65-1.56A1.85 1.85 0 0 0 62.38 58a1.47 1.47 0 0 0 .52 1.65 4.82 4.82 0 0 0 1.37.75c1.06.4 2.13.78 3.2 1.16a10.7 10.7 0 0 1 3.17 1.71 5.21 5.21 0 0 1 1.94 4.85 5.69 5.69 0 0 1-4.31 5.16 9.18 9.18 0 0 1-6.85-.4 7.43 7.43 0 0 1-3.78-4.14c-.19-.49-.18-.5.27-.67.89-.34 1.79-.64 2.66-1a.46.46 0 0 1 .68.26A6.42 6.42 0 0 0 62.6 69a4.71 4.71 0 0 0 4.81.66 2.23 2.23 0 0 0 .4-3.68 7.75 7.75 0 0 0-2.22-1.08 30 30 0 0 1-4.11-1.56 6 6 0 0 1-2.16-1.69 5.44 5.44 0 0 1 .47-6.85 7.28 7.28 0 0 1 4.9-1.94zM187.76 52.89a8 8 0 0 1 4.06 1.11 5.92 5.92 0 0 1 2.49 3c.2.51.18.56-.31.73l-2.35.79a.48.48 0 0 1-.69-.27 3.18 3.18 0 0 0-2.96-1.7 4.76 4.76 0 0 0-1.55.12 2.14 2.14 0 0 0-1 .61 1.59 1.59 0 0 0 .11 2.33 5 5 0 0 0 1.43.78c1.06.4 2.14.76 3.21 1.15a10 10 0 0 1 3.37 1.92 5 5 0 0 1 1.68 3.41 5.91 5.91 0 0 1-4.49 6.45 9.35 9.35 0 0 1-6.78-.53 7.43 7.43 0 0 1-3.63-4c-.23-.57-.22-.58.38-.8.79-.3 1.6-.59 2.4-.88.53-.2.55-.2.83.27a6.69 6.69 0 0 0 1.38 1.7 4.68 4.68 0 0 0 4.75.62 2.23 2.23 0 0 0 .45-3.63 7.21 7.21 0 0 0-2.27-1.13 29 29 0 0 1-4.24-1.63A5.09 5.09 0 0 1 181.2 60a5.43 5.43 0 0 1 3.8-6.71 6 6 0 0 1 1-.25 8.74 8.74 0 0 1 1.76-.15z"/>
<path class="cls-2" d="M22 33.57a14.79 14.79 0 0 1 .87-5.23 8.3 8.3 0 0 1 3.84-4.66c2.41-1.34 7.24-1.36 9.82 1.76a7.29 7.29 0 0 1 1 1.49c.13.26.1.43-.19.55-.93.42-1.86.84-2.77 1.28a.39.39 0 0 1-.58-.18c-.1-.17-.23-.3-.33-.46a3.81 3.81 0 0 0-6.41.46 8.49 8.49 0 0 0-1.05 3.72 12.22 12.22 0 0 0 .3 3.7 6.66 6.66 0 0 0 1.19 2.47 3.61 3.61 0 0 0 5.49.32 4.5 4.5 0 0 0 .87-1.12c.14-.28.3-.37.61-.24.9.37 1.81.7 2.71 1.07.44.17.45.2.24.62a7.4 7.4 0 0 1-6.61 4.5 8.83 8.83 0 0 1-3-.33 7.22 7.22 0 0 1-4.32-3.35 12.17 12.17 0 0 1-1.59-5.25c-.04-.44-.09-.89-.09-1.12zM40.11 23.19h3.63a1 1 0 0 1 1 .58c1.37 2.3 2.78 4.58 4.17 6.86a2.3 2.3 0 0 0 .46.64c.25-.14.33-.4.46-.61 1.4-2.28 2.8-4.56 4.17-6.85a1.06 1.06 0 0 1 1-.64h2.91a1.16 1.16 0 0 1 .65.08 3.27 3.27 0 0 1-.42.81l-6.5 10.75a2.2 2.2 0 0 0-.35 1.27V43c0 .23-.1.35-.34.35h-3.24c-.25 0-.33-.14-.33-.36v-.5-6.25a2.65 2.65 0 0 0-.4-1.47Q43.72 29.41 40.49 24a2.09 2.09 0 0 1-.38-.81z"/>
<path class="cls-3" d="M124.94 65.05v7.53c0 .7 0 .7-.71.7h-2.63c-.35 0-.54-.1-.51-.49a5.23 5.23 0 0 0 0-.56V57.89v-.49c0-.5 0-.52-.53-.52h-4.83c-.29 0-.44-.09-.44-.4v-3c0-.24.11-.35.34-.35h14.63c.33 0 .39.18.38.45v2.77c0 .49 0 .51-.54.51h-4.54c-.61 0-.62 0-.62.64-.01 2.5 0 5.04 0 7.55zM165 63.19v-9-.5c0-.52 0-.54.51-.54h2.91c.32 0 .49.1.47.44V68.62c0 .95-.06.87.89.87h8.52a.28.28 0 0 1 .31.31v3.12a.31.31 0 0 1-.35.35h-12.68c-.61 0-.62 0-.62-.66.04-3.12.04-6.27.04-9.42zM138.42 63.21v9.64c0 .16-.11.44-.41.44h-3c-.27 0-.39-.13-.38-.39s0-.33 0-.5V54c0-1-.08-.88.87-.89h2.34c.62 0 .63 0 .63.64v9.44z"/>
<path class="cls-1" d="M69 34.81h2.34a3.73 3.73 0 0 1 1.57.37 2.29 2.29 0 0 1 1.29 2.45 2.23 2.23 0 0 1-2 2 12.56 12.56 0 0 1-2 .14h-3.68c-.36 0-.51-.1-.5-.48v-4c0-.38.15-.48.5-.48H69zM68.87 26.82H71a3.25 3.25 0 0 1 1.11.16 1.81 1.81 0 0 1 1.38 1.84 1.91 1.91 0 0 1-1.31 2 5 5 0 0 1-1.67.29h-4c-.56 0-.57 0-.57-.54v-3.19c0-.53 0-.54.56-.54zM108.07 26.83h2.48A2.33 2.33 0 0 1 113 29.4a2.58 2.58 0 0 1-.78 2.12 2.14 2.14 0 0 1-1.63.56c-.92-.1-1.84 0-2.76-.06s-1.65 0-2.48 0c-.34 0-.52-.07-.51-.47V27.3c0-.39.16-.49.5-.48h2.7zM149.12 65.38c.85-2.16 1.7-4.35 2.55-6.52.05-.06.11-.07.13 0a10.66 10.66 0 0 1 .48 1.17c.46 1.57 1.11 3.06 1.67 4.59.36 1 .35.91-.61.91h-3.75a.58.58 0 0 1-.47-.15z"/>
</svg>
