<?xml version="1.0" encoding="UTF-8"?>
<svg version="1.1" viewBox="0 0 107 23" xmlns="http://www.w3.org/2000/svg">
<title>IIP</title>
<desc>Created with Sketch.</desc>
<g fill="none" fill-rule="evenodd">
<g fill="#898E8B" fill-rule="nonzero">
<path d="m11.851 0.801s-1.377 2.085-4.192 1.774c0 0 1.422-2.148 4.192-1.774"/>
<path d="m7.596 0.852c-0.179 1.281-0.82 2.127-1.457 2.666 0.799-0.28 1.875-0.415 3.112 0.058 0 0-1.856 1.752-4.583 0.783 0 0 2e-3 -2e-3 3e-3 -2e-3 -2e-3 0-5e-3 1e-3 -5e-3 1e-3 0.462-2.796 2.93-3.506 2.93-3.506"/>
<path d="m3.906 3.338c0.369 1.269 0.125 2.325-0.243 3.093 0.626-0.594 1.573-1.17 2.924-1.247 0 0-0.997 2.408-3.943 2.645 0 0 1e-3 -3e-3 2e-3 -4e-3l-4e-3 4e-3c-0.739-2.797 1.264-4.491 1.264-4.491"/>
<path d="m1.434 7.135c0.871 1.049 1.076 2.147 1.044 3.025 0.347-0.82 1.004-1.753 2.25-2.382 0 0 0.048 2.687-2.638 4.122v-4e-3c-1e-3 2e-3 -3e-3 5e-3 -3e-3 5e-3 -1.848-2.34-0.653-4.766-0.653-4.766"/>
<path d="m0.759 11.698c1.216 0.613 1.842 1.537 2.165 2.354-0.01-0.889 0.22-2.007 1.111-3.081 0 0 1.117 2.443-0.771 4.832l-2e-3 -4e-3v6e-3c-2.631-1.407-2.503-4.107-2.503-4.107"/>
<path d="m1.975 16.117c1.361 0.06 2.311 0.647 2.939 1.262-0.373-0.809-0.621-1.922-0.248-3.267 0 0 2.02 1.772 1.275 4.725 0 0-2e-3 -1e-3 -3e-3 -2e-3 1e-3 2e-3 2e-3 5e-3 2e-3 5e-3 -2.975-0.207-3.965-2.723-3.965-2.723"/>
<path d="m4.79 19.648c1.312-0.502 2.452-0.336 3.298-0.014-0.685-0.611-1.377-1.562-1.576-2.987 0 0 2.637 0.846 3.145 3.944h-4e-3c2e-3 1e-3 5e-3 3e-3 5e-3 3e-3 -2.899 1.028-4.868-0.946-4.868-0.946"/>
<polyline points="56.452 3.983 56.452 4.664 54.766 4.665 54.767 10.24 53.688 10.241 53.688 4.653 51.995 4.654 51.994 3.983 56.452 3.983"/>
<path d="m50.401 8.559c-0.146-0.575-1.488-1.162-1.927-1.454-1.3-0.862-0.945-3.26 1.311-3.26 0.936 0 1.494 0.451 1.494 0.451l-0.291 0.904h-0.137c-0.195-0.523-0.562-0.783-1.103-0.783-1.004 0-1.485 1.22-0.278 1.869 0.454 0.243 1.608 0.755 1.945 1.453 0.496 1.026-0.104 2.61-2.261 2.61-1.039 0-1.466-0.366-1.466-0.366l0.263-1.159h0.173c0.024 0.134 0.189 0.985 1.252 0.985 0.799 0 1.175-0.66 1.025-1.25"/>
<polyline points="43.183 3.982 46.944 3.983 46.944 4.66 44.235 4.661 44.234 6.631 46.907 6.631 46.907 7.329 44.234 7.331 44.233 9.558 46.94 9.558 46.94 10.24 43.183 10.239 43.183 3.982"/>
<path d="m23.673 7.13s1.196 2.425-0.653 4.765c0 0-2e-3 -2e-3 -3e-3 -5e-3v4e-3c-2.686-1.436-2.639-4.121-2.639-4.121 1.246 0.628 1.904 1.561 2.251 2.38-0.032-0.877 0.173-1.975 1.044-3.023"/>
<path d="m21.201 3.332s2.003 1.694 1.264 4.491l-4e-3 -4e-3c0 1e-3 1e-3 4e-3 1e-3 4e-3 -2.945-0.237-3.942-2.645-3.942-2.645 1.351 0.077 2.297 0.652 2.924 1.247-0.368-0.769-0.612-1.824-0.243-3.093"/>
<path d="m20.441 4.352s-3e-3 -1e-3 -5e-3 -2e-3l3e-3 3e-3c-2.727 0.969-4.583-0.783-4.583-0.783 1.238-0.473 2.314-0.338 3.112-0.058-0.637-0.539-1.278-1.384-1.457-2.667 0 0 2.468 0.711 2.93 3.507"/>
<path d="m17.406 2.569c-2.817 0.312-4.193-1.773-4.193-1.773 2.77-0.374 4.193 1.773 4.193 1.773"/>
<path d="m16.327 22.729c-3e-3 0.018-0.797-1.138-2.382-1.253-1.609-0.115-2.852 0.914-4.431 0.775-0.798-0.072-1.166-0.761-1.166-0.761 1.49 0.506 3.494-1.051 5.101-1.051 1.844 0 3.074 1.188 2.878 2.29"/>
<path d="m15.45 20.589s2e-3 -2e-3 4e-3 -5e-3c-1e-3 1e-3 -4e-3 2e-3 -4e-3 2e-3 0.508-3.099 3.146-3.945 3.146-3.945-0.2 1.425-0.892 2.376-1.577 2.988 0.847-0.323 1.986-0.489 3.298 0.013 0 0-1.969 1.973-4.867 0.947"/>
<path d="m19.167 18.834 2e-3 -6e-3 -3e-3 3e-3c-0.745-2.953 1.275-4.725 1.275-4.725 0.373 1.345 0.125 2.459-0.248 3.267 0.628-0.614 1.578-1.201 2.939-1.262 0 0-0.99 2.517-3.965 2.723"/>
<path d="m21.846 15.799v-4e-3c-1e-3 0-2e-3 3e-3 -2e-3 3e-3 -1.889-2.39-0.772-4.833-0.772-4.833 0.891 1.074 1.121 2.191 1.111 3.082 0.323-0.818 0.949-1.742 2.166-2.355 0 0 0.127 2.701-2.503 4.107"/>
<polygon points="28.574 19.593 29.631 19.593 29.631 13.334 28.574 13.334"/>
<polygon points="28.574 10.24 29.631 10.24 29.631 3.981 28.574 3.981"/>
<polyline points="35.523 19.591 31.489 15.076 31.485 19.591 30.802 19.591 30.809 13.334 31.554 13.334 35.521 17.814 35.522 13.334 36.2 13.334 36.201 19.591 35.523 19.591"/>
<polyline points="36.201 10.24 35.523 10.24 31.489 5.725 31.489 10.24 30.802 10.24 30.809 3.983 31.554 3.983 35.521 8.463 35.52 3.984 36.201 3.984 36.201 10.24"/>
<polyline points="39.311 10.24 36.936 3.983 38.288 3.983 40.041 8.749 41.719 3.983 42.52 3.983 40.113 10.24 39.311 10.24"/>
<path d="m42.401 16.424h-0.947s-2e-3 -2.311-2e-3 -2.572h0.973c0.851 0 1.232 0.415 1.232 1.236 0 0.736-0.357 1.336-1.256 1.336zm0.352-3.089h-2.377l2e-3 6.256h1.076l-2e-3 -2.703h0.902c1.915 0 2.545-0.868 2.545-1.95 0-0.446-0.264-1.603-2.146-1.603z"/>
<polyline points="49.691 14.015 46.868 14.015 46.868 15.983 49.654 15.983 49.654 16.681 46.865 16.682 46.865 18.909 49.687 18.91 49.687 19.592 45.79 19.592 45.79 13.335 49.691 13.335 49.691 14.015"/>
<path d="m59.94 16.415c-0.046 0-0.947 1e-3 -0.947 1e-3s-1e-3 -2.313-1e-3 -2.574h0.971c0.852 0 1.232 0.415 1.232 1.236 0 0.736-0.357 1.337-1.255 1.337zm0.351-3.09h-2.377l2e-3 6.256h1.077l-2e-3 -2.703h0.902c1.915 0 2.544-0.868 2.544-1.95 0-0.446-0.264-1.603-2.146-1.603z"/>
<path d="m59.447 9.858c-1.103 0-1.996-1.221-1.996-2.725 0-1.505 0.893-2.724 1.996-2.724 1.102 0 1.996 1.219 1.996 2.724 0 1.504-0.894 2.725-1.996 2.725zm-0.025-6.007c-1.78 0-3.224 1.469-3.224 3.282 0 1.812 1.444 3.282 3.224 3.282 1.781 0 3.226-1.47 3.226-3.282 0-1.813-1.445-3.282-3.226-3.282z"/>
<polyline points="67.197 19.6 63.292 19.6 63.292 13.342 64.368 13.342 64.368 18.916 67.197 18.916 67.197 19.6"/>
<path d="m64.449 7.073v-2.571s0.777 7e-3 0.787 7e-3c0.838 0 1.166 0.603 1.166 1.227 0 0.719-0.369 1.336-1.207 1.336-0.025 0-0.746 1e-3 -0.746 1e-3zm1.655 0.374c0.028-6e-3 1.539-0.286 1.539-1.746 0-1.21-0.854-1.718-2.202-1.718h-2.073v6.257h1.085l-2e-3 -2.704h0.389l1.785 2.698h1.352l-1.873-2.787z"/>
<polyline points="71.939 14.015 69.116 14.015 69.116 15.983 71.902 15.983 71.902 16.681 69.114 16.682 69.114 18.909 71.936 18.91 71.936 19.592 68.038 19.592 68.038 13.335 71.939 13.335 71.939 14.015"/>
<path d="m69.854 10.372c-1.04 0-1.466-0.366-1.466-0.366l0.263-1.159h0.173c0.024 0.134 0.189 0.985 1.252 0.985 0.798 0 1.174-0.66 1.024-1.251-0.146-0.574-1.487-1.161-1.927-1.453-1.3-0.862-0.944-3.261 1.312-3.261 0.936 0 1.494 0.452 1.494 0.452l-0.292 0.904h-0.137c-0.194-0.523-0.561-0.783-1.102-0.783-1.004 0-1.486 1.22-0.278 1.869 0.453 0.243 1.607 0.755 1.945 1.453 0.497 1.026-0.104 2.61-2.261 2.61"/>
<polygon points="78.515 19.536 79.03 19.536 79.03 3.945 78.515 3.945"/>
<path d="m85.727 13.491c-0.587 0-1.228-0.181-1.554-0.398l0.208-0.649c0.353 0.216 0.859 0.388 1.4 0.388 0.803 0 1.273-0.416 1.273-1.03 0-0.568-0.324-0.903-1.145-1.21-0.996-0.343-1.609-0.867-1.609-1.716 0-0.948 0.786-1.653 1.969-1.653 0.614 0 1.075 0.145 1.337 0.289l-0.217 0.65c-0.189-0.117-0.597-0.288-1.147-0.288-0.831 0-1.147 0.496-1.147 0.912 0 0.56 0.37 0.839 1.21 1.165 1.03 0.406 1.545 0.894 1.545 1.788 0 0.93-0.687 1.752-2.123 1.752"/>
<polygon points="88.907 13.4 89.702 13.4 89.702 9.029 88.907 9.029"/>
<path d="m89.294 8.289h-8e-3c-0.29 0-0.479-0.226-0.479-0.488 0-0.28 0.198-0.497 0.496-0.497 0.289 0 0.488 0.217 0.488 0.497 0 0.262-0.19 0.488-0.497 0.488"/>
<polygon points="91.019 13.4 91.815 13.4 91.815 6.988 91.019 6.988"/>
<path d="m95.03 13.401h-0.759l-1.662-4.372h0.849l0.858 2.448c0.144 0.407 0.262 0.768 0.352 1.128h0.028c0.098-0.36 0.225-0.721 0.37-1.128l0.848-2.448h0.832l-1.716 4.372"/>
<path d="m104.09 9.698c-0.081-9e-3 -0.163-0.019-0.27-0.019-0.56 0-0.957 0.425-1.067 1.012-0.017 0.118-0.026 0.244-0.026 0.371v2.338h-0.795v-3.007c0-0.515-9e-3 -0.957-0.036-1.364h0.695l0.036 0.858h0.028c0.198-0.586 0.686-0.957 1.218-0.957 0.081 0 0.145 9e-3 0.217 0.018v0.75"/>
<path d="m97.866 10.791c0.063-0.552 0.407-1.292 1.218-1.292 0.886 0 1.103 0.785 1.094 1.292h-2.312zm3.08 0.199c0-0.804-0.371-2.06-1.798-2.06-1.274 0-2.059 1.039-2.059 2.358 0 1.308 0.813 2.203 2.15 2.203 0.695 0 1.183-0.154 1.462-0.28l-0.144-0.569c-0.289 0.126-0.641 0.226-1.211 0.226-0.794 0-1.472-0.443-1.489-1.509h3.061c0.019-0.09 0.028-0.207 0.028-0.369z"/>
<path d="m53.814 19.207c-1.102 0-1.996-1.221-1.996-2.725 0-1.506 0.894-2.725 1.996-2.725s1.996 1.219 1.996 2.725c0 1.504-0.894 2.725-1.996 2.725zm-0.024-6.007c-1.78 0-3.224 1.469-3.224 3.282s1.444 3.281 3.224 3.281c1.782 0 3.226-1.468 3.226-3.281s-1.444-3.282-3.226-3.282z"/>
<path d="m84.471 15.356v2.441c0 1.025 0.48 1.421 1.079 1.421 0.666 0 1.128-0.432 1.128-1.421v-2.441h0.287v2.41c0 1.242-0.671 1.698-1.432 1.698-0.708 0-1.344-0.414-1.344-1.649v-2.459h0.282"/>
<path d="m87.699 17.209c0-0.264-0.012-0.461-0.024-0.69h0.264l0.023 0.522h0.013c0.155-0.324 0.516-0.587 0.989-0.587 0.276 0 1.001 0.137 1.001 1.217v1.727h-0.281v-1.703c0-0.521-0.204-0.996-0.798-0.996-0.408 0-0.75 0.288-0.863 0.66-0.025 0.072-0.042 0.168-0.042 0.258v1.781h-0.282v-2.189"/>
<path d="m91.191 15.883v0.636h0.821v0.229h-0.821v1.87c0 0.366 0.114 0.6 0.42 0.6 0.149 0 0.257-0.024 0.329-0.048l0.036 0.222c-0.096 0.042-0.228 0.072-0.401 0.072-0.21 0-0.384-0.072-0.493-0.21-0.131-0.15-0.179-0.39-0.179-0.684v-1.822h-0.486v-0.229h0.486v-0.527l0.288-0.109"/>
<path d="m92.649 19.398h0.282v-2.879h-0.282v2.879zm0.372-3.7c0 0.132-0.09 0.246-0.24 0.246-0.132 0-0.222-0.114-0.222-0.246s0.101-0.252 0.234-0.252c0.138 0 0.228 0.114 0.228 0.252z"/>
<polygon points="93.903 19.398 94.185 19.398 94.185 15.14 93.903 15.14"/>
<path d="m96.159 19.398v-0.18l0.36-0.372c1.085-1.061 1.558-1.607 1.558-2.279 0-0.443-0.185-0.881-0.845-0.881-0.371 0-0.659 0.192-0.827 0.336l-0.115-0.198c0.252-0.228 0.594-0.39 0.996-0.39 0.81 0 1.085 0.612 1.085 1.073 0 0.768-0.557 1.385-1.535 2.351l-0.275 0.282v0.012h1.919v0.246h-2.321"/>
<path d="m99.092 17.473c0 1.085 0.372 1.751 0.936 1.751 0.647 0 0.941-0.738 0.941-1.8 0-1.018-0.275-1.756-0.935-1.756-0.534 0-0.942 0.654-0.942 1.805zm2.177-0.078c0 1.398-0.504 2.069-1.283 2.069-0.606 0-1.169-0.594-1.188-1.998 0-1.42 0.624-2.032 1.278-2.032 0.689 0 1.193 0.612 1.193 1.961z"/>
<path d="m101.53 19.398v-0.18l0.36-0.372c1.086-1.061 1.559-1.607 1.559-2.279 0-0.443-0.186-0.881-0.845-0.881-0.372 0-0.66 0.192-0.828 0.336l-0.114-0.198c0.252-0.228 0.594-0.39 0.995-0.39 0.81 0 1.086 0.612 1.086 1.073 0 0.768-0.557 1.385-1.535 2.351l-0.276 0.282v0.012h1.919v0.246h-2.321"/>
<path d="m104.34 19.398v-0.18l0.359-0.372c1.086-1.061 1.56-1.607 1.56-2.279 0-0.443-0.186-0.881-0.846-0.881-0.372 0-0.66 0.192-0.828 0.336l-0.113-0.198c0.252-0.228 0.594-0.39 0.995-0.39 0.81 0 1.086 0.612 1.086 1.073 0 0.768-0.558 1.385-1.535 2.351l-0.277 0.282v0.012h1.919v0.246h-2.32"/>
</g>
</g>
</svg>
