<svg width="175" height="29" viewBox="0 0 175 29" fill="none" xmlns="http://www.w3.org/2000/svg">
<g clip-path="url(#clip0_391_27101)">
<path d="M44.3403 21.8144L39.8855 16.0166C42.7457 15.3396 44.7454 13.4518 44.7454 10.3229V10.2695C44.7454 8.70004 44.1778 7.30375 43.2189 6.33336C41.9937 5.0946 40.075 4.35339 37.6811 4.35339H30.6139C29.9196 4.35339 29.3213 4.95224 29.3213 5.68738V22.7328C29.3213 23.4681 29.9196 24.067 30.6139 24.067C31.3383 24.067 31.9324 23.4665 31.9324 22.7328V16.5123H36.9953L42.2374 23.3977C42.5253 23.7858 42.914 24.067 43.426 24.067C44.0871 24.067 44.7454 23.4621 44.7454 22.7589C44.7454 22.4023 44.5951 22.105 44.3403 21.8144ZM42.1073 10.3512L42.1075 10.4056H42.1073C42.1073 12.7265 40.1703 14.0901 37.4916 14.0901H31.9324V6.82999H37.5186C40.3979 6.82999 42.1073 8.13527 42.1073 10.3512Z" fill="black"/>
<path d="M48.5515 22.5967C48.5515 23.3309 49.1498 23.93 49.8442 23.93H61.7128C62.3859 23.93 62.9237 23.3853 62.9237 22.7048C62.9237 22.0252 62.3861 21.4805 61.7128 21.4805H51.1629V15.2843H60.3643C61.0376 15.2843 61.5762 14.7405 61.5762 14.06C61.5762 13.4133 61.0376 12.8348 60.3643 12.8348H51.1629V6.80385H61.5782C62.2502 6.80385 62.7901 6.25915 62.7901 5.57862C62.7901 4.8981 62.2502 4.35339 61.5782 4.35339H49.8442C49.1501 4.35339 48.5515 4.95224 48.5515 5.68761V22.5967Z" fill="black"/>
<path d="M73.902 24.1491L74.0435 24.1486C74.7501 24.1363 75.1902 23.7339 75.4696 23.105L82.7841 6.02317C82.8492 5.85887 82.8822 5.69457 82.8822 5.49737C82.8822 4.82548 82.3204 4.21753 81.5896 4.21753C81.0104 4.21753 80.5488 4.65955 80.3225 5.11486C80.32 5.12 80.3177 5.12513 80.3154 5.1305L73.9837 20.4645L67.6769 5.18488C67.4521 4.63177 66.9937 4.21753 66.3499 4.21753C65.6214 4.21753 65.0293 4.85628 65.0293 5.52351C65.0293 5.75665 65.0644 5.92235 65.162 6.12072L72.4397 23.0998C72.6933 23.7393 73.1737 24.1491 73.902 24.1491Z" fill="black"/>
<path d="M86.3379 5.55151V22.733C86.3379 23.4683 86.9362 24.0672 87.6305 24.0672C88.3549 24.0672 88.9491 23.4667 88.9491 22.733V5.55151C88.9491 4.81777 88.3549 4.21753 87.6305 4.21753C86.9362 4.21753 86.3379 4.81614 86.3379 5.55151Z" fill="black"/>
<path d="M106.786 4.35386L106.754 4.35339H95.0195C94.3263 4.35339 93.7278 4.95224 93.7278 5.68761V22.5967C93.7278 23.3309 94.3261 23.93 95.0195 23.93C95.0193 23.93 106.889 23.93 106.889 23.93C107.561 23.93 108.1 23.3853 108.1 22.7048C108.1 22.0252 107.561 21.4805 106.889 21.4805H96.3389V15.2843H105.539C106.214 15.2843 106.751 14.7405 106.751 14.06C106.751 13.4133 106.214 12.8348 105.539 12.8348H96.3389V6.80385H106.754C107.426 6.80385 107.966 6.25915 107.966 5.57862C107.966 4.90883 107.443 4.37043 106.786 4.35386Z" fill="black"/>
<path d="M129.92 24.1751H130.142C130.771 24.1616 131.223 23.7256 131.445 23.0848C131.444 23.0869 137.487 6.12434 137.487 6.12434C137.488 6.12201 137.488 6.11991 137.489 6.11757C137.55 5.93087 137.636 5.71033 137.636 5.52363C137.636 4.855 137.011 4.21765 136.316 4.21765C135.695 4.21765 135.26 4.63353 135.063 5.22864C135.064 5.22607 130.064 19.7643 130.064 19.7643L125.35 5.22911C125.155 4.6354 124.722 4.21765 124.071 4.21765V4.21975L123.935 4.21765C123.25 4.21765 122.85 4.6354 122.655 5.22911L117.94 19.7638L112.968 5.27952C112.775 4.69537 112.281 4.21765 111.635 4.21765C110.91 4.21765 110.289 4.85197 110.289 5.55093C110.289 5.74067 110.346 5.93017 110.408 6.11874L116.452 23.0852C116.675 23.7569 117.127 24.1625 117.755 24.1751H117.977C118.605 24.1616 119.059 23.7254 119.279 23.0843L123.936 9.09336L128.618 23.0848C128.839 23.7256 129.293 24.1616 129.92 24.1751Z" fill="black"/>
<path d="M151.258 18.7233V18.7777C151.258 20.5395 149.664 21.7806 147.29 21.7806C144.958 21.7806 143.226 21.0658 141.496 19.5838L141.491 19.5794C141.32 19.4104 141.018 19.2706 140.682 19.2706C139.984 19.2706 139.415 19.8389 139.415 20.5775C139.415 21.0153 139.619 21.385 139.917 21.5916C142.063 23.3136 144.403 24.2028 147.21 24.2028C151.11 24.2028 153.896 21.9643 153.896 18.56V18.5044C153.896 15.4799 151.918 13.8297 147.557 12.8682C147.557 12.8682 147.556 12.8679 147.556 12.8679C143.594 12.0091 142.621 11.1136 142.621 9.39597V9.34159C142.621 7.73783 144.109 6.50303 146.4 6.50303C148.102 6.50303 149.595 6.98145 151.141 8.1201C151.141 8.12057 151.142 8.1208 151.142 8.12127C151.373 8.28836 151.604 8.35744 151.903 8.35744C152.601 8.35744 153.168 7.78614 153.168 7.07784C153.168 6.57958 152.877 6.21154 152.613 6.01107C152.612 6.01014 152.61 6.00897 152.609 6.00804C150.842 4.72423 148.994 4.08081 146.454 4.08081C142.715 4.08081 140.009 6.40711 140.009 9.53296L140.249 9.77614C140.249 9.77614 140.009 9.5346 140.009 9.5346V9.58524L140.249 9.82959L140.009 9.58664C140.009 12.835 142.04 14.3459 146.538 15.3338C146.538 15.3338 146.539 15.334 146.539 15.334C150.313 16.1394 151.258 17.0358 151.258 18.7233Z" fill="black"/>
<path d="M156.869 21.3828L156.846 21.3826C156.339 21.3826 155.978 21.7499 155.978 22.2451L156.122 22.391L155.978 22.2451V22.5504C155.978 23.0449 156.34 23.4286 156.846 23.4286C157.335 23.4286 157.699 23.0458 157.699 22.5504C157.699 22.6311 157.635 22.6962 157.555 22.6962C157.555 22.6962 157.699 22.6799 157.699 22.5436V22.2451C157.699 21.7567 157.347 21.394 156.869 21.3828ZM156.135 22.6941C156.127 22.6958 156.122 22.6962 156.122 22.6962C156.126 22.6962 156.131 22.6962 156.135 22.6958L156.135 22.6941Z" fill="black"/>
<path d="M159.948 15.8392V22.6879C159.948 23.1056 160.268 23.4289 160.679 23.4289C161.095 23.4289 161.398 23.1066 161.398 22.6879V15.8392C161.398 15.4203 161.078 15.0982 160.665 15.0982C160.27 15.0982 159.948 15.4399 159.948 15.8392ZM159.842 13.0476H159.842C159.842 13.4954 160.204 13.8186 160.665 13.8186C161.144 13.8186 161.503 13.4945 161.503 13.0476V12.8501C161.503 12.3841 161.144 12.0779 160.665 12.0779C160.204 12.0779 159.842 12.3831 159.842 12.8501L159.842 13.0476Z" fill="black"/>
<path fill-rule="evenodd" clip-rule="evenodd" d="M171.746 19.2746L171.747 19.2415C171.747 16.9343 169.966 15.0066 167.545 15.0066C165.108 15.0066 163.326 16.966 163.326 19.2716L163.356 19.3019L163.326 19.2725V19.3019C163.326 21.6081 165.092 23.5356 167.514 23.5356C169.951 23.5356 171.745 21.5787 171.746 19.2746ZM170.267 19.3019V19.2716C170.267 17.6608 169.079 16.335 167.514 16.335C165.907 16.335 164.806 17.6603 164.806 19.2415V19.2716C164.806 20.8821 165.98 22.1909 167.545 22.1909C169.15 22.1909 170.267 20.8828 170.267 19.3019Z" fill="black"/>
<path fill-rule="evenodd" clip-rule="evenodd" d="M21.4693 5.86194L20.3096 6.45005C22.5703 8.29583 23.6756 10.68 23.881 13.565C23.7093 19.1336 21.1106 22.7127 16.6465 24.2476C11.4891 25.8187 8.22097 24.5475 5.05858 21.2898L4.85938 22.5421L6.1451 23.8966C10.6175 28.6087 18.0324 28.7635 22.6932 24.2418C27.3539 19.7199 27.5069 12.2233 23.0343 7.51098L21.4693 5.86194Z" fill="#FEEF7C"/>
<path fill-rule="evenodd" clip-rule="evenodd" d="M4.22238 21.8441L4.99936 21.158C1.77119 16.533 1.63592 9.76175 6.0538 6.03402C9.3286 3.27084 15.8265 1.83861 21.025 6.46624L21.4131 5.77614L20.1463 4.44123C15.6737 -0.270887 8.25893 -0.425616 3.59799 4.0963C-1.06272 8.61797 -1.21553 16.1147 3.25682 20.8269L4.22238 21.8441Z" fill="#5CD3CB"/>
<path d="M1.42871 14.2022C1.42871 20.7493 6.67919 26.0577 13.1549 26.0577C19.6318 26.0577 24.8821 20.7493 24.8821 14.2022C24.8821 7.65385 19.6318 2.34546 13.1549 2.34546C6.67919 2.34546 1.42871 7.65385 1.42871 14.2022ZM9.59067 16.3464C9.71393 15.952 9.57682 15.5222 9.24904 15.2745C8.38111 14.6192 6.66996 13.3272 5.52019 12.4591C5.35422 12.3338 5.28636 12.1151 5.35168 11.9162C5.41701 11.7174 5.60075 11.5835 5.80804 11.5835H10.2645C10.6793 11.5835 11.0472 11.3146 11.1776 10.9167C11.529 9.84386 12.2272 7.71173 12.6903 6.2984C12.7554 6.09979 12.9389 5.96537 13.1459 5.96514C13.353 5.9649 13.5372 6.09863 13.6027 6.297C14.0706 7.7115 14.7772 9.84713 15.132 10.9195C15.2633 11.316 15.6306 11.5835 16.0442 11.5835C17.0984 11.5835 19.1293 11.5835 20.512 11.5835C20.7186 11.5835 20.9023 11.7169 20.9679 11.9153C21.0334 12.1137 20.9665 12.3321 20.8012 12.4579C19.6549 13.331 17.9428 14.6346 17.0767 15.2941C16.7508 15.5422 16.6153 15.9714 16.7383 16.3644C17.0733 17.4337 17.745 19.5782 18.1988 21.0268C18.2621 21.2292 18.1882 21.4499 18.0162 21.5718C17.8443 21.6936 17.6141 21.6887 17.4475 21.5594C16.2958 20.6656 14.6133 19.3598 13.7322 18.6762C13.3858 18.4074 12.9038 18.4081 12.5582 18.6783C11.6857 19.3603 10.026 20.6579 8.88409 21.5505C8.71789 21.6805 8.48729 21.6863 8.31486 21.5645C8.14243 21.4429 8.0681 21.2222 8.13135 21.0196C8.58517 19.5668 9.25596 17.4186 9.59067 16.3464Z" fill="black"/>
</g>
<defs>
<clipPath id="clip0_391_27101">
<rect width="174.277" height="28.1919" fill="white" transform="translate(0 0.290894)"/>
</clipPath>
</defs>
</svg>
