<?xml version="1.0" encoding="utf-8"?>
<!-- Generator: Adobe Illustrator 24.3.0, SVG Export Plug-In . SVG Version: 6.00 Build 0)  -->
<svg version="1.1" id="Layer_1" xmlns="http://www.w3.org/2000/svg" xmlns:xlink="http://www.w3.org/1999/xlink" x="0px" y="0px"
	 viewBox="0 0 1648.4 744" style="enable-background:new 0 0 1648.4 744;" xml:space="preserve">
<style type="text/css">
	.st0{fill:#00ADE9;}
	.st1{fill:#929292;}
	.st2{fill:#0071B9;}
	.st3{fill:#76368A;}
	.st4{fill:#006CB6;}
	.st5{fill:#383489;}
	.st6{fill:#E62984;}
	.st7{fill:#462C84;}
	.st8{fill:#76237E;}
	.st9{fill:none;}
</style>
<g>
	<g>
		<path class="st0" d="M1183.5,526.6c7.4-2.2,14.8-3.4,22.3-2.4c2.5,0.3,5,0.8,7.4,1.6c7.6,2.6,11.6,8.1,12.5,15.9
			c0.8,7.1-2.1,12.7-7.7,17c-1.3,1-3.1,1.4-4.2,3.2c6.4,8,10.8,17.3,17.7,26.5c9.9-21.2,17.5-42.3,26.5-62.6
			c3.8-1.3,7.3-0.9,11.9-0.4l24.9,63c-1.9,1.5-3.5,1.2-4.9,1.2c-2.5,0-5.1,0.4-7.8-0.6c-3.6-4.2-3.8-10.4-7.8-15.6
			c-7.3-0.5-15-0.2-22.4,0c-4.2,4.8-3.8,11.3-8.1,15.9h-26.2c-4.9-6.5-8.6-13.7-12.7-20.5c-1.9-3.1-4-5.5-8.5-3.8
			c-2,7.6,0.4,15.7-1.4,23.7c-3.7,1.3-7.8,1.3-11.5,0L1183.5,526.6z M1196.1,553.2c8.1,1.8,13,0.1,15.8-5.1
			c1.9-3.7,1.1-8.1-1.9-10.9c-3.1-2.8-9.7-3-14.1-0.3C1195.5,542.2,1195.5,547.7,1196.1,553.2L1196.1,553.2z M1263.3,542.7
			c-2.8,7.5-5.9,13.2-7.2,20c4.9,0.5,9.8,0.4,14.6-0.1C1269.2,555.8,1266.2,550.1,1263.3,542.7L1263.3,542.7z"/>
		<path class="st0" d="M1422.5,525.3c5.6-0.5,11.2-0.4,16.8,0.2l25.8,46.4l1.3-0.3v-44.9c4.1-2.4,7.8-1.7,11.4-1.1
			c1.8,5,1.9,57,0.2,62.9c-7.7,3.8-14.9,1.9-19.3-5.6c-6.3-10.7-12.5-21.5-18.7-32.2c-1.7-3-3.6-5.9-5.7-8.7
			c-0.8,15.5-0.4,31.1-0.8,46.5c-4.2,2.1-7.8,1.2-11.3,1C1420.3,582.8,1420.5,530.2,1422.5,525.3L1422.5,525.3z"/>
		<path class="st0" d="M1338.6,542v46.5c-4.2,1.9-7.8,1.5-11.3,0.7c-1.6-5.1-1.7-57-0.2-63.4c5.4-1.4,11-0.6,16.7-0.5
			c5.6,7.5,9.1,15.9,13.7,23.6c4.5,7.5,8.5,15.3,13.3,22.9c1.4-15.3,0.2-30.5,1.2-45.8c3.5-1.2,7.3-1.3,10.9-0.4
			c1.8,4.9,2,56.8,0.3,62.8c-7.7,3.9-14.9,2-19.3-5.5c-6.5-10.9-12.7-21.9-19-32.8c-1.7-2.8-3.3-5.7-5-8.5L1338.6,542z"/>
		<path class="st0" d="M1046.7,589v-62.7c7.5-2.3,15.3-3.1,23.1-2.2c3.8,0.3,7.5,1,11.1,2.1c12.3,4.2,19.6,14,19.9,27
			c0.2,2.9,0.1,5.9-0.1,8.8c-1.5,12.6-8,21.5-20,26C1069.8,592.2,1058.6,591.8,1046.7,589z M1060.4,535.8c-1.8,4.5-2,36.7-0.4,43
			c7.8,3.1,16.7,0.9,22.2-5.4c6.3-7.2,7.8-20.9,3.2-29.2C1081.1,536.5,1073,533.7,1060.4,535.8L1060.4,535.8z"/>
		<path class="st0" d="M924.8,557.7c0.5,11.5-3,21.3-12.7,28c-15.3,10.8-44.9,6.4-48.1-23.6c-0.9-8.1,0.2-15.9,4.2-23.3
			c6.7-12.2,19.1-17.2,34.7-13.9c11.9,2.6,21.1,13.6,21.8,26.3C925,553.5,924.8,555.6,924.8,557.7z M912,556.5
			c0.4-2.9-0.5-6.4-1.5-9.8c-2.2-7.1-7.2-11.2-14.1-11.5c-8.7-0.5-13.6,2-16.8,9.4c-3.8,8.9-4.1,18,0.5,26.7c3,5.6,7.9,8.9,14.2,9
			s11.3-2.5,14.4-8.5C911.1,567.1,912.3,561.8,912,556.5z"/>
		<path class="st0" d="M860.2,588.9c-5,1.4-9.2,0.8-13.5,0.5c-5-6.5-8.5-13.7-12.7-20.5c-1.9-3.1-3.9-5.6-8.5-3.8
			c-1.9,7.5,0.4,15.7-1.3,23.3c-4.9,1.7-5.6,1.7-11,0.4c-1.3-4.7-1.6-54.7-0.3-61.6c8.8-5.2,27.1-4.4,35,1.3c8.2,6,10.7,21.4,0,29.7
			c-1.5,1.2-3.5,1.6-4.8,3.6C849,570.3,854.5,579.1,860.2,588.9z M825.4,553.4c8.4,1.4,13.1-0.4,15.7-5.6c1.8-3.6,1.1-7.3-1.9-10.3
			c-3.2-3.2-8.9-3.6-14-1C824.5,542.1,824.6,547.8,825.4,553.4L825.4,553.4z"/>
		<path class="st1" d="M826.3,660.4c-0.1-8.2,0.8-15.7,4.4-22.6c5.4-10.5,18.4-14.7,28.9-9.3c2.5,1.3,4.8,3.1,6.6,5.3
			c1.3,1.4,2.2,3.1,2.9,4.8c5,13.5,5.5,27.1,0.5,40.7c-3.3,8.9-10.1,13.9-18.9,14.2c-9.7,0.3-17-4.2-20.8-13.3
			C827.2,673.9,826,667.1,826.3,660.4z M859.3,660.2c-0.3-5.4,0.5-11.1-1.7-16.5c-1.5-3.7-4.1-5.7-8.1-5.8c-3.7-0.1-5.8,1.9-7.3,5
			c-1.2,2.3-1.8,4.7-1.9,7.3c-0.1,2.1-0.3,4.2-0.5,6.3c-0.8,6.6,0.2,13,2,19.2c1.5,5.1,3.7,6.6,8,6.6s6.2-1.7,8.1-6.6
			S859.1,665.5,859.3,660.2L859.3,660.2z"/>
		<path class="st1" d="M1257.9,661.6c-0.1-9.4,0.8-16.9,4.3-23.8c5.4-10.5,18.4-14.6,28.9-9.2c2.5,1.3,4.8,3.1,6.6,5.3
			c1.2,1.4,2.2,3.1,2.9,4.8c5,13.5,5.5,27.1,0.5,40.7c-3.3,8.9-10.1,13.8-18.9,14.2c-9.5,0.3-16.6-4.1-20.6-12.8
			C1259.2,675.4,1257.9,668.2,1257.9,661.6z M1290.9,660c-0.2-6,0.5-11.8-2-17.2c-1.2-3-4.1-5-7.4-5c-3.6-0.3-6,1.4-7.5,4.5
			c-1.2,2.2-1.9,4.7-2.1,7.2c0,2.1-0.2,4.2-0.5,6.3c-1,6.6,0.1,13,1.8,19.2c1.5,5.5,3.8,7.1,8.3,7c4.2-0.1,6-1.8,7.9-6.8
			S1290.6,664.8,1290.9,660L1290.9,660z"/>
		<path class="st0" d="M1543.3,529.2l-3.2,8.2c-2.3,1.2-4.1,0.1-5.8-0.5c-4.9-1.9-9.9-2-15-1.6c-7.4,0.7-12.4,4.5-15.2,11.5
			c-3,7.8-2.2,15.3,1.2,22.7c2.2,4.9,6.7,8.5,11.9,9.6c5.1,1.2,10.4,1,15.4-0.5c2-7.2,0-14.7,1.4-21.9c3.7-2,7.3-1.3,11.6-0.6
			c1.1,9.6,0.5,19.2,0.3,28.4c-14.5,10.8-42,8.2-52-8.7c-7.9-13.4-7-37.9,10.5-47.4c6.7-3.6,14.4-5.1,22-4.2
			C1532,524.6,1537.9,525,1543.3,529.2z"/>
		<path class="st0" d="M702.9,589.4c-5.2,0.4-9.1,0.7-13.1-0.3c-3.5-4.6-3.9-10.7-7.6-15.5c-7.5-0.7-15-0.2-22.5-0.2
			c-4.4,4.6-3.9,11.1-8,15.7c-3.5,1.2-7.1,0.8-11.9,0.1c3.4-11.4,8.7-21.6,12.8-32.2s8.6-21,12.9-31.2c3.9-0.9,8.1-0.9,12,0
			L702.9,589.4z M678.5,562.3c-1.9-6.6-4.5-12.4-7.6-19.6c-2.7,7.5-5.9,13.2-7.1,20C668.8,562.9,673.4,563.2,678.5,562.3
			L678.5,562.3z"/>
		<path class="st0" d="M999.2,525.5h36c1.3,2.9,1.3,6.2,0.2,9.1c-7.8,2-15.9-0.4-23.9,1.5c-1.1,4.8-1.1,9.8-0.1,14.6
			c6.5,1.9,13.1-0.2,19.6,1.3c2,2.7,1.4,5.6,0.7,8.8c-6.4,2.3-13.3-0.2-20.2,1.7c-1.1,5.4-1.1,10.9,0,16.3
			c8.3,1.3,16.5-0.1,24.5,0.9c1.9,3,1.5,5.9,0.8,8.7c-4.5,1.7-30.7,2-37.5,0.5C997.9,584.2,997.6,532.6,999.2,525.5z"/>
		<path class="st0" d="M722.9,564.8c-1.5,8.3,0.2,16.1-1.2,23.9c-3.7,1.6-7.3,1.3-10.9,0.4c-1.5-5-1.7-56-0.3-62.4
			c11.7-5.6,28.8-3.5,36.6,4.6c8.1,8.5,6,23.6-4.1,29.7C736.9,564.5,730.4,565.5,722.9,564.8L722.9,564.8z M723.5,553.5
			c7.4,1.2,12.2-0.4,14.5-4.7c1.6-3.1,0.9-8.9-1.3-11.2c-3.1-3.2-8.9-3.7-14-1c-0.8,4-0.3,8.2-0.4,12.3
			C722.1,550.6,722.5,552.2,723.5,553.5z"/>
		<path class="st0" d="M773.4,589.1c-3.5,0.9-7.1,0.9-10.5,0.1c-1.8-4.8-2-56.6-0.2-63.3c9.2-2,18.7-3.6,28.2-0.1
			s13.3,10.4,12.5,21.5c-0.6,8.3-7.1,15.1-16.4,16.8c-3.9,0.7-7.8,1.5-12.1,0.6C773,572.9,775.3,581,773.4,589.1z M774.6,553.2
			c7.7,1.6,12.7,0.1,15.1-4.2c1.7-3,1.1-8.9-1-11.3c-2.9-3.2-8.7-3.8-14.1-1.4C773.9,542,773.9,547.6,774.6,553.2L774.6,553.2z"/>
		<path class="st0" d="M962.5,570.6l16.7-44.7c4.2-1.4,8.8-1.3,12.9,0.3l-25.9,64.6c-7.5-0.7-12.2-3.8-14.7-10.1
			c-5.7-14.1-11.4-28.1-17-42.2c-1.6-4-4.1-7.8-4.4-12.5c4.1-1.9,8-0.9,12.2-0.8c7.2,14.9,12.3,30.5,18.9,45.4L962.5,570.6z"/>
		<path class="st1" d="M781.6,640.8c-2.1-2.5-3.6-5.5-4.3-8.8c10.6-5.1,21.5-8.4,32.7-3.5c9.4,4,15.3,15,5.7,26.7
			c-4.1,4.8-8.7,9.2-13.7,13.1c-4.2,3.4-8.6,6.7-11,13c10,1.2,19.6-0.2,29,0.9c1.7,3.2,1.4,6,0.3,9.8c-14,0.6-28.2,0.2-42.4,0.2
			c-3.3-11,1.4-18.4,8.2-24.9c4.2-4.1,9-7.6,13.4-11.5c3.3-3,6.5-6.1,6.5-11.1c0-4.6-1.7-6.6-6.3-6.9c-3.6-0.4-7.2,0-10.6,1.1
			C786.8,639.7,784.5,641,781.6,640.8z"/>
		<path class="st1" d="M1222.1,681.8h29.1c2.3,3.5,1.4,6.3,1.2,9c-5,1.7-36.7,2-43.2,0.4c-3.1-10,1.6-17.4,8.4-23.9
			c4.2-4.1,9-7.6,13.4-11.5c3.3-3,6.5-6.1,6.6-11c0.1-4.6-1.7-6.7-6.2-7c-3.6-0.4-7.2,0-10.6,1.1c-2.3,0.9-4.8,1.5-7.2,2.2
			c-2.3-2.6-3.9-5.7-4.6-9.1c10.8-5.2,21.9-8.6,33.3-3.3c9.6,4.5,14.3,15.2,5.2,26.4c-4.1,4.8-8.7,9.2-13.7,13.2
			C1229.5,671.7,1225.2,675.2,1222.1,681.8L1222.1,681.8z"/>
		<path class="st1" d="M1314.4,640.8c-2.2-2.2-3.1-5.2-4.4-8.7c10.9-5.2,21.7-8.5,33-3.6c9.4,4.2,15.2,15.1,5.6,26.7
			c-4.1,4.8-8.7,9.2-13.7,13.1c-4.1,3.4-8.7,6.7-10.9,13c10,1.2,19.6-0.2,29,0.9c1.4,2.8,1.5,6,0.5,8.8c-4.7,1.5-34.3,1.8-42.6,0.5
			c-1.9-4.2-1.8-9,0.1-13.2c1.8-4.3,4.5-8.2,8-11.2c4.5-3.8,9-7.7,13.5-11.5c2.3-1.9,4.2-4.2,5.5-6.9c3-6.2,0.1-10.9-6.7-11.2
			c-3.4-0.2-6.8,0.3-10,1.4C1319.1,639.9,1317,641.1,1314.4,640.8z"/>
		<g>
			<g>
				<path class="st1" d="M727.5,620.3l13,0l0.2,72.2l-13,0L727.5,620.3z"/>
			</g>
		</g>
		<path class="st1" d="M1147.9,691.5c-4.5,0.9-7.6,1.1-11.2-0.1c-1.4-13.7,0.5-27.6-1.2-41.8c4.3-4,10.2-4.2,15.6-5.3
			c5-1,10.1-0.8,15,0.5c7.3,1.9,11.3,6.9,11.7,14c0.6,10.3,0.1,20.6,0.1,30.9c0,0.6-0.5,1.1-0.8,1.6c-5.2,1.2-5.2,1.2-10.5,0.1
			c-1.7-2-1.1-4.4-1.1-6.6c-0.1-7,0-13.9,0-20.8c-0.1-7.4-4-10.7-11.3-9.4c-1.8,0.3-3.6,1-6.3,1.8L1147.9,691.5z"/>
		<path class="st1" d="M712.3,688.8c-8.4,3.8-17.8,5.9-27.6,4.3c-8.5-1.4-13.5-6.4-13.9-14.8c-0.5-10.1-0.1-20.2,0-30.3
			c0.2-0.7,0.4-1.4,0.8-2c3.3-1.3,6.8-0.9,10.1-0.3c2,2.1,1.4,4.5,1.4,6.8c0.1,7,0,13.9,0,20.8c0.1,8,4,11,11.8,9.2
			c1.6-0.4,3.4-0.5,5.5-2.4c1-10.7-0.2-22.2,0.6-33.5c5.1-1.9,5.1-1.9,11.2-0.3L712.3,688.8z"/>
		<path class="st1" d="M1084.3,645.8c3.3-0.9,6.8-0.9,10.1-0.1c2,2.1,1.4,4.5,1.4,6.8c0.1,7,0,13.9,0,20.8c0.1,8,4,11,11.8,9.2
			c1.6-0.4,3.4-0.5,5.5-2.4c1.1-10.7-0.2-22.2,0.6-33.5c5-1.9,5-1.9,11.2-0.3v42.5c-8.4,3.8-17.8,5.8-27.6,4.3
			c-8.5-1.4-13.5-6.4-13.9-14.8c-0.5-10.1-0.1-20.2,0-30.3C1083.6,647.2,1083.9,646.4,1084.3,645.8z"/>
		<path class="st0" d="M1145,589.4v-52.9c-6.3-2.4-12.4,0.1-18.1-1.9c-1.3-3-1-5.7-0.2-9h49.1c1.3,2.8,1.4,6.1,0.2,9
			c-5.7,1.9-11.7-0.1-18.2,1.6c-0.5,17.6,0.1,35.1-0.3,52.5C1153.2,590.3,1149.7,589.6,1145,589.4z"/>
		<path class="st1" d="M649.6,628.2c3.3-1.3,6.7-0.6,9.9-0.5c2.3,2.5,1.6,5.2,1.6,7.6c0.1,16.6-0.1,33.3,0.2,49.9
			c0.2,10.9-4.2,19-13.3,25.1c-3.1-1.4-5-4.2-7.2-6.4c-0.3-2.1,1.4-2.7,2.3-3.8c3.8-4.6,5.7-10.4,5.5-16.3
			c-0.3-16.2-0.2-32.4-0.2-48.7C648.5,632.9,648,630.6,649.6,628.2L649.6,628.2z"/>
		<path class="st1" d="M1058.5,710.4c-3.1-1.4-4.8-4.4-7.2-6.4c0.4-2.5,2.2-3.5,3.3-4.9c3.1-4,4.7-9,4.7-14.1
			c-0.2-16.4-0.1-32.9-0.1-49.3c0-2.3-0.3-4.6,0.7-7.1c3.5-1.9,7.2-0.9,10.4-0.8c2.2,2.5,1.6,4.9,1.6,7.1c0,16.8,0,33.7,0.1,50.6
			C1072,696.4,1068.6,703.6,1058.5,710.4z"/>
		<path class="st0" d="M1314.1,588.8c-3.5,1.1-7.2,1.3-10.8,0.3c-1.6-4.6-2-55.7-0.5-63.3c3.5-1.4,7.1-1.2,11.3-0.1V588.8z"/>
		<path class="st0" d="M1397.4,526c4-1.5,7.5-0.9,10.8-0.6c1.7,5,2,56.4,0.5,63.6c-3.5,1.3-7.1,1.1-11.2,0V526z"/>
		<path class="st1" d="M1001.1,662.2c8.5-0.7,17.1-0.7,25.6,0c1.4,3.5,1.2,6.6,0.2,10.5c-8.3,0.8-16.7,0.3-24.9,0.2
			C1000.2,669.2,1001,666.1,1001.1,662.2L1001.1,662.2z"/>
		<path class="st1" d="M928,661c-0.1-9.4,0.8-16.9,4.3-23.8c5.4-10.5,18.4-14.6,28.9-9.2c2.5,1.3,4.8,3.1,6.6,5.3
			c1.2,1.4,2.2,3.1,2.9,4.8c5,13.5,5.5,27.1,0.5,40.7c-3.3,8.9-10.1,13.8-18.9,14.2c-9.5,0.3-16.6-4.1-20.6-12.8
			C929.3,674.8,928,667.6,928,661z M961,659.4c-0.2-6,0.5-11.8-2-17.2c-1.2-3-4.1-5-7.4-5c-3.6-0.3-6,1.4-7.5,4.5
			c-1.2,2.2-1.9,4.7-2.1,7.2c0,2.1-0.2,4.2-0.5,6.3c-1,6.6,0.1,13,1.8,19.2c1.5,5.5,3.8,7.1,8.3,7c4.2-0.1,6-1.8,7.9-6.8
			S960.7,664.2,961,659.4L961,659.4z"/>
		<path class="st1" d="M892.2,681.3h29.1c2.3,3.5,1.4,6.3,1.2,9c-5,1.7-36.7,2-43.2,0.4c-3.1-10,1.6-17.4,8.4-23.9
			c4.2-4.1,9-7.6,13.4-11.5c3.3-3,6.5-6.1,6.6-11c0.1-4.6-1.7-6.7-6.2-7c-3.6-0.4-7.2,0-10.6,1.1c-2.3,0.9-4.8,1.5-7.2,2.2
			c-2.3-2.6-3.9-5.7-4.6-9.1c10.8-5.2,21.9-8.6,33.3-3.3c9.6,4.5,14.3,15.2,5.2,26.4c-4.1,4.8-8.7,9.2-13.7,13.2
			C899.6,671.2,895.3,674.6,892.2,681.3L892.2,681.3z"/>
	</g>
	<g>
		<path class="st1" d="M996.9,225c-10.7-3.1-21.7-4.8-32.8-5c-15.1-0.1-30.2,2.1-44.7,6.5c0,0,0.5,3.5,0.5,5V422h-59.6V232.9
			c0-12.4-4.5-37.2-4.5-37.2c35.7-14.9,73.9-27.3,113.1-27.3c15.4,0,30.7,1.8,45.7,5.5L996.9,225z"/>
		<path class="st1" d="M1105.2,427.5c-28.3,0-57.1-6.9-81.9-16.4l17.4-46.6c17.4,7.4,40.7,14.9,59.5,14.9c18.4,0,37.7-5.5,37.7-27.3
			c0-44.2-108.2-30.8-108.2-112.1c0-51.1,52.6-71.5,91.8-71.5c26.3,0,52.6,6,71.4,14.9l-16.9,46.2c-15.9-6-37.7-11.4-54.6-11.4
			c-14.9,0-30.8,4.5-30.8,22.3c0,41.7,113.1,22.8,113.1,112.7C1203.9,408.1,1150.3,427.5,1105.2,427.5"/>
		<path class="st1" d="M1535.1,422V266.2c0-27.8-13.9-45.6-43.2-45.6c-16.9,0-29.8,5-44.7,12.4c2,9.9,2,19.4,2,29.3V422h-59.6V265.7
			c0-27.8-15.4-45.2-42.7-45.2c-15.4,0-30.3,4-44.2,10.4c0,0,1,7.4,1,10.9V422h-59.5V225.5c0-10.9-3-32.3-3-32.3
			c31.3-11.9,78.4-24.8,111.6-24.8c34.2,0,57.1,5.5,73.9,22.8c22.3-12.4,45.2-22.8,82.9-22.8c53.6,0,84.8,31.8,84.8,85.9V422H1535.1
			z"/>
		<rect x="754.2" y="173.9" class="st1" width="59.5" height="57.7"/>
		<rect x="754.2" y="256.1" class="st1" width="59.5" height="165.9"/>
		<rect x="649" y="256.1" class="st1" width="59.5" height="165.9"/>
		<rect x="649" y="173.9" class="st1" width="59.5" height="57.7"/>
		<path class="st2" d="M438.2,519l-4.9-16.4c13.4-16.7,25.6-34.2,36.6-52.6l-57-15.5l-78.7-263l73.4-36.2l129.1,78.4
			C536.7,332.2,503.7,434.6,438.2,519"/>
		<path class="st3" d="M286.2,648c-22.4-11.7-74.1-42.3-124.1-97.5c-80.7-89.2-121.4-201-121.4-332.6l5.2-3.1
			c0.4,31.7,3.6,63.2,9.3,94.4l113.3-55.9l65.3,132.5L70,341l-2,7.4c19.6,65.1,53.5,124.9,99.2,175.2c50,55.2,101.7,85.9,124.1,97.5
			c15.6-8.3,30.7-17.5,45.1-27.7l8.4,17C326.3,624.5,306.7,637.1,286.2,648"/>
		<path class="st0" d="M336.4,593.5L233.9,385.7l179,48.8l20.4,68.2c-5.7,7.1-11.7,14.1-17.9,21
			C391.7,549.7,365.2,573.2,336.4,593.5"/>
		<path class="st4" d="M433.3,502.6l-20.4-68.2l57,15.5C458.9,468.4,446.7,486,433.3,502.6"/>
		<path class="st5" d="M291.3,621.2c-22.4-11.7-74.1-42.3-124.1-97.5C121.5,473.4,87.6,413.5,68,348.4l2-7.4l163.9,44.7l102.5,207.8
			C321.9,603.7,306.9,612.9,291.3,621.2"/>
		<path class="st6" d="M168.5,253.2l-42.9-86.9l-79.7,48.4c0-3.6-0.1-7.1-0.1-10.7L291.3,54.9l125.1,76l-8.8,4.3l-103-62.6
			l29.6,98.8L168.5,253.2"/>
		<polygon class="st7" points="334.2,171.5 304.6,72.7 407.6,135.2 		"/>
		<path class="st8" d="M55.2,309.1c-5.8-31.1-8.9-62.7-9.3-94.4l79.7-48.4l42.9,86.9L55.2,309.1"/>
		<rect y="0" class="st9" width="1648.4" height="744"/>
	</g>
</g>
<g>
	<g>
		<path class="st1" d="M1368.2,678.1c2.7,1.5,9.5,4.4,16.6,4.4c10.3,0,14.1-5.6,14-10.2c-0.1-7.6-7.9-10.7-15.5-10.7l-6.9,0l0-9.3
			l6.8,0c6,0,13.4-2.6,13.3-8.8c0-4.1-3.3-8-11.2-8c-6,0-12.1,2.7-15,4.5l-3.2-9.2c4.1-2.8,12.1-5.5,20.7-5.5
			c14.4,0,21.7,7.5,21.7,16c0,6.9-4.1,12.4-12.7,15.3l0,0.2c8.5,1.3,15.3,7.4,15.3,16c0,11.2-9.8,19.8-26.9,19.9
			c-9,0-16.4-2.5-20.2-5L1368.2,678.1z"/>
	</g>
</g>
</svg>
