<?xml version="1.0" encoding="UTF-8"?>
<svg version="1.1" viewBox="0 0 1000 670" xmlns="http://www.w3.org/2000/svg">
<title>rospa</title>
<desc>Created with Sketch.</desc>
<g fill="none" fill-rule="evenodd">
<g fill-rule="nonzero">
<path d="m0 643v-622c2.91-9.54 8.6-16.5 18.25-19.84 0.34-0.16 0.5-0.76 0.75-1.16h953c8.4 3.34 15.42 8.25 19.2 16.85 0.77519 3.9134 1.1836 7.8907 1.22 11.88v601.85c0 2.5 0 5-0.12 7.5-0.19149 5.3805-2.2532 10.526-5.83 14.55-6.09 7.08-14 9.55-23.15 9.55-306.59-0.066667-613.19-0.09-919.78-0.07-9.6 0-19.27 0.83-28.71-1.84-6.76-4.27-11.46-10.19-14.83-17.27zm235.37-451.54l0.11 0.17 0.11-0.17 5.49-0.13c0.25254 0.18512 0.52821 0.3364 0.82 0.45 1.65 8 3.43 16 4.88 24 0.7 3.9 1.95 2.91 3.95 1 4.81-4.61 9.77-9.06 14.54-13.72 1.6734-1.7993 4.1135-2.6784 6.55-2.36 27.6 1.78 49.49-8.58 64.61-31.9 15.38-23.8 13.57-58.2-3.53-78.32l-0.63-3.48c-0.41137-7.6646-2.4861-15.148-6.08-21.93-1.148-2.0192-1.3703-4.4352-0.61-6.63 1.86-6 3.39-12 5.33-19-6.36 1.76-11.94 3.13-17.41 4.87-2.4873 0.88819-5.2527 0.49153-7.39-1.06-11.185-7.1789-24.65-9.9148-37.75-7.67-21.81 3.42-41.3 20.7-45.36 46.84-23 8.33-35.87 24.79-38.83 49-0.17096 1.9587-1.1312 3.7637-2.66 5-4.29 3.68-8.46 7.5-12.74 11.19-2 1.7-2.24 2.62 0.72 3.42 5.13 1.39 10.13 3.24 15.26 4.59 1.9361 0.45593 3.5205 1.8418 4.23 3.7 9.4 19.487 24.863 30.2 46.39 32.14zm-186.06-67.39c0 23.49 0.1 47-0.09 70.47 0 4 1.12 5 5 5 12.82-0.23 25.66-0.25 38.48 0 3.89 0.08 4.62-1.16 4.58-4.79-0.2-15.32-0.12-30.65 0-46 0-6.79-1.5-6.16 6.35-6.42 2.83-0.1 4.05 0.71 4.69 3.63 1.7 7.8 3.59 15.57 5.82 23.23 11.33 38.91 57.32 40.17 79.5 24 2.38-1.73 1-2.45-0.26-3.59-7.0288-6.1902-12.494-13.955-15.95-22.66-1.18-3.06-2.53-3.86-5.71-3.68-9.65 0.56-14.46-2.77-17.81-11.83-0.80604-2.3566-1.4903-4.7531-2.05-7.18-2.34-9.14-2.37-9.23 5.75-13.88 14.7-8.43 21.61-21.21 21.21-38-0.38-15.92-8.78-26.8-22.28-34.2-12.13-6.64-25.35-9-39-9.08-21.19-0.14-42.35 0.11-63.54-0.09-4.26 0-4.83 1.49-4.81 5.15 0.17 23.28 0.1 46.6 0.12 69.92zm654.47 75.56c7.33 0 14.66-0.17 22 0.07 3.63 0.12 4-1 3.07-4.22-13.847-47.4-27.61-94.827-41.29-142.28-0.91-3.15-2.19-4.14-5.44-4.11-17.66 0.16-35.31 0.08-53 0.08-9.26 0-9.29 0-11.73 8.8-12.667 45.667-25.333 91.333-38 137-1 3.66-0.67 4.84 3.52 4.76 13.65-0.26 27.32-0.18 41 0 2.86 0 4-0.74 4.57-3.67 1.33-7.36 3.16-14.63 4.61-22 0.47-2.39 1.42-3.27 4-3.24 10.827 0.13333 21.653 0.13333 32.48 0 2.6 0 3.33 1 3.76 3.37 1.32 7.36 3.07 14.65 4.36 22 0.47 2.67 1.5 3.55 4.18 3.49 7.24-0.17 14.58-0.06 21.9-0.05h0.01zm-365.1-13c0.53909 0.48851 1.1215 0.92698 1.74 1.31 25.35 12.1 52 16.6 79.69 11.75 22.62-4 36.67-18.11 39.81-38.49 3.71-24-3.73-39.05-25.44-51.21-9.36-5.24-19.47-8.52-29.84-11.09-3.4-0.84-6.78-1.79-9.7-3.82s-5.38-4.59-4.56-8.68c0.88-4.38 4.28-5.7 8.07-6.21 3.4795-0.39839 6.9979-0.30075 10.45 0.29 10.56 1.6 20.83 4.45 31.1 7.26 2.78 0.76 4.13 0.32 5.1-2.62 2.82-8.52 5.77-17 9.11-25.34 1.37-3.43 0.34-4.59-2.64-5.85-21.549-9.3173-45.382-12.018-68.47-7.76-21.2 3.86-34.25 16.82-37 35.9-3.48 24 4.92 41.25 25.12 51.52 6.86 3.49 14.27 5.44 21.64 7.52 6.41 1.81 12.81 3.66 18.54 7.2 3.35 2.07 5.56 4.78 4.7 9.06-0.82 4.07-4 5.66-7.49 6.38-4.2483 0.86918-8.5991 1.1251-12.92 0.76-12.39-1-24.17-4.5-35.77-8.7-1.69-0.61-3.17-1.92-4 1.23-3.1311 11.174-9.0695 21.36-17.25 29.59h0.01zm132.8-62.53v35.47c0 11.82 0.11 23.65-0.09 35.47-0.06 3.45 0.88 4.54 4.44 4.48 12.82-0.22 25.64-0.26 38.46 0 3.87 0.07 4.66-1.18 4.6-4.8-0.22-12.32-0.08-24.64-0.08-37 0-9.63 0-9.59 9.44-9.67 17.11-0.14 33.43-3.34 47.92-13 28.29-18.92 26.77-59-2.84-75.77-9.88-5.59-20.67-8.28-31.86-9.28-21.77-1.95-43.6-0.46-65.4-1-3.78-0.1-4.71 0.94-4.68 4.69 0.18 23.46 0.09 46.93 0.09 70.41zm-391.92 263.45h-7.85c-9.35 0-9.25 0-8.82 9.41 0.11 2.42 0.85 3.37 3.19 3 4.28-0.68 4.23 1.37 2.88 4.42-0.67 1.52-1.1 3.14-1.62 4.72-5.87 18-11.62 36.07-17.69 54-1.22 3.6-0.42 4.28 3 4 4.3-0.31 9.64 1.21 12.64-0.84 2.71-1.85 2.86-7.44 4.14-11.38 0.072736-0.15038 0.12971-0.30789 0.17-0.47 0.29-3 2-3.59 4.8-3.51 6.9933 0.2 13.993 0.2 21 0 2.79-0.08 4 0.76 5 3.51 1.38 4.19 1.32 10.08 4.88 12s8.77 0.36 13.24 0.66c3.63 0.25 4.11-0.71 2.86-4.1-7.47-20.28-14.7-40.65-22-61-1.69-4.68-2.28-10.75-5.59-13.57-3.7-2.95-9.99-0.4-14.23-0.85zm493.16 68.14c-7.37 1.67-7.86 1.27-7.86-5.54v-53c0-5.13 1.73-12-0.86-14.95-3-3.44-10-0.94-15.28-1.06-8.13-0.2-8-0.05-8 8.25 0 2.69 0.56 4 3.53 3.68 1.19-0.13 3.28-0.71 3.47 0.88 0.41 3.45 0.87 7.17 0 10.4-0.63 2.23-3.84 0.54-5.83 0.54-12.29 0-22.91 3.67-29.1 14.91-6.67 12.11-7.21 25-0.7 37.31 6.91 13.22 26.91 14.65 37.38 4.89 4.82 5.86 10.48 7 18.31 4.71 6.22-1.8 3.79-6.71 4.93-11.02h0.01zm-354.48-41.36c-0.57-8.05-4.9-9.13-10.47-8.24-0.49924 0.038959-1.0008 0.038959-1.5 0-8.79 0-8.68 0-8.34 8.88 0.09 2.37 0.74 3.47 3.12 3 3.79-0.67 4.24 1.28 4.21 4.5-0.13 18.83-0.07 37.65-0.07 56.48 0 13.66 0 13.66 13.64 13.06 0.16633-0.015018 0.33367-0.015018 0.5 0 2.19 0.31 2.88-0.65 2.82-2.82-0.13-4.49 0-9 0-13.49 0-7.78 0-7.77 7.5-7.6h4.5c15.85-0.55 25.41-9 27.62-24.72 0.93393-6.4526 0.67292-13.022-0.77-19.38-3.2-14-14.3-21.24-28.36-18.66-5.4 1.03-9.87 3.66-14.4 8.99zm-71.08-0.1c-0.58-7.93-5-9-10.54-8.16-0.49935 0.036174-1.0007 0.036174-1.5 0-8.38 0-9.78 1.78-8.18 10 0.29 1.5 0.92 2.15 2.26 1.86 5.18-1.09 5 2.08 5 5.72-0.09 21.31 0 42.61-0.11 63.92 0 3.38 0.73 4.54 4.35 4.52 12.57-0.07 12.57 0.08 12.57-12.65v-1c0.11-3.47-0.92-7.72 0.74-10.12 1.05-1.52 6.11-0.23 9.37-0.24 17.69-0.06 28-9.13 29.72-26.29 0.60939-5.6346 0.36327-11.329-0.73-16.89-2.86-14-13-21.45-27.09-19.8-6.02 0.76-11.02 3.47-15.86 9.14v-0.01zm227.29 22.39c0-14.32-5.44-24.4-15.54-29-20.44-9.21-40.28 1.49-43.51 23.48-3.78 25.71 14.44 42.36 39.3 35.88 12.74-3.26 19.78-14.09 19.75-30.35v-0.01zm121.55 14.25c-3.37 1.42-6.21 2.72-9.12 3.82-3.1496 1.0992-6.4463 1.7194-9.78 1.84-8.41 0.54-14.67-3.44-16.78-10.4-0.89-2.94-0.41-4.14 3-4.06 9.15 0.21 18.3 0.07 27.46 0.08 3.9 0 6.66-1.16 7.54-5.55 2.44-12.2-4.89-25.55-16.55-29.74-18.66-6.71-35.69 3.28-39 22.88-2.76 16.28 3.1 30.5 15.35 35.64 11.55 4.85 23.09 3.53 34.31-1.66 1.77-0.82 2.9-1.93 2.9-4.15-0.01-2.76 0.38-5.57 0.67-8.7zm26.5 148.38c-0.71 8.1-0.7 8.08 6.44 10.19 5.9385 1.7177 12.161 2.2278 18.3 1.5 12.44-1.37 18.76-7.67 20.24-20.1 0.28412-2.6569 0.41434-5.328 0.39-8v-41.49c0-17.46-0.27-17.74-18-18.71-0.33 0-0.66-0.07-1-0.08-14.78-0.43-25.88 6.73-30.27 19.73-2.8928 8.404-3.0329 17.511-0.4 26 2.76 9 8.76 14.65 18.4 16.08 7.75 1.15 14.79-0.16 21.39-6 0 3.57 0.1 6.34 0 9.09-0.5 11.67-6.09 16.77-17.89 16.39-6.1-0.11-11.75-1.94-17.6-4.6zm-143.89-192.71c6 17.13 11.88 33.89 17.81 50.62 3.54 10 3.59 9.79 14.29 10.06 3.73 0.09 5.12-1.33 6.31-4.56 6.48-17.61 13.21-35.14 19.77-52.72 0.42-1.11 1.58-2.24 0.54-3.84-3.4555 0.16196-6.9174 0.13526-10.37-0.08-3.57-0.39-4.87 1.17-5.91 4.31-4.05 12.32-8.37 24.54-12.7 37.1-2.91-9.35-5.68-18.39-8.53-27.41-4.64-14.68-4.66-14.67-20.12-13.8-0.36991 0.082834-0.73402 0.18973-1.09 0.32zm-329.37 138.24v36c0 2.06-0.26 4 2.91 3.93 13.833-0.10667 27.667-0.10667 41.5 0 4.19 0 3-3.14 3.4-5.32 0.67-3.4-2-2.31-3.49-2.32-10-0.08-20-0.14-30 0-2.78 0-3.74-0.68-3.66-3.57 0.19333-7.3333 0.19333-14.667 0-22-0.08-2.89 0.86-3.68 3.67-3.61 7 0.18 14-0.08 21 0.13 3 0.09 3.58-1 3.58-3.72s-0.65-3.77-3.58-3.69c-7 0.21-14-0.06-21 0.13-2.81 0.08-3.75-0.73-3.67-3.6 0.19-6.66 0.25-13.34 0-20-0.14-3.42 0.7-4.59 4.33-4.48 8.82 0.27 17.67 0 26.49 0.14 3 0.06 4.15-0.63 4.13-3.82 0-3-0.89-4-4-4-12.5 0.16-25 0.18-37.5 0-3.39-0.05-4.22 1.1-4.18 4.29 0.17 11.84 0.07 23.68 0.07 35.51zm200.17-11.63c3-0.9 6-1.87 9-2.66 3.081-0.74433 6.2617-0.98745 9.42-0.72 8.44 0.54 12.31 4.5 13 12.77 0.25 3.15-0.5 4.13-3.78 3.44-5.8774-1.2835-11.963-1.2835-17.84 0-9.8 2.2-15.44 9.45-15.4 19.82 0 10.74 5.33 17.32 15.58 19.43 8.37 1.72 15.79-0.09 22-6.15 2.85 5.68 8.41 7.57 13.82 5.3 2.68-1.13 1.74-3.24 2.11-5 0.16-0.76 0.21-2-1-1.74-7.77 1.89-5.63-4.06-5.75-7.58-0.33-10 0.11-20-0.41-29.94s-6.22-15.74-16.26-17c-6.28-0.89335-12.675-0.52276-18.81 1.09-6.51 1.71-6.51 1.68-5.68 8.93v0.01zm111.2-2.34c0.34-7.07-3.44-7.56-8-7-1.3287 0.15685-2.6713 0.15685-4 0-2.85-0.34-2.82 1.45-2.73 3.41s-0.51 4.34 2.82 3.79c3.78-0.62 4.25 1.34 4.22 4.57-0.15 14.83 0.07 29.66-0.16 44.49-0.06 3.81 1 4.86 4.76 4.7 3.42-0.14 5.42-0.24 5.29-4.72-0.32-11.49-0.25-23 0.11-34.48 0.32-10.25 6.21-15.65 15.78-15.24 9.27 0.4 13 4.84 13 15.7 0 11.83 0.11 23.66-0.06 35.49-0.05 3.46 2 3.46 4.15 3.08s5.9 1.93 5.83-2.92c-0.21-14.16 0.6-28.33-0.52-42.47-0.62-7.84-5-13.09-12.37-15.23-10.02-2.86-19.5-2.12-28.12 6.83zm100.25 0.68c1.65-8.38-2.77-7.85-7-7.68-1.3309 0.11476-2.6691 0.11476-4 0-2.93-0.39-3.23 1.25-3.12 3.55 0.09 2-0.28 4.26 2.93 3.69 3.91-0.7 4.19 1.49 4.16 4.6-0.12 14.83 0.08 29.65-0.16 44.48-0.06 3.83 1.05 4.85 4.75 4.68 3.41-0.15 5.4-0.26 5.29-4.75-0.3-12-0.31-24 0.22-36 0.4-9.12 6.6-14.11 15.65-13.74 8.72 0.36 12.54 4.51 13 14.21 0.1 2.16 0 4.33 0 6.5 0 10.16 0.12 20.33-0.07 30.48-0.07 3.45 1.92 3.49 4.12 3.08 2-0.38 5.59 1.95 5.58-2.57 0-14.32 0.08-28.65-0.35-43-0.22-7.38-4.59-12.6-11.53-14.8-10.17-3.22-19.97-2.55-29.46 7.27h-0.01zm312.37 47.23c3.42 6.09 8.37 7.87 13.88 5.73 3-1.15 1.89-3.5 2.3-5.42 0.21-1-0.28-1.61-1.41-1.32-5.89 1.51-5.3-2.65-5.31-6.15 0-14.32-0.14-28.65 0.05-43 0-3.55-0.62-4.89-4.55-4.91-4.16 0-5.78 0.68-5.59 5.35 0.42 10 0.18 20 0.1 30 0.002949 2.6602-0.24144 5.315-0.73 7.93-1.52 7.7-7.65 11.72-16.46 11-7.61-0.62-11.46-4.58-11.61-12.76-0.24-12.49-0.33-25-0.06-37.46 0.09-4.25-2.09-4-4.91-3.9-2.5 0.13-5.24-0.91-5.13 3.64 0.29 12.48 0 25 0.16 37.47 0.21 13.57 7.65 20.78 21.26 21 6.7554 0.2498 13.301-2.3693 18.02-7.21l-0.01 0.01zm167.11-6c-3.5564 2.1331-7.403 3.7398-11.42 4.77-13.94 3.36-24-2.76-26.1-15.67-0.54-3.27 0-4.37 3.54-4.3 10 0.22 20 0 30 0.06 3.3 0 5.87-0.83 6.56-4.62 2.28-12.45-6.11-26.65-17.57-29.65-13.7-3.58-26.55 3.28-30.92 16.73-2.1061 6.8696-2.6493 14.123-1.59 21.23 2.08 16.36 13.56 25.85 30 24.45 3.3121-0.30598 6.5892-0.9152 9.79-1.82 7.25-1.97 7.54-2.49 7.72-11.16l-0.01-0.02zm-710.78 0.05c-3.746 2.1805-7.7879 3.8074-12 4.83-13.76 3-23.57-3.1-25.62-15.82-0.53-3.27 0.22-4.34 3.7-4.26 9.66 0.22 19.32 0.12 29 0 6.37 0 7.51-1.31 7.44-7.74-0.001648-1.3363-0.075087-2.6716-0.22-4-1.67-13.9-10.06-22.57-22.43-23.23-13.63-0.72-23.38 6.79-26.65 20.49-1.5862 6.6689-1.7361 13.599-0.44 20.33 2.86 15.19 14 23.58 29.38 22.32 3.4778-0.28212 6.9203-0.89829 10.28-1.84 7.31-2.07 7.59-2.62 7.57-11.06l-0.01-0.02zm490.84-18.45c0.030064-4.1707-0.45698-8.3291-1.45-12.38-3.1-12-12-19-24.63-19.35-12.76-0.31-21.83 6-25.62 18-2.2419 7.3586-2.6199 15.159-1.1 22.7 2.71 14.65 12.06 22.61 26 22.6s23.35-8.11 26-22.61c0.42159-2.9708 0.68861-5.9615 0.8-8.96zm-430.62-140.55c-3.51-7.68-3.51-7.68-12.25-7.68-1.67 0-3.34 0.12-5 0-2.48-0.22-3.82 0.48-3.47 3.27 0.17333 1.4916 0.17333 2.9984 0 4.49-0.34 3 0.43 4.85 4 4.23 2.65-0.47 3.35 0.75 3.32 3.35-0.13 11.49 0 23 0 34.47 0 11.27 0 11 11.49 11.37 4.45 0.13 5.58-1 5.44-5.44-0.33-10.15-0.24-20.32 0.06-30.47 0.25-8.61 3.62-13.21 10.71-12.8 6.25 0.36 6.35-2.4 5.86-6.77-0.11113-0.82628-0.11113-1.6637 0-2.49 0.62-3.81-1.44-4.42-4.64-4.31-6.73 0.2-11.63 3.47-15.52 8.78zm552.53 160.35c-1.47 8.3-1.46 8.29 6.34 10.25 5.9643 1.6205 12.212 1.9073 18.3 0.84 9.26-1.75 14.69-7.11 15.68-15.59 0.9-7.76-3.22-13.89-11.92-17.52-4.6-1.92-9.35-3.5-13.88-5.57-3.67-1.68-6.41-4.41-5.81-8.94 0.63-4.68 4-6.74 8.2-7.51 5.16-1 10.26-0.24 15.32 1 1.27 0.32 3.39 2.75 3.91-0.13 0.41-2.32 1.77-5.88-2.56-6.88-6.72-1.56-13.48-2.24-20.25-0.55-8.43 2.1-13.29 7.25-13.81 14.36-0.59 8.06 2.75 13.07 11.37 16.73 4.59 1.94 9.35 3.47 13.89 5.51 4.26 1.91 7.08 5.07 6.28 10.17s-4.43 7.09-9 7.88c-7.76 1.34-14.87-0.71-22.06-4.05zm-187.56-0.27c-3.41 1.31-6.42 2.76-9.59 3.61-10.21 2.75-18.82-0.2-22.34-8-4.53-10-4.48-20.37-0.44-30.54 2.36-5.94 7.06-9 13.58-9.17 6.22-0.14 9.88 3.16 12 8.65 0.41 1.06 0.57 2.6 2.14 2.19 2.38-0.62 5.57-0.18 6.91-2.18 1.11-1.67-0.75-4-1.8-5.85-2.0548-3.6605-5.2709-6.5317-9.14-8.16-6.413-2.8198-13.707-2.8577-20.149-0.10468-6.442 2.753-11.456 8.051-13.851 14.635-3.22 8.85-3.16 18-1.09 27.05 2.71 11.87 10.11 18.24 22.13 19.67 5.4 0.64 10.57-0.34 15.72-1.9s7.58-4.34 5.92-9.9zm-483.18 3.93c-6.42 0.58-6.75 0.32-6.76-6.22v-59.9c0-13.65 0-13.54-13.84-12.9-2.95 0.14-3.11 1.42-3.08 3.67s0 4.16 3 3.63c4-0.71 4.07 1.67 4.06 4.67-0.09 20.8 0 41.6 0 62.4 0 2.5-0.08 5 1 7.35 1.83 3.91 6.17 5.42 11.61 4.45 4.53-0.82 4-4 4.02-7.15h-0.01zm-2.72-317.28c0 4.32 0.16 8.65-0.06 13-0.15 2.91 1 3.43 3.69 3.63 4.17 0.3 5.77-1.06 5.15-5.24-0.19152-1.8183-0.19152-3.6517 0-5.47 0.08-1.18-0.68-2.86 1.31-3.23 1.71-0.32 3.19-0.1 4.19 1.74 1.57 2.92 3.32 5.74 5.09 8.55 2.54 4 6.37 4.32 10.55 3.51 2.21-0.43 2.3-2.11 2.27-3.81 0-0.82 0.61-2.36-1-2.12-5.31 0.77-5.15-4.22-7.34-6.73-1.31-1.5-0.74-2.29 0.78-3.47 5.17-4 6.78-9.27 4.89-14.9s-6.6-7.66-12-7.92c-6.14-0.29-12.29-0.19-18.44-0.2-1.06 0-2.62-0.44-2.68 1.32-0.06 1.57-0.88 4.32 0.7 4.49 4.21 0.45 2.87 3.26 2.94 5.44 0.06 3.76-0.03 7.59-0.04 11.41zm151 271c-2-7.74-2-7.74-9.22-7.71-1.1619 0.081529-2.3281 0.081529-3.49 0-2.89-0.4-3.24 1.16-3.14 3.52 0.09 2.11-0.14 4.23 3 3.7 3.73-0.64 4.3 1.18 4.26 4.47-0.16 14.81 0 29.62-0.16 44.42 0 3.61 0.74 4.8 4.6 4.91 4.43 0.13 5.57-1.1 5.47-5.52-0.27-11.3-0.42-22.65 0.3-33.92 0.63-9.75 5.39-14.12 14.51-14.25 4.18-0.06 2.77-2.57 3-4.58 0.32-2.49-0.14-4-3.27-4-6.71 0.09-11.81 2.8-15.85 8.99l-0.01-0.03zm492.39-0.31c0.49-7.49-3.89-8-9.19-7.41-1.1596 0.13224-2.3304 0.13224-3.49 0-2.84-0.32-2.77 1.51-2.71 3.45s-0.45 4.33 2.84 3.77c3.73-0.63 4.29 1.22 4.25 4.5-0.17 14.32-0.09 28.63-0.07 43 0 3.11-1.24 6.41 4.51 6.43 5.31 0 5.41-2.29 5.38-6.22-0.08-11-0.19-22 0.31-33 0.43-9.48 5.41-14.52 14.24-14.58 4.41 0 3.07-2.66 3.36-4.88 0.37-2.86-0.88-3.78-3.64-3.74-6.5 0.14-11.44 2.99-15.78 8.71l-0.01-0.03zm-297.81-249.19c-0.86 6-0.85 6 4.88 7.29 2.4311 0.58358 4.9327 0.81926 7.43 0.7 8.24-0.44 12.19-4.22 12.4-12.51 0.24-9.16 0-18.33 0.21-27.49 0.11-4-2.46-3-4.61-3.13-2.4-0.19-4.12-0.07-3.94 3.25 0.27 5.15 0.18 10.33 0 15.49-0.11 3.17-1.62 5.45-5.2 5.46-3.74 0-4.76-2.34-4.73-5.62 0-5.33-0.1-10.67 0.06-16 0.09-3-1.86-2.78-3.63-2.5s-4.93-1.57-4.94 2.15c0 6.82-0.59 13.67 0.38 20.47 0.64 4.52 3.39 7 7.93 7.68 3.4016 0.38147 6.8442-0.11427 10-1.44-0.09 8.57-1.92 9.2-16.24 6.2zm-57.16 19.66h-6.3c-1.13 0-2.63-0.2-2.58 1.5 0 1.52-1.05 4 1 4.36 3.45 0.54 1.87 2.33 1.4 3.78-2.81 8.7-5.73 17.36-8.51 26.06-0.33 1-1.67 2.45 0.32 3.38 3.09 1.45 7.22-0.57 8.46-4 0.56-1.55 0.25-3.94 2.94-3.92 3.82 0 7.77-0.44 11.43 0.36 2.26 0.49 1.6 4.11 2.86 6 2.14 3.13 5.61 1.82 8.17 1.27 2.15-0.47 0.23-2.78-0.24-4.13-3.25-9.25-6.93-18.35-9.81-27.71-1.65-5.39-3.74-8.76-9.14-6.98v0.03zm-215.75-19.86c-1.63 4.45-0.19 6.75 4.6 7.49 3.66 0.56 7.24 1.05 10.87 0.2 6-1.39 9-4.74 9.1-10.82 0.21-9.65 0-19.32 0.18-29 0.08-3.78-2.37-2.73-4.31-2.84-2.17-0.12-4.31-0.47-4.11 3.06 0.27 4.81 0.08 9.65 0.07 14.48 0 3.48-0.94 6.43-5.09 6.6-4.46 0.19-5-2.93-5-6.39 0-5-0.12-10 0-15 0.09-2.75-1.44-3.11-3.44-2.74-1.79 0.34-4.94-1.56-5 2.11-0.06 7-0.66 14 0.4 20.94 0.63 4.11 3.28 6.27 7.25 7.2 3.65 0.86 7.05-0.33 10.54-1.32 0.11 8.73-2.66 9.67-16.06 6.03zm-187.35 42.41c0 4.66 0.09 9.33 0 14-0.08 3 2 2.73 3.71 2.49s4.69 1.59 5.05-2.1c0.32-3.28-1.47-7.82 0.72-9.53s6.63-0.9 10.07-1.19c0.33793-0.036127 0.67237-0.099669 1-0.19 6.88-1.72 10-6.39 9.63-14.23-0.35-6.69-3.9-10.8-10.86-11.38-6.79-0.56-13.64-0.33-20.46-0.46-1.2 0-2.52-0.08-2.54 1.58 0 1.43-0.75 3.91 0.65 4.1 4.72 0.66 2.86 4 3 6.42 0.2 3.49 0.02 7 0.03 10.49zm536-7.13v-10.47c0-8.76 0-8.77-8.94-8.24-1.23 0.07-3.08-0.44-3 1.54 0 1.51-1.44 4 1.56 4.39s1.93 2.66 1.93 4.23c0 2.54-2.13 1.49-3.37 1.56-11.8 0.65-18.5 9.54-15.94 21.26 1.48 6.74 6 10.44 12.9 9.68 4.25-0.47 8.28-2.45 12.63-0.08 1.36 0.74 3.4 0 4.69-1.08 1.49-1.24 2-4.26 0.5-4.4-4.5-0.39-2.77-3.38-2.87-5.43-0.26-4.31-0.09-8.64-0.09-12.96zm-152.17 260.64c-5.83 0.67-6.42 0.23-6.45-5.51-0.06-11.82 0-23.64 0-35.46 0-13.68 0-13.58-13.75-13-2.86 0.12-3.28 1.23-3.15 3.6 0.11 2.09-0.12 4.23 3 3.66 4-0.73 4.11 1.65 4.09 4.66-0.1 12.15-0.06 24.31 0 36.46-0.081225 2.3291 0.096532 4.6601 0.53 6.95 1.08 4.63 5.24 6.59 11.13 6 4.43-0.5 5.31-3.08 4.6-7.36zm-351-322.13c0 5.82 0.23 11.66-0.08 17.47-0.19 3.59 1.39 3.9 4.36 4 3.37 0.13 4.24-1.05 4.11-4.21-0.19-4.81-0.09-9.65 0.11-14.46 0.15-3.39 1.72-5.77 5.56-5.6s4.42 2.85 4.42 5.93c0 5.16 0.12 10.32 0 15.47-0.1 3.28 2.06 2.89 4 2.74s4.6 1.18 4.52-2.66c-0.14-6.15 0.2-12.32-0.12-18.46-0.34-6.48-4.91-9.93-11.53-9.62-2.35 0.11-5.23 2.84-6.6 0.84-1.25-1.82-0.34-5.14-0.38-7.8-0.039-0.49924-0.039-1.0008 0-1.5 0.51-3.57-2-3.11-4.1-3-2 0.09-4.43-0.88-4.26 2.9 0.15 5.97-0.01 11.97-0.01 17.96zm599-7.61c0-3.4-0.17-6.4 0-9.37s-0.66-4.25-3.85-3.93c-2.48 0.25-4.82-0.48-4.72 3.63 0.27 11.8 0.25 23.62 0 35.42-0.07 3.93 2.29 3.15 4.52 3.24s4.19 0.17 4-3.22c-0.26-5.14-0.09-10.31 0-15.46 0-3.28 1.58-5.46 5.06-5.55 3.65-0.1 4.9 2.21 4.92 5.48 0 5.16 0.23 10.32 0 15.46-0.17 3.31 1.53 3.42 3.94 3.29 2.26-0.12 4.69 0.63 4.48-3.3-0.32-5.8 0-11.64-0.17-17.45-0.26-7-5-10.85-12-9.87-2.1131 0.43049-4.1998 0.98139-6.25 1.65l0.07-0.02zm-343.85 20.08c-1.52 7.32-1.29 7.73 5.32 8.89 3.4476 0.65316 6.9809 0.7174 10.45 0.19 6.21-1 10-4.67 10.55-10.26 0.62-5.88-1.92-9.8-8-12.24-2.62-1-5.35-1.84-8-2.88-1.8-0.71-3.27-2-3-4.11 0.24-2.25 1.89-3.31 4.06-3.78 2.69-0.58 5.29 0 7.94 0.26 1.41 0.13 3.58 2.69 4.14-0.92 0.39-2.51 0.85-4.85-3-5.39-4.16-0.59-8.22-1.17-12.36-0.08-5.72 1.5-8.87 5-9.2 10.34-0.35 5.57 2 9.27 7.62 11.53 2.46 1 5.08 1.6 7.53 2.62 2.18 0.91 4.45 2.11 3.81 5.07-0.6 2.75-3 3.41-5.37 3.63-4.38 0.39-8.3-0.93-12.49-2.87zm-20.15 60.42c0 3 0.21 6-0.06 9-0.3 3.32 1.56 3.4 4 3.31s4.72 0.65 4.5-3.25c-0.27-4.81-0.13-9.65 0-14.47 0.08-3.45 1.23-6.53 5.27-6.56 4.26 0 4.89 3.14 4.86 6.62 0 4.82 0.19 9.66 0 14.47-0.15 3.38 1.78 3.34 4.1 3.17 2-0.15 4.5 0.81 4.38-2.88-0.19-6.15 0.07-12.32-0.17-18.46-0.19-4.88-2.89-8.1-7.76-9.06-3.6189-0.85052-7.4287-0.12346-10.48 2-0.68 0.48-1.7 2.4-2.52 0.52-1.59-3.64-4.58-1.63-6.93-2.06-1.09-0.2-2.62-0.25-2.56 1.46 0 1.5-1 3.89 1.2 4.26 2.89 0.48 2.22 2.3 2.24 4-0.02 2.61-0.07 5.27-0.07 7.93zm311 0.1c0 3 0.2 6-0.05 9-0.29 3.41 1.72 3.22 4 3.22s4.58 0.28 4.41-3.42c-0.24-5.14-0.07-10.31 0.09-15.46 0.1-3.27 1.89-5.48 5.24-5.45 3.56 0 4.73 2.55 4.74 5.77 0 5.16 0.21 10.32 0 15.47-0.15 3.56 2.08 3.1 4.22 3.07s4.45 0.65 4.29-3c-0.22-5 0-10-0.06-15-0.07-11.71-8.28-16.3-18.47-10.37-0.7 0.41-1.78 2-2.24 0.73-1.39-3.78-4.39-2.07-6.76-2.37-1.22-0.15-2.93-0.46-3 1.6 0 1.41-0.69 3.82 0.87 4 3.93 0.49 2.48 3.19 2.63 5.18 0.24 2.36 0.09 4.7 0.09 7.03zm-397.92-0.06v-5c0-12.59-7.25-16.85-18.55-10.91-0.81 0.42-1.74 1.58-2.36 0.11-1.43-3.41-4.29-1.55-6.51-1.91-1-0.16-2.61-0.54-2.79 1.16-0.16 1.42-0.76 3.88 0.45 4.17 4.34 1.06 2.72 4.28 2.82 6.72 0.24496 4.8236 0.24496 9.6564 0 14.48-0.23 3.73 1.95 3.39 4.38 3.47 2.66 0.09 4.45-0.14 4.27-3.64-0.26-5-0.06-10 0-15 0.06-3.53 1.8-5.84 5.46-5.69s4.57 2.72 4.54 5.94c0 5 0.13 10-0.06 15-0.1 2.67 0.9 3.28 3.43 3.44 3.78 0.24 5.55-0.73 5-4.86-0.1921-2.4889-0.21549-4.9879-0.07-7.48h-0.01zm63.83-66.2v-1c0-13.16-8.81-18.83-21.28-13.93-2.7 1.06-2.52 3-2.09 4.81 0.62 2.66 2.43 0.62 3.53 0.35 2.575-0.71229 5.2741-0.85561 7.91-0.42 1.0239 0.11575 1.9561 0.64446 2.581 1.4638 0.62486 0.81931 0.88818 1.8582 0.72901 2.8762-0.42 2.93-2.59 0.61-3.95 0.81-1.63 0.24-3.34 0-4.95 0.31-6.33 1.2-9.09 5-8.5 11.37 0.47 5.14 4.09 8.65 9.94 8.31 5.12-0.3 10.15-2.1 15.33-0.19 0.67 0.25 1.63-0.19 2.42-0.43 1.51-0.46 1.82-1.69 2-3.1 0.25-1.81-0.37-2.27-2.15-2.17s-1.5-1.43-1.52-2.56c-0.01-2.17 0.02-4.33 0.01-6.5h-0.01zm311.39-0.32c0-10.06-5.32-15.8-14.61-15.74s-14.63 5.92-14.58 15.87 5.44 15.48 15 15.37c9.15-0.15 14.19-5.64 14.19-15.5zm-129.66 7c-2.5031 1.3831-5.2567 2.2533-8.1 2.56-3.07 0.21-6.06-0.27-7.87-3.22-1.26-2.05-1.67-3.76 1.81-3.66 3.65 0.11 7.32-0.11 11 0.05 4.39 0.19 5.48-2.19 5.13-6-0.69-7.38-5.71-12.23-13-12.57-6.9538-0.47385-13.153 4.3525-14.4 11.21-2.92 14.08 7 23.16 20.9 19.23 3.55-0.95 6.02-2.6 4.53-7.6zm-335.21 0.33c-2.6129 0.90858-5.2861 1.6337-8 2.17-3.42 0.45-6.65-0.25-8.47-3.77-1-1.85-1.09-3.1 1.65-3 4 0.1 8 0 12 0 3.47 0.07 4.66-1.71 4.66-4.95 0-7.07-4.42-12.29-11.54-13.39s-13.73 2.84-15.55 9.61c-1.72 6.38-1.57 12.72 3.48 17.66s11.14 4.34 17.34 2.84c3.85-0.91 5.72-3.03 4.43-7.15v-0.02zm154.16 71.82c9.77 0.19 15.12-5 15.32-14.9 0.2-10.07-5-16-14.17-16.16-9.53-0.17-14.86 5.26-15 15.27s4.81 15.64 13.84 15.81l0.01-0.02zm436.04-72.15c-2.4615 1.391-5.1863 2.2527-8 2.53-3.13 0.27-6-0.38-7.89-3.2-1.31-2-1.7-3.76 1.79-3.66 3.65 0.11 7.32-0.13 11 0.06 4.43 0.24 5.46-2.23 5.18-5.93-0.52-7-5-11.6-12-12.49-6.75-0.85-12.76 2.71-14.75 9.19-1.94 6.32-1.94 12.68 2.93 17.78s11.35 4.63 17.72 3.16c3.94-0.88 5.48-3.15 4.02-7.44zm-351.3 72.11c9.77 0.16 14.94-5 15.08-15.07s-5-15.88-14.32-16-14.88 5.56-14.95 15.45 5.08 15.51 14.19 15.65v-0.03zm-179.55-79.11c0 10 5.27 15.51 14.8 15.47 9.08 0 14.34-5.69 14.37-15.44 0-10-5.38-15.81-14.61-15.8s-14.58 5.71-14.56 15.77zm168.05-0.1c0 10 5.17 15.56 14.68 15.56 9.14 0 14.38-5.55 14.46-15.33 0.09-10-5.26-15.84-14.5-15.9s-14.61 5.61-14.64 15.67zm-174.16 71.1c-3 1.19-6.06 2.5-9.43 2.33-2.8-0.14-5.24-0.87-6.66-3.55-1.07-2-1.19-3.5 1.82-3.44 3.82 0.07 7.65-0.1 11.46 0.08s5-1.68 4.89-5.14c-0.18-6.67-4.44-11.81-10.89-13-7-1.25-13.57 2-15.73 8.37s-2.26 12.95 2.63 18.28 11.26 4.77 17.64 3.36c3.92-0.83 5.78-2.89 4.27-7.29zm424.89-0.06c-3.4 1.48-6.81 2.71-10.59 2.33-2.3774-0.084791-4.5382-1.404-5.7-3.48-1.09-2-1.21-3.5 1.8-3.45 4 0.06 8-0.09 12 0.06 3.35 0.12 4.35-1.63 4.37-4.61 0-7.13-4.51-12.61-11.4-13.58-7.66-1.09-14.14 3.18-15.89 10.45-3.43 14.28 6.49 23.69 20.69 19.76 3.94-1.1 6.22-2.92 4.72-7.48zm-486.93 0c-3.26 1.45-6.51 2.64-10.12 2.39-2.67-0.19-4.88-1.13-6.15-3.57-1-2-1.16-3.5 1.9-3.4 3.65 0.12 7.33-0.2 11 0.08 4.4 0.33 5.49-1.84 5.25-5.7-0.46-7.13-5.3-12.13-12.37-12.57-7.64-0.48-13.45 3.81-14.95 11.05-2.97 14.15 6.81 23.09 20.81 19.18 4-1.12 6.12-2.97 4.63-7.48v0.02zm270.48-4.32c0 3 0.19 6 0 9-0.31 4 2.42 3 4.6 3.18 2.44 0.17 4.13-0.06 4-3.33-0.25-5.66 0.06-11.33-0.13-17-0.09-2.73 0.55-4.07 3.54-3.72 2 0.23 3.84 0.37 3.92-2.84 0.09-3.47-1.85-3.38-4.09-3.12-3.25 0.38-3.57-1.46-3.23-3.94 0.48-3.53 2.9-3.48 5.59-3.14 1.11 0.14 2.89 1.23 2.9-1.18 0-1.52 0.72-3.27-1.48-4.27-7.16-3.24-14.91 0.94-15.46 8.65-0.17 2.45-0.26 4.18-3.41 4-1.68-0.11-1.47 1.5-1.41 2.62s-0.43 3.22 1.47 3.12c4.29-0.23 3.19 2.71 3.26 5s-0.06 4.61-0.07 6.95v0.02zm155.89-64.08v7c-0.07 3-0.71 5.68 4.27 5.63 5.22 0 3.93-3.15 4-5.87 0.07-4.83 0.18-9.67 0-14.49-0.13-2.91 0.49-4.47 3.77-4 2.21 0.33 3.73 0 3.78-3 0.05-3.16-1.7-3-3.8-3-1.68 0-3.91 0.7-3.71-2.43 0.17-2.55 0.6-4.73 3.85-4.63 0.83 0 1.66 0.11 2.49 0.18 1.1 0.1 2.55 0.66 2.43-1.29-0.08-1.35 0.69-2.87-1.13-4-6.29-3.77-15.42 0.66-15.81 7.91-0.13 2.5 0.15 4.61-3.48 4.37-2-0.13-1.26 1.92-1.37 3.1-0.29 1.43-0.29 2.98 1.71 2.78 3.18-0.36 3 1.68 2.93 3.75-0.01 2.66 0.07 5.32 0.07 7.99zm151.31 52.89c-2.12-2.56 0.92-5.49-2.78-6.5-4.57-1.25-9.21-1.46-13.68 0.59-3.3655 1.334-5.5168 4.6532-5.36 8.27 0 3.77 2 6.3 5.34 7.69 2.29 1 4.73 1.57 7.09 2.37 1.45 0.5 3.06 1.16 2.85 3-0.23 2-2.09 2.35-3.79 2.54-3.7 0.41-7.1-1-11-2.17 0.65 2.56-2 5.58 1.71 6.75 5.15 1.63 10.48 2.12 15.65 0 3.3946-1.2914 5.571-4.6225 5.39-8.25 0.13434-3.459-2.0157-6.5967-5.29-7.72-2.46-1-5-1.73-7.52-2.64-1.27-0.47-2.7-1.14-2.56-2.68 0.15-1.71 1.67-2.34 3.23-2.58 3.1-0.54 6.19 0.14 10.67 1.33h0.05zm-207.71-46.77c-7.57 1.38-7.83 1.15-7.82-7 0-2 0.12-4 0-6-0.23-3.14-0.06-5.68 4.26-4.89 2.44 0.45 2.58-1.27 2.59-3.11s-0.2-3.21-2.33-2.83c-4.57 0.81-4.72-1.86-4.59-5.22 0-1.22 1.16-3.11-1-3.81-2.94-0.94-7.46 2.22-7.48 5.32 0 2.13 0.17 4-3 3.75-2.07-0.15-1.5 1.77-1.51 3s-0.42 3.07 1.65 2.91c3.28-0.26 2.77 1.89 2.82 3.85 0.14 5-0.55 10 0.54 14.94 1 4.61 5.1 6.49 11.14 5.64 3.99-0.55 6.13-2.21 4.73-6.55zm-444.9-10.32c0 4.49 0.19 9-0.06 13.48-0.22 4 2.46 3 4.62 3.14s4.21 0.25 4.09-3.18c-0.23-7-0.07-14-0.07-21 0-8.26 0-8.39 8.33-8.77 2.57-0.12 3-1.14 3-3.3s-0.54-3-2.76-3c-8.49 0.08-17 0.15-25.47 0-2.79-0.05-2.75 1.45-2.87 3.41-0.13 2.2 0.71 3 2.87 2.83 1.65-0.14 3.34 0.12 5-0.06 2.7-0.29 3.44 0.87 3.34 3.43-0.14 4.35-0.01 8.68-0.02 13.02zm368.9 8.83c-4.59 1.74-9.36 4.37-13.71 0.59-3.61-3.13-3.19-7.79-2.34-12.16 0.5-2.55 1.48-4.89 4.41-5.44s4 1.37 5.13 3.64c1.71 3.31 4.44 0.86 6.49 0.36 3-0.73 0.69-2.74 0.2-3.87-1.91-4.35-5.9-5.77-10.2-6-5.07-0.24-9.55 1.33-12.45 5.91-3.4 5.36-3.27 15.2 0.24 20 3.37 4.61 10.2 6.4 17.32 4.6 3.8-0.95 6.57-2.58 4.92-7.63h-0.01zm255.21 65c-6.92 1.82-7.81 1.16-7.84-5.59 0-2.16 0.14-4.33 0-6.48-0.27-3.45-0.18-6.28 4.64-5.45 2.55 0.44 2.35-1.58 2.41-3.27s-0.41-3-2.46-2.64c-4.44 0.82-4.88-1.75-4.58-5.15 0.031177-1.4321-0.025597-2.8648-0.17-4.29-4 1.25-9.43 0.14-8.17 7.1 0.3 1.66-0.72 2.46-2.38 2.31-2.23-0.19-2.36 1.21-2.26 2.86 0.09 1.44-0.34 3.28 2 3.1 2.82-0.21 2.69 1.53 2.69 3.5 0 4.81-0.14 9.65 0.31 14.43s4.28 7 10.48 6.46c3.96-0.32 6.87-1.53 5.33-6.85v-0.04zm-180-1.17c-1.52 0.56-3 1.21-4.54 1.66-7.42 2.15-11.67-0.9-11.92-8.64 0.014048-1.6578 0.19835-3.3098 0.55-4.93 0.42-2.4 1.38-4.52 4.06-5.09s4.07 1.07 5.24 3.42c1.83 3.69 4.86 1 6.92 0.37 2.32-0.74 0.39-2.88-0.26-4.1-4-7.67-17.41-7.56-22.45 0.1-3.56 5.42-3.4 15.48 0.32 20.38 3.44 4.53 10.32 6.12 17.37 4.33 4.05-0.97 6.13-2.89 4.71-7.5zm30.76-0.06l-2.22 0.86c-3.82 1.5-8 2.83-11.36-0.11-3.78-3.3-3.36-8.07-2.39-12.59 0.54-2.53 1.59-4.83 4.61-5.18 2.63-0.31 3.7 1.4 4.76 3.51 1.87 3.72 4.82 1 6.87 0.36 2.54-0.77 0.35-2.89-0.23-4-4-7.74-17.33-7.68-22.42 0-3.54 5.34-3.39 15.55 0.29 20.4 3.41 4.5 10.49 6.17 17.41 4.35 4-1.03 6.2-2.96 4.68-7.54v-0.06zm-380.57-2.41c-2.12-6.68-3.83-12-5.51-17.38-1.39-4.42-5.19-2.51-7.51-2.12-2.74 0.47-0.45 2.92 0 4.26 2.5 7.55 5.3 15 7.84 22.54 0.68 2 1.54 3.31 3.8 2.9 1.92-0.34 4.4 1.16 5.53-1.87 3.18-8.54 6.47-17 9.67-25.57 0.32-0.86 0.83-1.85-0.49-2.51-2.4-1.2-6.44 0.52-7.44 3.29-1.89 5.08-3.69 10.17-5.89 16.46zm105.23 3.61c-6.9 2-7.9 1.25-7.93-5.59 0-2.5 0.13-5 0-7.49-0.19-2.91 0.22-5 3.92-4.32 2.51 0.45 3-0.94 3.06-3.19s-0.65-3.11-2.84-2.76c-3.83 0.62-4.39-1.51-4.2-4.67 0.09-1.49 1-3.53-0.87-4.46-2.43-1.2-7.16 2.14-7.37 4.88-0.13 1.72 1.16 4.43-2.39 4.2-2.11-0.14-2.5 0.94-2.42 2.75s-0.11 3.52 2.47 3.23 2.41 1.47 2.41 3.18c0 4.83-0.22 9.68 0.21 14.47 0.47 5.23 4.26 7.3 10.79 6.7 4.12-0.37 6.46-2.02 5.12-6.93h0.04zm55.42-80.84v-10c0-9.59 0-9.58-9.52-8.62-1.16 0.12-2.5-0.15-2.47 1.6 0 1.42-0.77 3.77 0.94 4 3.62 0.42 2.58 2.86 2.59 4.76 0.07 8.48-0.08 17 0.05 25.44 0.09 5.84 4.68 8.57 10 6.2 2.65-1.18 2.55-4.78 1.31-4.92-4.48-0.48-2.69-3.5-2.8-5.49-0.31-4.27-0.14-8.65-0.14-12.97h0.04zm338.15 9.23h0.07c0 1.83-0.05 3.65 0 5.48 0.28 8.1 6.61 11.78 14.24 8.53 2.57-1.1 2.37-3 2.07-4.88-0.41-2.6-2.1-0.58-3-0.44-3.43 0.56-5.09-0.68-5.07-4.17 0-3.15 0.18-6.33-0.08-9.46-0.28-3.4 0.31-5.52 4.4-4.77 2.35 0.43 2.69-1 2.67-3s-0.13-3.45-2.58-3c-4.62 0.87-4.63-1.93-4.52-5.22 0-1.21 1.08-3.1-1.07-3.75-2.93-0.85-6.93 2.15-7.17 5.15-0.12 1.64 0.75 4-2.34 3.81-2.62-0.19-2.37 1.52-2.4 3.22s0.19 3 2.37 2.79c2.62-0.29 2.42 1.49 2.38 3.22-0.05 2.17-0.01 4.33-0.01 6.49h0.04zm-563.57 66.33c0 3 0.16 6 0 9-0.24 3.65 2.28 2.92 4.32 2.93s4.45 0.66 4.3-3c-0.19-4.81 0-9.63 0-14.44 0.05-3.74 1.19-6.53 5.69-6.48 3.87 0 2.17-3 2.3-4.74 0.2-2.76-2-2.08-3.53-1.89-1.8329 0.21644-3.5316 1.0693-4.8 2.41-0.65 0.68-1.58 1.88-2.14 0.25-1.36-3.93-4.5-1.58-6.78-2.11-1-0.22-2.64-0.48-2.68 1.26 0 1.53-1 4 0.94 4.4 3.15 0.6 2.34 2.62 2.39 4.43 0.05 2.67 0 5.33-0.01 7.98zm526.61-82c-1.32 0.56-3.81-1.16-4.48 1.27-0.57 2.07-1 4.65 2.69 5 1.43 0.14 0.75 2 0.76 3 0.07 5.65 0.26 11.31 0 16.94-0.2 3.62 1.47 3.93 4.38 3.94s4.22-0.41 4-3.75c-0.2077-4.8124-0.16097-9.6325 0.14-14.44 0.16-3.27 1.51-6 5.37-5.85s2.45-2.73 2.52-4.48c0.11-3-2.11-2.59-3.83-1.92-3.12 1.21-6 4-9.33 0.27-0.31-0.27-1.3 0.01-2.22 0.01v0.01zm-340.37 76.07v-4c0-8.9 0-8.91-9-8.15-1.07 0.09-2.62-0.41-2.72 1.3-0.09 1.54-0.93 4.1 0.9 4.38 3.27 0.51 2.39 2.6 2.42 4.37 0.09 4.66-0.13 9.32 0.09 14 0.004359 2.4728 1.3947 4.7343 3.5992 5.8545 2.2045 1.1202 4.8509 0.90984 6.8508-0.54452 1.8-1.28 3.45-3.66-0.24-4.78-2.16-0.65-1.84-2-1.88-3.43-0.09-3.01-0.03-6-0.02-9zm276.45 0.45v-4.48c0-8.45 0-8.45-8.47-8.14h-0.5c-1.2 0.15-2.95-0.48-2.93 1.63 0 1.39-0.85 3.67 0.83 4 3.66 0.69 2.58 3.24 2.64 5.31 0.11 4.31-0.1 8.64 0.08 12.95 0.24 5.57 5.41 8.28 10.29 5.68 1.48-0.79 1.66-1.91 1.73-3.25 0-0.78 0.29-2-0.94-1.82-3.44 0.37-2.68-2.05-2.72-3.9-0.05-2.67-0.01-5.36-0.01-7.98zm-106.79-64.32v-4c0-9.07-0.29-9.32-9.31-8.21-1.14 0.14-2.49-0.06-2.54 1.62 0 1.29-0.55 3.48 0.52 3.71 4.93 1 2.81 4.76 3 7.4 0.3 3.79-0.05 7.63 0.14 11.44 0.28 5.43 5.76 8.09 10.49 5.36 1.5-0.86 1.48-2 1.49-3.34 0-0.77 0.21-1.84-1.08-1.66-3.52 0.5-2.66-2.07-2.72-3.88-0.05-2.79 0.01-5.62 0.01-8.44zm-323.35 299.63c3.64 0 7.3-0.19 10.93 0.06 3.23 0.22 3.37-1.5 3.32-3.94s0.23-4.47-3.43-4.32c-6.78 0.28-13.58 0.21-20.36 0-3.16-0.09-4.67 0.33-4.64 4.16s1.67 4.28 4.76 4.07 6.28-0.03 9.42-0.03zm308.32-52.22c-0.52-3.78-2.72-6-6.56-5.86-3.66 0.11-5.68 2.3-5.74 6s2.64 6.53 6.1 6.25c3.78-0.25 5.93-2.41 6.2-6.39zm-154.28-203.85c-0.57-2.69-1.78-4.73-4.86-4.59-1.2624-0.055464-2.4845 0.45102-3.3375 1.3832-0.85304 0.93218-1.2494 2.1943-1.0825 3.4468-0.036568 1.1796 0.42718 2.3196 1.2768 3.1387 0.84958 0.8191 2.0058 1.2409 3.1832 1.1613 3.08 0.05 4.29-1.9 4.82-4.54zm164.64-68.52c-2.54 0.51-4.37 2.1-4.21 4.94s2 4.43 5 4.3 4.16-1.88 4.14-4.51c-0.06-2.93-1.83-4.41-4.93-4.73zm111.62 68.78c-0.07-2.82-1.44-4.69-4.39-4.82-1.1686-0.1561-2.3487 0.18977-3.2481 0.95201s-1.4342 1.8696-1.4719 3.048c-0.31 2.93 1.18 4.77 4.08 5.09s4.55-1.34 5.03-4.28v0.01z" fill="#0C1F62"/>
<path d="m14.78 660.27c9.44 2.67 19.11 1.84 28.71 1.84 306.59 0 613.19 0.023333 919.78 0.07 9.2 0 17.07-2.47 23.15-9.55 3.5768-4.0241 5.6385-9.1695 5.83-14.55 0.09-2.5 0.12-5 0.12-7.5v-601.85c-0.036374-3.9893-0.44481-7.9666-1.22-11.88 5.19 2.87 6.51 8.34 8.8 13.15v620c-2.35 4.9-4.5 9.84-8.81 13.59-3.63 3.15-8.19 4.17-12.19 6.41h-949.95c-1.36-1.4-3.37-1.28-5-2.11-3.61-1.89-7.7-3.19-9.22-7.62z" fill="#9FA0A2"/>
<path d="m49.3 124.07c0-23.32 0.06-46.65-0.08-70 0-3.66 0.55-5.2 4.81-5.15 21.15 0.25 42.31 0 63.47 0.15 13.63 0.1 26.86 2.44 39 9.08 13.5 7.39 21.91 18.28 22.28 34.2 0.4 16.77-6.51 29.55-21.21 38-8.12 4.66-8.09 4.74-5.75 13.88 0.55972 2.4269 1.244 4.8234 2.05 7.18 3.34 9.06 8.16 12.38 17.81 11.83 3.18-0.18 4.53 0.62 5.71 3.68 3.4558 8.7052 8.9212 16.47 15.95 22.66 1.26 1.14 2.64 1.86 0.26 3.59-22.18 16.18-68.17 14.93-79.5-24-2.23-7.66-4.12-15.43-5.82-23.23-0.64-2.92-1.86-3.73-4.69-3.63-7.85 0.26-6.32-0.37-6.35 6.42-0.08 15.33-0.16 30.65 0 46 0 3.62-0.68 4.87-4.58 4.79-12.82-0.27-25.66-0.25-38.48 0-3.88 0.07-5-1-5-5 0.22-23.47 0.13-46.96 0.12-70.45zm47.89-28v12.8c0 1.36-0.12 2.86 1.86 2.82 9.62-0.19 19.4 0.39 28.41-3.88 5.53-2.62 8.13-8 7.39-14-0.71-5.87-4.43-9.06-9.78-10.68-4.1891-1.1034-8.5237-1.552-12.85-1.33-4.8 0.06-11.2-1.63-14 0.8-3.22 2.81-0.5 9.4-1.03 13.48v-0.01z" fill="#FCFCFC"/>
<path d="m703.77 199.62c-7.33 0-14.66-0.11-22 0.05-2.69 0.06-3.71-0.81-4.18-3.49-1.29-7.37-3-14.66-4.36-22-0.43-2.39-1.15-3.41-3.76-3.37-10.827 0.14-21.653 0.14-32.48 0-2.53 0-3.48 0.85-4 3.24-1.45 7.34-3.27 14.61-4.61 22-0.53 2.93-1.7 3.7-4.57 3.67-13.66-0.15-27.32-0.22-41 0-4.18 0.08-4.54-1.1-3.52-4.76 12.747-45.64 25.413-91.307 38-137 2.44-8.81 2.47-8.8 11.73-8.8 17.66 0 35.32 0.08 53-0.08 3.25 0 4.53 1 5.44 4.11 13.693 47.46 27.483 94.887 41.37 142.28 0.93 3.19 0.56 4.34-3.07 4.22-7.32-0.23-14.66-0.06-21.99-0.07zm-50.21-119.42c-0.64 0.75-1 1-1 1.24-4.47 19.79-8.88 39.59-13.39 59.36-0.62 2.73 0.55 3.06 2.81 3 7.33-0.08 14.66-0.19 22 0 3.44 0.11 3.3-1.32 2.73-3.9-4.46-19.73-8.71-39.55-13.15-59.7z" fill="#FBFCFC"/>
<path d="m338.67 186.63c8.1682-8.2468 14.089-18.447 17.2-29.63 0.86-3.14 2.35-1.84 4-1.23 11.6 4.2 23.38 7.68 35.77 8.7 4.3209 0.36511 8.6717 0.10918 12.92-0.76 3.51-0.72 6.67-2.31 7.49-6.38 0.86-4.27-1.35-7-4.7-9.06-5.73-3.54-12.13-5.39-18.54-7.2-7.36-2.08-14.77-4-21.64-7.52-20.2-10.27-28.6-27.53-25.12-51.52 2.77-19.09 15.82-32 37-35.9 23.088-4.2584 46.921-1.5573 68.47 7.76 3 1.25 4 2.42 2.64 5.85-3.34 8.33-6.29 16.82-9.11 25.34-1 2.95-2.32 3.38-5.1 2.62-10.27-2.82-20.54-5.67-31.1-7.26-3.4521-0.59075-6.9705-0.68839-10.45-0.29-3.79 0.51-7.19 1.83-8.07 6.21-0.82 4.09 1.56 6.6 4.56 8.68s6.3 3 9.7 3.82c10.37 2.57 20.48 5.84 29.84 11.09 21.72 12.16 29.15 27.2 25.44 51.21-3.15 20.38-17.2 34.53-39.81 38.49-27.72 4.85-54.33 0.35-79.69-11.75-0.60306-0.3723-1.1719-0.7973-1.7-1.27z" fill="#FCFCFC"/>
<path d="m471.48 124.1c0-23.48 0.1-47-0.09-70.43 0-3.75 0.9-4.79 4.68-4.69 21.79 0.57 43.63-0.92 65.4 1 11.19 1 22 3.69 31.86 9.27 29.61 16.75 31.12 56.88 2.84 75.75-14.49 9.69-30.81 12.88-47.92 13-9.44 0.08-9.44 0-9.44 9.67 0 12.32-0.14 24.65 0.08 37 0.07 3.62-0.73 4.87-4.6 4.8-12.82-0.25-25.64-0.21-38.46 0-3.56 0.06-4.5-1-4.44-4.48 0.2-11.82 0.08-23.64 0.09-35.47s0-23.59 0-35.42zm47.32-25.1c0 5 0.07 10 0 14.94 0 2.11 0.28 3.35 2.83 3.52 6.35 0.43 12.63 0.33 18.7-1.7 7.51-2.51 11.59-8.23 11.8-16.08s-3.72-13.59-11-16.69c-6.17-2.63-12.65-2.2-19.11-2.38-2.75-0.08-3.33 1-3.25 3.45 0.15 5.02 0.03 10.01 0.03 14.94z" fill="#FBFBFC"/>
<path d="m332.9 90.48c17.1 20.12 18.91 54.52 3.53 78.28-15.12 23.33-37 33.68-64.61 31.9-2.4365-0.31844-4.8766 0.56074-6.55 2.36-4.76 4.66-9.73 9.11-14.54 13.72-2 1.92-3.24 2.91-3.95-1-1.45-8-3.23-16-4.88-24 0.78588-0.2553 1.5876-0.45907 2.4-0.61 25.23-3 44.06-20.51 49-45.46l0.78-2c19.21-6.49 31.32-19.72 36.67-39.11 1.25-4.5 1.46-9.36 2.15-14.08z" fill="#379CC2"/>
<path d="m293.31 145.7c-4.94 25-23.77 42.42-49 45.47-0.81241 0.15093-1.6141 0.3547-2.4 0.61-0.29461-0.11424-0.57351-0.26545-0.83-0.45-4.73-5.1-10.67-8.79-15.44-13.92-22.42-24.1-24.06-64.77-3.37-89.76 0.35 4 0.36 8 1.09 11.89 6 32.36 33.73 51.2 66.57 45.44 1.17-0.2 2.62-1.22 3.38 0.72z" fill="#A10C62"/>
<path d="m332.9 90.48c-0.69 4.73-0.89 9.59-2.15 14.15-5.35 19.39-17.46 32.63-36.67 39.11 0-8.29 0.52-16.56-1.94-24.72-7.52-24.95-32.39-43.57-63.42-38.28 24.57-26.74 73.47-25.54 98.55 2.42 1.35 1.51 2 4.39 5 3.85l0.63 3.47z" fill="#2E9439"/>
<path d="m228.72 80.75c31-5.3 55.91 13.33 63.42 38.28 2.46 8.16 2 16.43 1.94 24.72l-0.78 2c-0.76-1.95-2.21-0.93-3.38-0.73-32.84 5.76-60.53-13.08-66.57-45.44-0.73-3.9-0.74-7.92-1.09-11.89 0.72593-1.6342 0.98551-3.4374 0.75-5.21l5.71-1.73z" fill="#23205E"/>
<path d="m79.56 387.55c4.24 0.46 10.53-2.1 14.13 1 3.32 2.81 3.9 8.89 5.59 13.57 7.34 20.33 14.58 40.7 22 61 1.25 3.39 0.77 4.35-2.86 4.1-4.47-0.3-9.76 1.25-13.24-0.66s-3.5-7.84-4.88-12c-0.9-2.75-2.16-3.58-5-3.51-6.9933 0.19333-13.993 0.19333-21 0-2.78-0.08-4.51 0.53-4.8 3.51-0.040293 0.16211-0.097264 0.31962-0.17 0.47-1.28 3.94-1.43 9.53-4.14 11.38-3 2-8.34 0.53-12.64 0.84-3.42 0.24-4.22-0.43-3-4 6.07-18 11.82-36 17.69-54 0.51-1.58 0.95-3.2 1.62-4.72 1.34-3 1.4-5.1-2.88-4.42-2.34 0.37-3.08-0.58-3.19-3-0.43-9.42-0.53-9.41 8.82-9.41l7.95-0.15zm4.56 18.68l-9.21 30.77c-0.43 1.45 0 2.17 1.6 2.16h18.49l-10.88-32.93z" fill="#F8F9FA"/>
<path d="m572.71 455.69c-1.14 4.35 1.26 9.23-4.93 11.07-7.83 2.33-13.49 1.15-18.31-4.71-10.49 9.72-30.43 8.29-37.38-4.88-6.51-12.33-6-25.2 0.7-37.31 6.19-11.24 16.82-14.89 29.1-14.91 2 0 5.21 1.69 5.83-0.54 0.91-3.23 0.45-7 0-10.4-0.19-1.6-2.29-1-3.47-0.88-3 0.34-3.52-1-3.53-3.68-0.06-8.31-0.17-8.45 8-8.25 5.26 0.13 12.28-2.37 15.28 1.06 2.6 3 0.85 9.81 0.86 14.95v53c-0.01 6.79 0.48 7.15 7.85 5.48zm-24.8-23.38h0.09v-13.45c0-1.69-0.28-2.62-2.31-3-7.43-1.4-14.75 1.79-17.93 8.62-3.6487 7.5855-4.0104 16.339-1 24.2 2.13 5.78 6.63 8.18 12.59 7.23 5-0.8 8.1-4.27 8.48-10.15 0.31-4.48 0.08-8.97 0.08-13.46v0.01z" fill="#F8F9FA"/>
<path d="m218.24 414.33c4.53-5.33 9-8 14.43-9 14.06-2.58 25.16 4.69 28.36 18.66 1.4263 6.3612 1.6703 12.93 0.72 19.38-2.21 15.72-11.77 24.17-27.62 24.72-1.5 0.05-3 0-4.5 0-7.5-0.17-7.5-0.18-7.5 7.6 0 4.5-0.12 9 0 13.49 0.06 2.17-0.63 3.13-2.82 2.82-0.16633-0.015018-0.33367-0.015018-0.5 0-13.64 0.59-13.64 0.59-13.64-13.06 0-18.83-0.06-37.65 0.07-56.48 0-3.21-0.43-5.17-4.21-4.5-2.38 0.42-3-0.67-3.12-3-0.34-8.9-0.44-8.9 8.34-8.88 0.49924 0.038959 1.0008 0.038959 1.5 0 5.59-0.87 9.91 0.2 10.49 8.25zm3.89 26.25v12.82c0 1.3-0.18 2.52 1.49 3.28 6.84 3.1 17-0.44 19.53-7.39 2.9859-8.0586 3.0284-16.913 0.12-25-1.79-5.2-5.77-7.25-11.44-6.76-5.21 0.45-8 3.47-9.13 8.4-1.17 5.17-0.23 10.34-0.58 14.65h0.01z" fill="#F8F9FA"/>
<path d="m147.16 414.24c4.86-5.66 9.86-8.37 15.86-9.08 14.11-1.65 24.23 5.83 27.09 19.8 1.0933 5.561 1.3394 11.255 0.73 16.89-1.7 17.16-12 26.23-29.72 26.29-3.26 0-8.31-1.27-9.37 0.24-1.66 2.39-0.63 6.65-0.74 10.12v1c0 12.74 0 12.58-12.57 12.65-3.62 0-4.37-1.14-4.35-4.52 0.14-21.31 0-42.61 0.11-63.92 0-3.64 0.18-6.81-5-5.72-1.34 0.28-2-0.36-2.26-1.86-1.6-8.26-0.2-10 8.18-10 0.49935 0.036174 1.0007 0.036174 1.5 0 5.58-0.87 9.96 0.17 10.54 8.11zm27 22.6c0.005014-3.3352-0.37075-6.6601-1.12-9.91-1.77-6.81-5.66-9.82-12.12-9.36-5.86 0.42-9.48 4.19-9.77 11.14-0.34 8.31-0.12 16.65-0.21 25 0 1.71 0.42 2.67 2.28 3.19 10.44 2.89 18.33-1.91 20.26-12.58 0.52-2.48 0.52-5 0.73-7.48h-0.05z" fill="#F8F9FA"/>
<path d="m228.72 80.75l-5.72 1.66c4.08-26.13 23.57-43.4 45.38-46.86 13.1-2.2448 26.565 0.4911 37.75 7.67 2.1373 1.5515 4.9027 1.9482 7.39 1.06 5.47-1.74 11-3.12 17.41-4.87-1.94 7-3.47 13.09-5.33 19-0.76028 2.1948-0.538 4.6108 0.61 6.63 3.5912 6.7929 5.6591 14.287 6.06 21.96-3 0.54-3.64-2.34-5-3.85-25.08-27.95-73.98-29.15-98.55-2.4z" fill="#9BD30C"/>
<path d="m223 82.45c0.23551 1.7726-0.024066 3.5758-0.75 5.21-20.69 25-19.06 65.66 3.37 89.76 4.77 5.12 10.71 8.82 15.44 13.92l-5.49 0.13h-0.22c-21.533-1.9067-36.987-12.597-46.36-32.07-0.70953-1.8582-2.2939-3.2441-4.23-3.7-5.13-1.36-10.13-3.21-15.26-4.59-3-0.8-2.68-1.72-0.72-3.42 4.28-3.69 8.45-7.51 12.74-11.19 1.5288-1.2363 2.489-3.0413 2.66-5 2.98-24.27 15.82-40.72 38.82-49.05z" fill="#EF672C"/>
<path d="m374.45 436.63c0 16.26-7 27.09-19.76 30.41-24.85 6.47-43.08-10.17-39.3-35.88 3.24-22 23.07-32.69 43.51-23.48 10.1 4.54 15.53 14.63 15.55 28.95zm-17-0.14c-0.14-4.16-0.27-8.34-1.78-12.29-1.84-4.82-5.24-7.54-10.58-7.57s-9.35 2.45-11 7.65c-2.7139 8.1198-2.6682 16.909 0.13 25 1.71 5 5.56 7.34 10.7 7.46s9.09-2.86 10.88-8c1.33-3.92 1.54-8.08 1.62-12.25h0.03z" fill="#F8F9FA"/>
<path d="m496 450.87c-0.26 3.18-0.65 5.94-0.64 8.7 0 2.22-1.13 3.33-2.9 4.15-11.21 5.19-22.76 6.51-34.31 1.66-12.28-5.14-18.15-19.38-15.38-35.64 3.33-19.6 20.36-29.59 39-22.88 11.66 4.19 19 17.54 16.55 29.74-0.88 4.39-3.65 5.56-7.54 5.55-9.15 0-18.31 0.13-27.46-0.08-3.46-0.08-3.94 1.12-3 4.06 2.11 7 8.37 10.94 16.78 10.4 3.3337-0.1206 6.6304-0.74085 9.78-1.84 2.88-1.11 5.71-2.4 9.12-3.82zm-25-18.52h8.93c1.6 0 2.3-0.52 2.45-2.27 0.54-6.21-3.67-12.39-9.35-13.42-6-1.08-11 2.44-12.83 9s-1.71 6.68 4.83 6.68l5.97 0.01z" fill="#F8F9FA"/>
<path d="m522.5 599.25c5.85 2.65 11.52 4.49 17.58 4.68 11.79 0.38 17.38-4.72 17.89-16.39 0.12-2.75 0-5.52 0-9.09-6.59 5.81-13.64 7.12-21.39 6-9.64-1.43-15.64-7-18.4-16.08-2.6329-8.489-2.4928-17.596 0.4-26 4.39-13 15.49-20.16 30.27-19.73 0.33 0 0.66 0.07 1 0.08 17.77 1 18 1.25 18 18.71v41.49c0.024341 2.672-0.10588 5.3431-0.39 8-1.48 12.44-7.81 18.73-20.24 20.1-6.139 0.72778-12.362 0.21773-18.3-1.5-7.13-2.18-7.13-2.17-6.42-10.27zm35.5-50.15v-15c0-1.57-0.15-2.67-2-3.46-9.77-4.2-22.92 0.7-27.08 10.55-3.5217 8.395-3.7396 17.811-0.61 26.36 2.5 7.31 9.4 11.05 17.06 9.9s12.14-6.09 12.53-14.38c0.3-4.64 0.1-9.31 0.1-13.97z" fill="#F4F6F7"/>
<path d="m378.61 406.54c0.35272-0.12986 0.71347-0.23675 1.08-0.32 15.46-0.88 15.48-0.88 20.12 13.8 2.85 9 5.63 18.06 8.53 27.41 4.32-12.55 8.64-24.78 12.7-37.1 1-3.14 2.33-4.71 5.91-4.31 3.4526 0.21526 6.9145 0.24196 10.37 0.08 1 1.6-0.12 2.73-0.54 3.84-6.57 17.57-13.29 35.06-19.78 52.71-1.19 3.23-2.58 4.66-6.31 4.56-10.7-0.27-10.75-0.05-14.29-10.06-5.91-16.73-11.77-33.48-17.79-50.61z" fill="#F8F9FA"/>
<path d="m49.24 544.78c0-11.83 0.09-23.67-0.06-35.5 0-3.19 0.79-4.34 4.18-4.29 12.5 0.2 25 0.17 37.5 0 3.1 0 4 1 4 4 0 3.19-1.17 3.88-4.13 3.82-8.83-0.18-17.67 0.13-26.49-0.14-3.62-0.11-4.47 1.06-4.33 4.48 0.27 6.66 0.21 13.33 0 20-0.08 2.88 0.86 3.68 3.67 3.6 7-0.19 14 0.08 21-0.13 2.93-0.09 3.58 0.95 3.58 3.69s-0.63 3.8-3.58 3.72c-7-0.21-14 0.06-21-0.13-2.81-0.07-3.75 0.72-3.67 3.61 0.19333 7.3333 0.19333 14.667 0 22-0.08 2.89 0.88 3.61 3.66 3.57 10-0.15 20-0.09 30 0 1.5 0 4.16-1.08 3.49 2.32-0.43 2.18 0.8 5.34-3.4 5.32-13.833-0.08-27.667-0.08-41.5 0-3.17 0-2.91-1.87-2.91-3.93v-36l-0.01-0.01z" fill="#EFF1F4"/>
<path d="m249.41 533.14c-0.84-7.25-0.83-7.23 5.72-9 6.1314-1.6295 12.527-2.0171 18.81-1.14 10 1.31 15.74 6.95 16.26 17s0.08 20 0.41 29.94c0.12 3.51-2 9.46 5.75 7.58 1.18-0.29 1.13 1 1 1.74-0.37 1.78 0.58 3.89-2.11 5-5.41 2.27-11 0.38-13.82-5.3-6.23 6.06-13.65 7.87-22 6.15-10.25-2.11-15.54-8.68-15.58-19.43 0-10.37 5.6-17.62 15.4-19.82 5.8585-1.2243 11.912-1.1766 17.75 0.14 3.27 0.68 4-0.29 3.78-3.44-0.65-8.27-4.52-12.23-13-12.77-3.1583-0.26745-6.339-0.024332-9.42 0.72-2.95 0.77-5.92 1.73-8.95 2.63zm31.59 27.16c-1.4-2.22 2.24-6.23-2.69-7.26-4.3794-1.0217-8.9015-1.2855-13.37-0.78-4.48 0.6-8.4 2.31-10.22 6.86-2.09 5.25-2.16 10.57 1.52 15.08s8.88 5.36 14.49 4 8.63-5.24 9.51-10.83c0.35-2.31 0.5-4.63 0.76-7.07z" fill="#F2F4F6"/>
<path d="m360.61 530.81c8.62-8.95 18.1-9.69 28.08-6.81 7.42 2.14 11.75 7.39 12.37 15.23 1.12 14.14 0.31 28.31 0.52 42.47 0.07 4.85-3.67 2.54-5.83 2.92s-4.2 0.38-4.15-3.08c0.17-11.83 0.08-23.66 0.06-35.49 0-10.86-3.71-15.3-13-15.7-9.58-0.41-15.47 5-15.78 15.24-0.36 11.49-0.42 23-0.11 34.48 0.12 4.48-1.88 4.57-5.29 4.72-3.73 0.16-4.82-0.89-4.76-4.7 0.23-14.83 0-29.66 0.16-44.49 0-3.23-0.43-5.2-4.22-4.57-3.33 0.55-2.73-1.87-2.82-3.79s-0.12-3.75 2.73-3.41c1.3287 0.15685 2.6713 0.15685 4 0 4.6-0.59 8.43-0.09 8.04 6.98z" fill="#F2F4F6"/>
<path d="m460.87 531.49c9.49-9.82 19.29-10.47 29.55-7.22 6.94 2.2 11.31 7.41 11.53 14.8 0.43 14.31 0.32 28.64 0.35 43 0 4.52-3.57 2.2-5.58 2.57-2.2 0.41-4.19 0.37-4.12-3.08 0.19-10.16 0.07-20.32 0.07-30.48 0-2.17 0.07-4.33 0-6.5-0.45-9.7-4.27-13.85-13-14.21-9-0.37-15.24 4.62-15.65 13.74-0.53 12-0.52 24-0.22 36 0.11 4.49-1.87 4.6-5.29 4.75-3.7 0.16-4.81-0.85-4.75-4.68 0.24-14.82 0-29.65 0.16-44.48 0-3.11-0.25-5.3-4.16-4.6-3.2 0.57-2.83-1.66-2.93-3.69-0.11-2.3 0.19-3.94 3.12-3.55 1.3309 0.11476 2.6691 0.11476 4 0 4.15-0.23 8.57-0.75 6.92 7.63z" fill="#F4F6F7"/>
<path d="m773.24 578.71c-4.726 4.8098-11.262 7.4024-18 7.14-13.61-0.17-21-7.38-21.26-21-0.19-12.49 0.13-25-0.16-37.47-0.11-4.54 2.63-3.51 5.13-3.64 2.81-0.14 5-0.35 4.91 3.9-0.27 12.48-0.18 25 0.06 37.46 0.16 8.19 4 12.14 11.61 12.76 8.81 0.71 14.94-3.3 16.46-11 0.48856-2.615 0.73295-5.2698 0.73-7.93 0.08-10 0.32-20-0.1-30-0.2-4.67 1.43-5.37 5.59-5.35 3.93 0 4.6 1.36 4.55 4.91-0.19 14.32-0.09 28.64-0.05 43 0 3.5-0.58 7.66 5.31 6.15 1.13-0.29 1.62 0.35 1.41 1.32-0.41 1.92 0.65 4.28-2.3 5.42-5.52 2.2-10.47 0.43-13.89-5.67z" fill="#F4F6F7"/>
<path d="m940.35 572.74c-0.18 8.67-0.47 9.19-7.7 11.19-3.2008 0.9048-6.4779 1.514-9.79 1.82-16.47 1.4-28-8.1-30-24.45-1.0593-7.1067-0.51609-14.36 1.59-21.23 4.37-13.45 17.22-20.31 30.92-16.73 11.46 3 19.84 17.2 17.57 29.65-0.69 3.79-3.26 4.62-6.56 4.62-10 0-20 0.16-30-0.06-3.56-0.08-4.07 1-3.54 4.3 2.13 12.91 12.15 19 26.1 15.67 4.0141-1.0342 7.8573-2.6443 11.41-4.78zm-22.5-21.89h12.48c1.3 0 2.56 0.16 3.08-1.68 2-7.17-4.84-18.07-12.22-19.24-10.51-1.67-20.48 8.64-18.78 19.29 0.34 2.12 1.74 1.59 2.95 1.61 4.17 0.03 8.33 0 12.49 0.02z" fill="#F2F4F6"/>
<path d="m229.57 572.79c0 8.44-0.26 9-7.59 11.06-3.357 0.96877-6.7996 1.6117-10.28 1.92-15.43 1.26-26.52-7.13-29.38-22.32-1.2961-6.7312-1.1462-13.661 0.44-20.33 3.27-13.7 13-21.21 26.65-20.49 12.37 0.66 20.76 9.33 22.43 23.23 0.14491 1.3284 0.21835 2.6637 0.22 4 0.08 6.44-1.07 7.69-7.44 7.74-9.66 0.07-19.33 0.18-29 0-3.48-0.08-4.23 1-3.7 4.26 2.06 12.72 11.86 18.86 25.62 15.82 4.2257-1.0387 8.278-2.6859 12.03-4.89zm-22.73-22h12.48c1.44 0 3 0.3 3.42-1.89 1.75-8.48-5.68-18.7-14.08-19.21-9.69-0.59-18.19 9.08-17 19.16 0.24 2 1.38 1.93 2.71 1.93l12.47 0.01z" fill="#F2F4F6"/>
<path d="m720.4 554.32c-0.099157 2.9878-0.35283 5.9684-0.76 8.93-2.69 14.5-12.11 22.6-26 22.61s-23.29-8-26-22.6c-1.5199-7.5409-1.1419-15.341 1.1-22.7 3.78-11.94 12.85-18.28 25.62-18 12.59 0.31 21.53 7.32 24.63 19.35 0.98201 4.0623 1.4556 8.2309 1.41 12.41zm-43.58-0.18c0 4.67 0.22 9.3 1.85 13.74 2.49 6.81 7.71 10.68 14.59 10.81 7.1 0.14 12.9-3.66 15.13-10.7 2.9747-9.0711 2.9186-18.864-0.16-27.9-2.32-6.85-7.8-10.42-14.82-10.34s-12.17 3.88-14.67 10.66c-1.4667 4.4191-2.1173 9.0681-1.92 13.72v0.01z" fill="#F4F6F7"/>
<path d="m289.78 413.77c3.89-5.3 8.79-8.58 15.47-8.81 3.2-0.11 5.26 0.49 4.64 4.31-0.11113 0.82628-0.11113 1.6637 0 2.49 0.49 4.38 0.39 7.14-5.86 6.77-7.09-0.41-10.46 4.19-10.71 12.8-0.3 10.15-0.39 20.32-0.06 30.47 0.14 4.4-1 5.57-5.44 5.44-11.48-0.35-11.48-0.1-11.49-11.37 0-11.49-0.09-23 0-34.47 0-2.6-0.67-3.81-3.32-3.35-3.54 0.62-4.31-1.18-4-4.23 0.17333-1.4916 0.17333-2.9984 0-4.49-0.34-2.79 1-3.49 3.47-3.27 1.65 0.14 3.33 0 5 0 8.79 0.02 8.79 0.02 12.3 7.71z" fill="#F4F6F7"/>
<path d="m842.31 574.12c7.19 3.34 14.3 5.39 22 4.06 4.61-0.79 8.24-2.81 9-7.88s-2-8.26-6.28-10.17c-4.54-2-9.31-3.57-13.89-5.51-8.62-3.65-12-8.67-11.37-16.73 0.52-7.11 5.38-12.25 13.81-14.36 6.78-1.69 13.53-1 20.25 0.55 4.34 1 3 4.57 2.56 6.88-0.51 2.88-2.64 0.45-3.91 0.13-5.06-1.27-10.17-2-15.32-1-4.18 0.77-7.57 2.83-8.2 7.51-0.61 4.52 2.13 7.26 5.81 8.94 4.53 2.07 9.28 3.65 13.88 5.57 8.7 3.64 12.82 9.77 11.92 17.52-1 8.48-6.42 13.84-15.68 15.59-6.0877 1.0673-12.336 0.78051-18.3-0.84-7.74-1.97-7.74-1.96-6.28-10.26z" fill="#F2F4F6"/>
<path d="m654.75 573.85c1.66 5.55-0.9 8.38-5.93 9.91s-10.32 2.54-15.72 1.9c-12-1.43-19.42-7.8-22.13-19.67-2.07-9.06-2.13-18.2 1.09-27.05 2.3944-6.5837 7.4086-11.882 13.851-14.635 6.442-2.753 13.736-2.7151 20.149 0.10468 3.8691 1.6283 7.0852 4.4995 9.14 8.16 1.06 1.85 2.91 4.19 1.8 5.85-1.34 2-4.53 1.56-6.91 2.18-1.57 0.41-1.73-1.13-2.14-2.19-2.12-5.49-5.78-8.79-12-8.65-6.53 0.15-11.23 3.23-13.58 9.17-4 10.16-4.09 20.52 0.44 30.54 3.52 7.79 12.14 10.74 22.34 8 3.18-0.86 6.19-2.31 9.6-3.62z" fill="#F2F4F6"/>
<path d="m171.58 577.78c0 3.14 0.51 6.33-4 7.14-5.44 1-9.78-0.54-11.61-4.45-1.1-2.35-1-4.85-1-7.35v-62.4c0-3 0-5.38-4.06-4.67-3 0.53-3-1.46-3-3.63s0.13-3.53 3.08-3.67c13.84-0.64 13.84-0.75 13.84 12.9v59.9c-0.01 6.55 0.32 6.81 6.75 6.23z" fill="#F4F6F7"/>
<path d="m168.85 260.5c0-3.82 0.09-7.65 0-11.46-0.07-2.17 1.27-5-2.94-5.44-1.58-0.17-0.76-2.93-0.7-4.49 0.06-1.76 1.63-1.32 2.68-1.32 6.15 0 12.3-0.09 18.44 0.2 5.44 0.26 10.11 2.15 12 7.92s0.28 10.89-4.89 14.9c-1.52 1.18-2.09 2-0.78 3.47 2.18 2.51 2 7.5 7.34 6.73 1.64-0.24 1 1.3 1 2.12 0 1.7-0.05 3.38-2.27 3.81-4.19 0.81-8 0.52-10.55-3.51-1.77-2.81-3.52-5.63-5.09-8.55-1-1.84-2.47-2.06-4.19-1.74-2 0.37-1.23 2-1.31 3.23-0.19152 1.8183-0.19152 3.6517 0 5.47 0.62 4.18-1 5.55-5.15 5.24-2.68-0.2-3.84-0.72-3.69-3.63 0.25-4.3 0.1-8.63 0.1-12.95zm8.72-10.29c0 8.14-0.23 7 3.84 7.08 6.26 0.08 8.64-1.86 8.52-6.87-0.11-4.72-2.4-6.17-8.51-6.53-6.42-0.39-2.87 4.32-3.85 6.32z" fill="#F2F4F6"/>
<path d="m319.86 531.53c4-6.19 9.18-8.9 15.86-9 3.13 0 3.58 1.5 3.27 4-0.26 2 1.16 4.52-3 4.58-9.12 0.13-13.88 4.5-14.51 14.25-0.72 11.27-0.57 22.62-0.3 33.92 0.11 4.42-1 5.65-5.47 5.52-3.87-0.11-4.65-1.3-4.6-4.91 0.2-14.81 0-29.62 0.16-44.42 0-3.28-0.53-5.11-4.26-4.47-3.11 0.53-2.88-1.59-3-3.7-0.1-2.36 0.25-3.92 3.14-3.52 1.1619 0.081529 2.3281 0.081529 3.49 0 7.26 0.01 7.26 0.01 9.22 7.75z" fill="#F4F6F7"/>
<path d="m812.25 531.22c4.34-5.72 9.27-8.57 15.79-8.68 2.75 0 4 0.88 3.64 3.74-0.29 2.22 1.05 4.85-3.36 4.88-8.83 0.06-13.8 5.1-14.24 14.58-0.5 11-0.39 22-0.31 33 0 3.93-0.07 6.24-5.38 6.22-5.75 0-4.51-3.32-4.51-6.43 0-14.32-0.1-28.64 0.07-43 0-3.28-0.51-5.13-4.25-4.5-3.29 0.55-2.78-1.81-2.84-3.77s-0.13-3.76 2.71-3.45c1.1596 0.13224 2.3304 0.13224 3.49 0 5.31-0.63 9.68-0.09 9.19 7.41z" fill="#F4F6F7"/>
<path d="m514.43 282c14.32 3 16.14 2.4 16.29-6.19-3.1558 1.3257-6.5984 1.8215-10 1.44-4.53-0.69-7.28-3.17-7.93-7.68-1-6.79-0.4-13.64-0.38-20.47 0-3.73 3.15-1.87 4.94-2.15s3.71-0.5 3.63 2.5c-0.16 5.33 0 10.66-0.06 16 0 3.28 1 5.62 4.73 5.62 3.57 0 5.09-2.29 5.2-5.46 0.17-5.16 0.26-10.34 0-15.49-0.17-3.32 1.54-3.43 3.94-3.25 2.15 0.17 4.72-0.88 4.61 3.13-0.25 9.16 0 18.33-0.21 27.49-0.22 8.29-4.16 12.07-12.4 12.51-2.4973 0.11926-4.9989-0.11642-7.43-0.7-5.78-1.37-5.79-1.3-4.93-7.3z" fill="#F2F4F6"/>
<path d="m457.27 301.63c5.4-1.78 7.49 1.6 9.14 7 2.88 9.36 6.56 18.47 9.81 27.71 0.48 1.36 2.4 3.67 0.24 4.13-2.56 0.55-6 1.86-8.17-1.27-1.27-1.86-0.6-5.48-2.86-6-3.66-0.8-7.6-0.33-11.43-0.36-2.69 0-2.37 2.37-2.94 3.92-1.23 3.4-5.37 5.41-8.46 4-2-0.93-0.65-2.36-0.32-3.38 2.77-8.71 5.7-17.37 8.51-26.06 0.47-1.45 2.06-3.24-1.4-3.78-2.07-0.32-1-2.84-1-4.36 0-1.7 1.45-1.48 2.58-1.5 1.83-0.07 3.66-0.05 6.3-0.05zm1.51 9.42c-0.93 3.19-1.48 5.17-2.08 7.13-2.84 9.29-2.85 9.29 7.3 8.39l-5.22-15.52z" fill="#F2F4F6"/>
<path d="m241.51 281.8c13.41 3.65 16.17 2.7 16.15-6-3.49 1-6.89 2.18-10.54 1.32-4-0.93-6.62-3.09-7.25-7.2-1.06-7-0.47-14-0.4-20.94 0-3.67 3.18-1.77 5-2.11 2-0.38 3.53 0 3.44 2.74-0.16 5 0 10 0 15 0 3.46 0.52 6.58 5 6.39 4.15-0.18 5.08-3.12 5.09-6.6 0-4.83 0.21-9.67-0.07-14.48-0.2-3.53 1.94-3.19 4.11-3.06 1.94 0.11 4.4-0.94 4.31 2.84-0.22 9.65 0 19.31-0.18 29-0.13 6.09-3.14 9.43-9.1 10.82-3.63 0.85-7.21 0.36-10.87-0.2-4.88-0.77-6.32-3.08-4.69-7.52z" fill="#F2F4F6"/>
<path d="m54.17 324.21c0-3.5 0.17-7-0.06-10.49-0.16-2.38 1.69-5.76-3-6.42-1.41-0.2-0.67-2.67-0.65-4.1 0-1.66 1.35-1.6 2.54-1.58 6.82 0.12 13.67-0.1 20.46 0.46 7 0.57 10.51 4.68 10.86 11.38 0.41 7.84-2.75 12.51-9.63 14.23-0.32763 0.090331-0.66207 0.15387-1 0.19-3.44 0.29-7.8-0.59-10.07 1.19s-0.4 6.25-0.72 9.53c-0.36 3.69-3.26 1.84-5.05 2.1s-3.79 0.51-3.71-2.49c0.12-4.67 0.03-9.33 0.03-14zm8.44-9.42c1.71 2.36-2.85 7.59 4 7.36 6.2-0.21 8.59-1.93 8.66-7s-2.47-7.19-8.9-7.38c-6.53-0.2-2 4.84-3.76 7.02z" fill="#EFF1F4"/>
<path d="m590.17 317.08c0 4.32-0.14 8.65 0.06 13 0.09 2-1.63 5 2.87 5.43 1.54 0.13 1 3.16-0.5 4.4-1.29 1.07-3.33 1.81-4.69 1.08-4.35-2.37-8.39-0.39-12.63 0.08-6.89 0.76-11.42-2.95-12.9-9.68-2.57-11.72 4.13-20.61 15.94-21.26 1.24-0.07 3.37 1 3.37-1.56 0-1.57 1.1-3.81-1.93-4.23s-1.52-2.88-1.56-4.39c-0.06-2 1.79-1.47 3-1.54 8.94-0.53 8.94-0.52 8.94 8.24v10.47l0.03-0.04zm-8.28 7.17h-0.1c-0.096976-1.4918-0.096976-2.9882 0-4.48 0.63-4.81-2.11-4.81-5.43-3.87-3.48 1-5 3.72-5.46 7-0.59 4-1.08 8.12 2.35 11.15 1.3596 1.1637 3.2374 1.5121 4.9239 0.91348 1.6865-0.59864 2.9245-2.053 3.2461-3.8135 0.33503-2.2843 0.48884-4.5915 0.46-6.9h0.01z" fill="#F2F4F6"/>
<path d="m438 577.72c0.73 4.23-0.15 6.85-4.64 7.32-5.89 0.62-10-1.34-11.13-6-0.43347-2.2899-0.61122-4.6209-0.53-6.95-0.05-12.15-0.1-24.31 0-36.46 0-3-0.05-5.4-4.09-4.66-3.13 0.57-2.9-1.57-3-3.66-0.12-2.37 0.3-3.48 3.15-3.6 13.76-0.58 13.75-0.68 13.75 13v35.46c0.05 5.83 0.64 6.22 6.49 5.55z" fill="#F8F9FA"/>
<path d="m87 255.59c0-6 0.19-12-0.07-18-0.16-3.77 2.31-2.8 4.26-2.9 2.13-0.1 4.61-0.56 4.1 3-0.039 0.49924-0.039 1.0008 0 1.5 0 2.66-0.88 6 0.38 7.8 1.37 2 4.25-0.74 6.6-0.84 6.62-0.31 11.19 3.14 11.53 9.62 0.32 6.14 0 12.31 0.12 18.46 0.09 3.84-2.67 2.51-4.52 2.66s-4.09 0.55-4-2.74c0.16-5.15 0-10.31 0-15.47 0-3.08-0.57-5.77-4.42-5.93s-5.42 2.22-5.56 5.6c-0.21 4.82-0.31 9.65-0.11 14.46 0.13 3.16-0.73 4.35-4.11 4.21-3-0.12-4.55-0.43-4.36-4 0.31-5.81 0.08-11.64 0.08-17.47l0.08 0.04z" fill="#F2F4F6"/>
<path d="m685.93 248c2.0311-0.65629 4.0978-1.1972 6.19-1.62 7-1 11.79 2.86 12 9.87 0.21 5.81-0.15 11.65 0.17 17.45 0.21 3.92-2.22 3.17-4.48 3.3-2.41 0.13-4.11 0-3.94-3.29 0.27-5.14 0.06-10.31 0-15.46 0-3.28-1.26-5.58-4.92-5.48-3.49 0.09-5 2.27-5.06 5.55-0.07 5.15-0.24 10.32 0 15.46 0.17 3.39-1.71 3.32-4 3.22s-4.59 0.68-4.52-3.24c0.22-11.8 0.24-23.62 0-35.42-0.1-4.1 2.24-3.38 4.72-3.63 3.19-0.32 4.08 0.94 3.85 3.93s-0.01 5.94-0.01 9.36z" fill="#F4F6F7"/>
<path d="m342.15 268.06c4.18 1.91 8.11 3.26 12.39 2.86 2.39-0.22 4.77-0.89 5.37-3.63 0.64-3-1.63-4.17-3.81-5.07-2.45-1-5.07-1.63-7.53-2.62-5.59-2.27-8-6-7.62-11.53 0.33-5.33 3.48-8.84 9.2-10.34 4.14-1.08 8.2-0.51 12.36 0.08 3.86 0.55 3.41 2.89 3 5.39-0.56 3.61-2.74 1-4.14 0.92-2.65-0.25-5.24-0.84-7.94-0.26-2.17 0.47-3.82 1.53-4.06 3.78-0.22 2.09 1.25 3.39 3 4.11 2.62 1 5.35 1.83 8 2.88 6.13 2.44 8.66 6.36 8 12.24-0.59 5.59-4.34 9.24-10.55 10.26-3.4691 0.5274-7.0024 0.46316-10.45-0.19-6.51-1.15-6.73-1.56-5.22-8.88z" fill="#F2F4F6"/>
<path d="m322 328.48v-8c0-1.69 0.65-3.51-2.24-4-2.22-0.37-1.16-2.76-1.2-4.26-0.05-1.71 1.48-1.66 2.56-1.46 2.35 0.44 5.35-1.57 6.93 2.06 0.82 1.89 1.84 0 2.52-0.52 3.0513-2.1235 6.8611-2.8505 10.48-2 4.87 1 7.57 4.17 7.76 9.06 0.24 6.15 0 12.31 0.17 18.46 0.12 3.7-2.39 2.73-4.38 2.88-2.32 0.17-4.26 0.21-4.1-3.17 0.22-4.81 0-9.65 0-14.47 0-3.48-0.6-6.65-4.86-6.62-4 0-5.19 3.11-5.27 6.56-0.11 4.82-0.26 9.66 0 14.47 0.22 3.89-2.22 3.16-4.5 3.25s-4.26 0-4-3.31c0.36-2.92 0.13-5.93 0.13-8.93z" fill="#F2F4F6"/>
<path d="m633 328.58c0-2.33 0.13-4.67 0-7-0.15-2 1.3-4.69-2.63-5.18-1.56-0.19-0.88-2.6-0.87-4 0-2.06 1.74-1.76 3-1.6 2.37 0.3 5.37-1.41 6.76 2.37 0.46 1.24 1.54-0.32 2.24-0.73 10.19-5.93 18.4-1.34 18.47 10.37 0 5-0.16 10 0.06 15 0.16 3.64-2.22 3-4.29 3s-4.38 0.49-4.22-3.07c0.22-5.15 0-10.31 0-15.47 0-3.23-1.18-5.75-4.74-5.77-3.36 0-5.14 2.18-5.24 5.45-0.16 5.15-0.33 10.32-0.09 15.46 0.17 3.69-1.94 3.42-4.41 3.42s-4.34 0.18-4-3.22c0.18-3.02-0.04-6.04-0.04-9.03z" fill="#F2F4F6"/>
<path d="m235.09 328.52c-0.14848 2.4918-0.12844 4.9909 0.06 7.48 0.57 4.13-1.2 5.1-5 4.86-2.53-0.16-3.53-0.77-3.43-3.44 0.18-5 0-10 0.06-15 0-3.22-1-5.79-4.54-5.94s-5.4 2.16-5.46 5.69c-0.09 5-0.28 10 0 15 0.18 3.5-1.6 3.72-4.27 3.64-2.43-0.08-4.62 0.26-4.38-3.47 0.24496-4.8236 0.24496-9.6564 0-14.48-0.1-2.44 1.52-5.66-2.82-6.72-1.2-0.29-0.6-2.75-0.45-4.17 0.19-1.7 1.79-1.32 2.79-1.16 2.22 0.36 5.08-1.5 6.51 1.91 0.62 1.48 1.55 0.32 2.36-0.11 11.29-5.94 18.53-1.67 18.55 10.91 0.013333 1.6533 0.02 3.32 0.02 5z" fill="#EFF1F4"/>
<path d="m298.93 262.32v6.5c0 1.13-0.17 2.66 1.52 2.56s2.4 0.36 2.15 2.17c-0.2 1.41-0.5 2.64-2 3.1-0.79 0.24-1.75 0.68-2.42 0.43-5.17-1.91-10.2-0.11-15.33 0.19-5.86 0.34-9.47-3.17-9.94-8.31-0.59-6.4 2.17-10.17 8.5-11.37 1.61-0.3 3.32-0.07 4.95-0.31 1.35-0.2 3.52 2.12 3.95-0.81 0.15917-1.018-0.10414-2.0569-0.72901-2.8762-0.62486-0.81931-1.5571-1.348-2.581-1.4638-2.6359-0.43561-5.335-0.29229-7.91 0.42-1.09 0.27-2.91 2.3-3.53-0.35-0.43-1.83-0.6-3.75 2.09-4.81 12.46-4.9 21.26 0.77 21.28 13.93-0.01 0.34-0.01 0.68 0 1zm-8.37 3.23c0.41-2.48-1.05-3.47-3.73-3.47-3.36 0-5.49 1.46-5.62 4.9-0.1 2.83 1.26 4.88 4.36 5 4.06 0.08 4.87-2.72 4.99-6.43z" fill="#EFF1F4"/>
<path d="m610.3 262c0 9.9-5 15.39-14.23 15.5-9.51 0.11-14.9-5.43-15-15.37s5.33-15.81 14.58-15.87 14.65 5.63 14.65 15.74zm-20.69-0.21c0.15 1.56 0.19 3.23 0.51 4.85 0.57 2.87 2.21 4.91 5.29 5.05 3.28 0.15 5.14-1.7 5.93-4.86 0.87875-3.3818 0.81998-6.9391-0.17-10.29-0.77-2.62-2.36-4.37-5.28-4.38-3.12 0-4.9 1.82-5.67 4.61-0.32891 1.6388-0.53283 3.3003-0.61 4.97v0.05z" fill="#F2F4F6"/>
<path d="m480.64 269c1.5 4.95-1 6.63-4.6 7.65-13.94 3.93-23.82-5.14-20.9-19.23 1.2465-6.8575 7.4462-11.684 14.4-11.21 7.33 0.34 12.36 5.19 13 12.57 0.35 3.77-0.74 6.15-5.13 6-3.65-0.16-7.32 0.06-11-0.05-3.48-0.11-3.07 1.6-1.81 3.66 1.81 2.95 4.79 3.43 7.87 3.22 2.8709-0.313 5.6494-1.2006 8.17-2.61zm-11.7-8.64c1.47-1.87 5.19 1.58 5.34-2.59 0.11-3-1.59-5.57-5.06-5.7-3.76-0.14-5.61 2.53-5.66 5.7-0.09 4.23 3.63 0.87 5.38 2.61v-0.02z" fill="#EFF1F4"/>
<path d="m145.43 269.35c1.3 4.13-0.58 6.24-4.44 7.15-6.18 1.46-12.37 2-17.33-2.87s-5.2-11.28-3.48-17.66c1.82-6.74 8.39-10.65 15.47-9.56s11.55 6.32 11.54 13.39c0 3.24-1.19 5-4.66 4.95-4-0.08-8 0.06-12 0-2.75-0.07-2.61 1.19-1.65 3 1.82 3.52 5.05 4.22 8.47 3.77 2.741-0.53269 5.441-1.2578 8.08-2.17zm-12-9.17c1.71-1.47 5.58 1.9 5.48-2.76-0.07-3.17-2-5.36-5.29-5.34-3.57 0-5.5 2.61-5.44 5.8 0.06 3.99 3.63 0.81 5.23 2.3h0.02z" fill="#EFF1F4"/>
<path d="m299.58 341.17c-9-0.18-14-5.86-13.87-15.79s5.49-15.44 15-15.27c9.17 0.16 14.37 6.09 14.17 16.16-0.18 9.88-5.53 15.09-15.3 14.9zm6.79-14.47c-0.14-2.11-0.14-3.61-0.36-5.07-0.48-3.28-2.05-5.66-5.7-5.7-3.38 0-4.94 2.12-5.67 5.18-0.83992 3.3893-0.73965 6.9435 0.29 10.28 0.67617 2.3683 2.8322 4.0076 5.2951 4.0262s4.6433-1.5883 5.3549-3.9462c0.3853-1.5674 0.64942-3.1621 0.79-4.77z" fill="#F2F4F6"/>
<path d="m735.63 269c1.46 4.26-0.09 6.53-4.09 7.45-6.37 1.47-12.74 2-17.72-3.16s-4.88-11.45-2.93-17.78c2-6.48 8-10 14.75-9.19 7 0.89 11.51 5.52 12 12.49 0.28 3.7-0.76 6.17-5.18 5.93-3.65-0.19-7.32 0-11-0.06-3.49-0.1-3.1 1.65-1.79 3.66 1.85 2.82 4.76 3.47 7.89 3.2 2.8385-0.2708 5.5881-1.1362 8.07-2.54zm-12.18-8.87c1.84-1.48 5.61 1.87 5.86-2.37 0.19-3.2-1.71-5.78-5.39-5.71s-5.32 2.84-5.34 5.93c-0.03 3.87 3.42 0.82 4.88 2.18l-0.01-0.03z" fill="#EFF1F4"/>
<path d="m384.33 341.14c-9.11-0.15-14.24-5.79-14.18-15.58s5.52-15.53 14.95-15.45 14.46 5.84 14.32 16-5.32 15.19-15.09 15.03zm6.7-15.09c-0.003034-1.2876-0.089884-2.5737-0.26-3.85-0.67-3.24-1.81-6.25-5.84-6.23-4.2 0-5.69 2.9-6 6.54-0.1982 2.4721-0.14795 4.9579 0.15 7.42 0.39 3.05 2 5.35 5.39 5.52 3.61 0.18 5.38-2.1 6.05-5.35 0.2315-1.3406 0.39172-2.6925 0.48-4.05h0.03z" fill="#F2F4F6"/>
<path d="m204.78 262c0-10.06 5.26-15.78 14.57-15.78s14.65 5.86 14.65 15.78c0 9.76-5.29 15.41-14.37 15.44-9.63 0.07-14.84-5.44-14.85-15.44zm20.6-1.31c-0.05-0.46-0.12-1.79-0.35-3.09-0.54-3-2-5.33-5.39-5.47s-5.19 1.79-5.86 4.91c-0.33273 1.4489-0.53355 2.9249-0.6 4.41-0.19 6.59 2 10.13 6.1 10.18s6.15-3.2 6.1-10.93v-0.01z" fill="#F2F4F6"/>
<path d="m372.83 261.9c0-10.06 5.34-15.74 14.65-15.68s14.58 5.94 14.5 15.9c-0.09 9.78-5.32 15.33-14.46 15.33-9.52 0.01-14.72-5.51-14.69-15.55zm20.71 0.36c-0.19-1.78-0.25-3.45-0.57-5.06-0.57-2.84-2.08-4.94-5.24-5.06-3.32-0.12-5.13 1.72-5.94 4.85-0.97204 3.5383-0.87811 7.2848 0.27 10.77 0.61271 2.343 2.7591 3.9548 5.18 3.89 2.5991 0.17688 4.9387-1.5683 5.51-4.11 0.3946-1.7378 0.65867-3.5028 0.79-5.28z" fill="#F2F4F6"/>
<path d="m198.67 333c1.51 4.4-0.35 6.47-4.27 7.34-6.38 1.41-12.75 2-17.64-3.36s-4.82-11.86-2.63-18.28 8.73-9.63 15.73-8.37c6.45 1.16 10.7 6.3 10.89 13 0.1 3.46-1.09 5.32-4.89 5.14s-7.64 0-11.46-0.08c-3-0.06-2.89 1.41-1.82 3.44 1.42 2.68 3.86 3.41 6.66 3.55 3.37 0.11 6.39-1.19 9.43-2.38zm-11.77-9c1.89-1.17 5.44 1.5 5.57-2.3 0.11-3.06-1.53-5.85-5.37-5.77s-5.45 2.63-5.4 5.82c0.08 4.12 3.69 0.79 5.2 2.25z" fill="#F2F4F6"/>
<path d="m623.56 332.94c1.5 4.57-0.78 6.38-4.74 7.48-14.2 3.93-24.11-5.48-20.69-19.76 1.74-7.27 8.22-11.54 15.89-10.45 6.89 1 11.44 6.46 11.4 13.58 0 3-1 4.73-4.37 4.61-4-0.14-8 0-12-0.06-3 0-2.89 1.49-1.8 3.45 1.1618 2.076 3.3226 3.3952 5.7 3.48 3.8 0.37 7.22-0.85 10.61-2.33zm-12-8.63c1.26-2.28 5.7 2.06 5.53-3.16-0.1-3.16-1.88-5.31-5.34-5.23-3.74 0.08-5.36 2.8-5.42 5.89-0.1 3.77 3.3 1.01 5.2 2.49l0.03 0.01z" fill="#F4F6F7"/>
<path d="m136.63 332.92c1.49 4.51-0.65 6.36-4.66 7.48-14 3.91-23.76-5-20.82-19.21 1.5-7.24 7.31-11.53 14.95-11.05 7.07 0.45 11.91 5.45 12.37 12.57 0.25 3.86-0.84 6-5.25 5.7-3.64-0.27-7.32 0-11-0.08-3.07-0.1-2.94 1.43-1.9 3.4 1.28 2.44 3.48 3.38 6.15 3.57 3.65 0.26 6.9-0.93 10.16-2.38zm-11.82-8.92c1.71-1.42 5.64 1.85 5.44-2.83-0.13-3.11-1.86-5.33-5.33-5.29-3.77 0-5.5 2.85-5.48 5.85 0.03 3.9 3.67 0.95 5.37 2.27z" fill="#F4F6F7"/>
<path d="m407.12 328.6c0-2.33 0.06-4.67 0-7s1-5.21-3.26-5c-1.9 0.1-1.41-1.89-1.47-3.12s-0.26-2.73 1.41-2.62c3.15 0.2 3.24-1.54 3.41-4 0.55-7.71 8.3-11.89 15.46-8.65 2.2 1 1.49 2.74 1.48 4.27 0 2.41-1.8 1.32-2.9 1.18-2.7-0.35-5.11-0.4-5.59 3.14-0.34 2.49 0 4.32 3.23 3.94 2.24-0.26 4.18-0.36 4.09 3.12-0.08 3.21-1.91 3.07-3.92 2.84-3-0.34-3.63 1-3.54 3.72 0.19 5.66-0.11 11.34 0.13 17 0.14 3.27-1.55 3.5-4 3.33-2.19-0.15-4.91 0.79-4.6-3.18 0.25-2.96 0.06-5.97 0.07-8.97z" fill="#EFF1F4"/>
<path d="m563 264.54v-8c0-2.07 0.26-4.11-2.93-3.75-2 0.23-2-1.35-1.87-2.71 0.11-1.18-0.64-3.23 1.37-3.1 3.64 0.23 3.35-1.87 3.48-4.37 0.39-7.25 9.52-11.68 15.81-7.91 1.81 1.09 1 2.6 1.13 4 0.12 1.95-1.33 1.39-2.43 1.29-0.83-0.07-1.66-0.16-2.49-0.18-3.25-0.1-3.68 2.08-3.85 4.63-0.21 3.13 2 2.42 3.71 2.43 2.1 0 3.85-0.16 3.8 3 0 3-1.57 3.34-3.78 3-3.28-0.49-3.9 1.06-3.77 4 0.22 4.82 0.11 9.66 0 14.49 0 2.72 1.25 5.82-4 5.87-5 0-4.34-2.62-4.27-5.63 0.09-2.39 0.09-4.73 0.09-7.06z" fill="#F4F6F7"/>
<path d="m714.26 317.43c-4.49-1.2-7.57-1.88-10.73-1.39-1.55 0.24-3.08 0.87-3.23 2.58-0.14 1.54 1.29 2.22 2.56 2.68 2.49 0.91 5.06 1.64 7.52 2.64 3.2743 1.1233 5.4243 4.261 5.29 7.72 0.18099 3.6275-1.9954 6.9586-5.39 8.25-5.17 2.13-10.5 1.64-15.65 0-3.69-1.17-1.06-4.19-1.71-6.75 3.92 1.17 7.32 2.59 11 2.17 1.69-0.19 3.55-0.5 3.79-2.54 0.21-1.8-1.4-2.47-2.85-3-2.36-0.8-4.79-1.41-7.09-2.37-3.35-1.4-5.34-3.92-5.34-7.69-0.15677-3.6168 1.9945-6.936 5.36-8.27 4.47-2.05 9.11-1.84 13.68-0.59 3.71 1.07 0.67 4.01 2.79 6.56z" fill="#EFF1F4"/>
<path d="m506.61 270.66c1.39 4.35-0.75 6-4.77 6.57-6 0.85-10.12-1-11.14-5.64-1.09-4.92-0.4-10-0.54-14.94-0.05-2 0.46-4.11-2.82-3.85-2.07 0.16-1.65-1.67-1.65-2.91s-0.57-3.13 1.51-3c3.15 0.22 3-1.63 3-3.75 0-3.1 4.54-6.26 7.48-5.32 2.19 0.7 1.08 2.59 1 3.81-0.13 3.37 0 6 4.59 5.22 2.13-0.38 2.34 1.15 2.33 2.83s-0.15 3.55-2.59 3.11c-4.32-0.79-4.49 1.75-4.26 4.89 0.15 2 0 4 0 6 0.02 8.12 0.25 8.32 7.86 6.98z" fill="#EFF1F4"/>
<path d="m61.71 260.34c0-4.33-0.12-8.66 0-13 0.1-2.56-0.63-3.72-3.34-3.43-1.65 0.18-3.34-0.07-5 0.06-2.16 0.18-3-0.63-2.87-2.83 0.12-2 0.07-3.47 2.87-3.41 8.49 0.16 17 0.09 25.47 0 2.22 0 2.83 0.85 2.76 3s-0.47 3.19-3 3.3c-8.33 0.38-8.33 0.51-8.33 8.77 0 7-0.16 14 0.07 21 0.11 3.43-1.81 3.31-4.09 3.18s-4.84 0.86-4.62-3.14c0.27-4.5 0.07-9.01 0.08-13.5z" fill="#F8F9FA"/>
<path d="m430.61 269.17c1.66 5.05-1.11 6.68-4.91 7.64-7.11 1.8-13.95 0-17.32-4.6-3.51-4.79-3.63-14.63-0.24-20 2.9-4.58 7.38-6.15 12.45-5.91 4.3 0.2 8.29 1.62 10.2 6 0.5 1.13 2.79 3.15-0.2 3.87-2.06 0.5-4.78 3-6.49-0.36-1.17-2.27-2.25-4.17-5.13-3.64s-3.9 2.89-4.41 5.44c-0.86 4.36-1.27 9 2.34 12.16 4.35 3.76 9.1 1.14 13.71-0.6z" fill="#F2F4F6"/>
<path d="m685.81 334.21c1.54 5.33-1.37 6.54-5.33 6.9-6.2 0.56-10-1.56-10.48-6.46s-0.31-9.62-0.31-14.43c0-2 0.13-3.71-2.69-3.5-2.37 0.18-1.94-1.66-2-3.1-0.1-1.65 0-3.05 2.26-2.86 1.66 0.14 2.68-0.65 2.38-2.31-1.26-7 4.16-5.85 8.17-7.1 0.1444 1.4252 0.20118 2.8579 0.17 4.29-0.3 3.4 0.14 6 4.58 5.15 2.05-0.38 2.53 0.87 2.46 2.64s0.14 3.71-2.41 3.27c-4.82-0.83-4.91 2-4.64 5.45 0.17 2.15 0 4.32 0 6.48 0.03 6.74 0.93 7.37 7.84 5.58z" fill="#F4F6F7"/>
<path d="m505.81 333c1.42 4.58-0.67 6.49-4.71 7.51-7 1.78-13.93 0.2-17.37-4.33-3.72-4.9-3.88-15-0.32-20.38 5-7.66 18.41-7.77 22.45-0.1 0.64 1.22 2.57 3.36 0.26 4.1-2.05 0.65-5.09 3.32-6.92-0.37-1.17-2.36-2.42-4-5.24-3.42s-3.64 2.69-4.06 5.09c-0.35165 1.6202-0.53595 3.2722-0.55 4.93 0.25 7.74 4.5 10.79 11.92 8.64 1.54-0.42 3.03-1.07 4.54-1.67z" fill="#EFF1F4"/>
<path d="m536.57 333c1.52 4.6-0.67 6.54-4.68 7.59-6.92 1.82-14 0.15-17.41-4.35-3.68-4.85-3.83-15.06-0.29-20.4 5.09-7.68 18.46-7.74 22.42 0 0.58 1.13 2.77 3.25 0.23 4-2 0.62-5 3.36-6.87-0.36-1.06-2.11-2.13-3.82-4.76-3.51-3 0.35-4.07 2.65-4.61 5.18-1 4.52-1.39 9.29 2.39 12.59 3.38 2.94 7.54 1.62 11.36 0.11l2.22-0.85z" fill="#F2F4F6"/>
<path d="m156 330.53c2.25-6.29 4-11.38 5.89-16.46 1-2.76 5-4.49 7.44-3.29 1.32 0.66 0.81 1.65 0.49 2.51-3.21 8.53-6.5 17-9.67 25.57-1.13 3-3.61 1.52-5.53 1.87-2.26 0.41-3.13-0.89-3.8-2.9-2.53-7.54-5.33-15-7.84-22.54-0.45-1.34-2.74-3.8 0-4.26 2.32-0.4 6.11-2.3 7.51 2.12 1.64 5.36 3.35 10.71 5.51 17.38z" fill="#F2F4F6"/>
<path d="m261.19 334.14c1.34 4.91-1 6.56-5.18 6.95-6.53 0.61-10.33-1.47-10.79-6.7-0.43-4.79-0.19-9.65-0.21-14.47 0-1.71 0.23-3.47-2.41-3.18s-2.39-1.5-2.47-3.23 0.31-2.89 2.42-2.75c3.54 0.23 2.26-2.48 2.39-4.2 0.21-2.74 4.94-6.08 7.37-4.88 1.88 0.93 1 3 0.87 4.46-0.2 3.15 0.36 5.29 4.2 4.67 2.18-0.35 2.86 0.58 2.84 2.76s-0.54 3.64-3.06 3.19c-3.7-0.66-4.11 1.41-3.92 4.32 0.16 2.49 0 5 0 7.49 0.05 6.82 1.04 7.56 7.95 5.57z" fill="#F4F6F7"/>
<path d="m316.61 253.3c0 4.32-0.17 8.66 0.07 13 0.11 2-1.69 5 2.8 5.49 1.25 0.13 1.34 3.74-1.31 4.92-5.33 2.37-9.92-0.36-10-6.2-0.13-8.48 0-17-0.05-25.44 0-1.9 1-4.34-2.59-4.76-1.71-0.2-0.91-2.55-0.94-4 0-1.75 1.31-1.48 2.47-1.6 9.53-1 9.52-1 9.52 8.62v10l0.03-0.03z" fill="#EFF1F4"/>
<path d="m654.76 262.53v-6.48c0-1.73 0.24-3.5-2.38-3.22-2.18 0.24-2.4-1.1-2.37-2.79s-0.22-3.41 2.4-3.22c3.09 0.23 2.22-2.17 2.34-3.81 0.23-3.06 4.22-6 7.13-5.13 2.15 0.65 1.11 2.54 1.07 3.75-0.11 3.3-0.1 6.09 4.52 5.22 2.45-0.46 2.56 1.13 2.58 3s-0.32 3.39-2.67 3c-4.09-0.75-4.68 1.37-4.4 4.77 0.26 3.13 0.1 6.3 0.08 9.46 0 3.49 1.64 4.73 5.07 4.17 0.91-0.15 2.59-2.17 3 0.44 0.3 1.9 0.51 3.79-2.07 4.88-7.63 3.25-14-0.43-14.24-8.53-0.06-1.82 0-3.65 0-5.48l-0.06-0.03z" fill="#F4F6F7"/>
<path d="m91.23 328.86c0-2.66 0.05-5.31 0-8 0-1.81 0.77-3.83-2.39-4.43-1.93-0.37-1-2.87-0.94-4.4 0-1.74 1.71-1.48 2.68-1.26 2.28 0.52 5.42-1.82 6.78 2.11 0.56 1.63 1.49 0.43 2.14-0.25 1.2684-1.3407 2.9671-2.1936 4.8-2.41 1.53-0.19 3.72-0.87 3.53 1.89-0.13 1.76 1.57 4.78-2.3 4.74-4.5-0.05-5.64 2.74-5.69 6.48-0.07 4.81-0.23 9.64 0 14.44 0.14 3.62-2.24 3-4.3 3s-4.56 0.72-4.32-2.93c0.17-2.99 0.01-5.99 0.01-8.98z" fill="#EFF1F4"/>
<path d="m617.84 246.85c0.92 0 1.91-0.29 2.2 0 3.28 3.76 6.21 0.94 9.33-0.27 1.71-0.67 3.94-1.07 3.83 1.92-0.07 1.75 1.45 4.61-2.52 4.48s-5.21 2.58-5.37 5.85c-0.30097 4.8075-0.3477 9.6276-0.14 14.44 0.19 3.34-1.2 3.76-4 3.75s-4.58-0.32-4.38-3.94c0.31-5.63 0.12-11.29 0-16.94 0-1.05 0.67-2.88-0.76-3-3.7-0.37-3.26-3-2.69-5 0.66-2.44 3.18-0.72 4.5-1.29z" fill="#F4F6F7"/>
<path d="m277.46 322.93c0 3-0.06 6 0 9 0 1.38-0.28 2.77 1.88 3.43 3.7 1.12 2 3.5 0.24 4.78-1.9999 1.4544-4.6463 1.6647-6.8508 0.54452-2.2045-1.1202-3.5949-3.3817-3.5992-5.8545-0.22-4.65 0-9.32-0.09-14 0-1.77 0.85-3.86-2.42-4.37-1.83-0.28-1-2.84-0.9-4.38 0.1-1.72 1.64-1.21 2.72-1.3 9-0.76 9-0.75 9 8.15 0.02 1.34 0.026667 2.6733 0.02 4z" fill="#F4F6F7"/>
<path d="m553.92 323.38v8c0 1.85-0.72 4.27 2.72 3.9 1.23-0.13 1 1 0.94 1.82-0.07 1.34-0.25 2.46-1.73 3.25-4.88 2.6-10.05-0.11-10.29-5.68-0.18-4.31 0-8.63-0.08-12.95-0.05-2.07 1-4.63-2.64-5.31-1.68-0.32-0.82-2.6-0.83-4 0-2.1 1.73-1.47 2.93-1.63h0.5c8.47-0.31 8.47-0.31 8.47 8.14 0.006667 1.48 0.01 2.9667 0.01 4.46z" fill="#F4F6F7"/>
<path d="m447.13 259.06c0 2.82-0.06 5.64 0 8.46 0.06 1.81-0.8 4.38 2.72 3.88 1.29-0.18 1.09 0.9 1.08 1.66 0 1.31 0 2.47-1.49 3.34-4.73 2.73-10.22 0.07-10.49-5.36-0.19-3.81 0.16-7.65-0.14-11.44-0.21-2.64 1.92-6.37-3-7.4-1.07-0.22-0.55-2.41-0.52-3.71 0-1.68 1.4-1.48 2.54-1.62 9-1.11 9.31-0.86 9.31 8.21-0.006667 1.3267-0.01 2.6533-0.01 3.98z" fill="#F8F9FA"/>
<path d="m123.78 558.69c-3.15 0-6.3-0.17-9.44 0s-4.74-0.17-4.76-4.07 1.48-4.26 4.64-4.16c6.78 0.2 13.58 0.26 20.36 0 3.66-0.15 3.38 1.88 3.43 4.32s-0.08 4.16-3.32 3.94c-3.61-0.23-7.26-0.03-10.91-0.03z" fill="#EFF1F4"/>
<path d="m432.1 506.47c-0.27 4-2.42 6.14-6.2 6.44-3.46 0.27-6.16-2.62-6.1-6.25s2.09-5.94 5.74-6c3.84-0.17 6.04 2.03 6.56 5.81z" fill="#F2F4F6"/>
<path d="m277.82 302.62c-0.53 2.64-1.74 4.6-4.83 4.54-1.1774 0.079618-2.3337-0.34219-3.1832-1.1613-0.84958-0.8191-1.3133-1.9592-1.2768-3.1387-0.17877-1.2664 0.2195-2.5462 1.0853-3.4875s2.1079-1.445 3.3847-1.3725c3-0.11 4.25 1.93 4.82 4.62z" fill="#EFF1F4"/>
<path d="m442.46 234.1c3.1 0.32 4.87 1.8 4.89 4.73 0 2.64-1.35 4.39-4.14 4.51s-4.81-1.46-5-4.3 1.71-4.43 4.25-4.94z" fill="#EFF1F4"/>
<path d="m554.08 302.87c-0.48 2.94-2 4.6-5 4.27s-4.42-2.14-4.08-5.14c0.037684-1.1784 0.57243-2.2857 1.4719-3.048s2.0795-1.1081 3.2481-0.95201c2.91 0.18 4.28 2.05 4.36 4.87z" fill="#EFF1F4"/>
<polygon points="235.37 191.46 235.59 191.46 235.48 191.63" fill="#A10C62"/>
<path d="m97.19 96.08c0.53-4.1-2.21-10.67 1-13.5 2.79-2.43 9.19-0.74 14-0.8 4.3263-0.22201 8.6609 0.22663 12.85 1.33 5.36 1.62 9.07 4.81 9.78 10.68 0.74 6-1.86 11.41-7.39 14-9 4.27-18.79 3.69-28.41 3.88-2 0-1.86-1.46-1.86-2.82 0.03-3.96 0.03-7.95 0.03-12.77z" fill="#102163"/>
<path d="m653.56 80.2c4.4 20.15 8.69 40 13.09 59.78 0.57 2.58 0.71 4-2.73 3.9-7.32-0.22-14.65-0.12-22 0-2.25 0-3.43-0.3-2.81-3 4.51-19.78 8.93-39.58 13.39-59.36 0.08-0.36 0.42-0.57 1.06-1.32z" fill="#102163"/>
<path d="m518.8 99c0-5 0.12-10 0-14.94-0.09-2.5 0.5-3.53 3.25-3.45 6.46 0.19 12.95-0.25 19.11 2.38 7.27 3.1 11.2 9 11 16.69s-4.29 13.56-11.8 16.08c-6.07 2-12.36 2.13-18.7 1.7-2.55-0.17-2.87-1.41-2.83-3.52 0.04-4.94-0.03-9.94-0.03-14.94z" fill="#0C1F62"/>
<path d="m84.11 406.23l10.89 32.87h-18.49c-1.61 0-2-0.71-1.6-2.16l9.2-30.71z" fill="#102163"/>
<path d="m547.91 432.3c0 4.48 0.23 9-0.06 13.44-0.38 5.89-3.49 9.36-8.48 10.15-6 1-10.46-1.45-12.59-7.23-3.0104-7.8607-2.6487-16.614 1-24.2 3.18-6.82 10.49-10 17.93-8.62 2 0.38 2.33 1.31 2.31 3-0.06 4.48 0 9 0 13.45l-0.11 0.01z" fill="#102163"/>
<path d="m222.12 440.58c0.35-4.31-0.6-9.48 0.57-14.6 1.12-4.93 3.92-7.95 9.13-8.4 5.68-0.5 9.65 1.56 11.44 6.76 2.9084 8.0869 2.8659 16.941-0.12 25-2.56 7-12.69 10.49-19.53 7.39-1.68-0.76-1.49-2-1.49-3.28v-12.87z" fill="#102163"/>
<path d="m174.21 436.84c-0.22 2.48-0.25 5-0.69 7.44-1.93 10.68-9.82 15.48-20.26 12.58-1.86-0.52-2.29-1.48-2.28-3.19 0.09-8.32-0.13-16.66 0.21-25 0.29-6.95 3.91-10.72 9.77-11.14 6.46-0.46 10.34 2.55 12.12 9.36 0.75564 3.2626 1.1348 6.601 1.13 9.95z" fill="#102163"/>
<path d="m357.41 436.49c-0.07 4.17-0.28 8.33-1.67 12.31-1.79 5.09-5.78 8.08-10.88 8s-9-2.46-10.7-7.46c-2.7982-8.0911-2.8439-16.88-0.13-25 1.68-5.2 5.7-7.68 11-7.65s8.74 2.74 10.58 7.57c1.54 3.89 1.67 8.07 1.8 12.23z" fill="#102163"/>
<path d="m471 432.35h-6c-6.55 0-6.66-0.15-4.83-6.68s6.85-10.06 12.83-9c5.68 1 9.89 7.2 9.35 13.42-0.15 1.74-0.85 2.29-2.45 2.27-2.9-0.04-5.9-0.01-8.9-0.01z" fill="#102163"/>
<path d="m558 549.1c0 4.66 0.18 9.33 0 14-0.4 8.29-4.81 13.22-12.53 14.38s-14.56-2.59-17.06-9.9c-3.1412-8.5524-2.9304-17.977 0.59-26.38 4.15-9.84 17.31-14.75 27.08-10.55 1.83 0.79 2 1.89 2 3.46v15l-0.08-0.01z" fill="#102163"/>
<path d="m281 560.3c-0.25 2.43-0.4 4.76-0.75 7-0.87 5.59-3.77 9.42-9.51 10.83s-10.76 0.59-14.49-4-3.62-9.83-1.52-15.08c1.81-4.54 5.73-6.25 10.22-6.86 4.4685-0.5055 8.9906-0.24168 13.37 0.78 4.92 1.11 1.27 5.11 2.68 7.33z" fill="#102163"/>
<path d="m917.85 550.84h-12.48c-1.2 0-2.61 0.51-2.95-1.61-1.7-10.66 8.27-21 18.78-19.29 7.38 1.17 14.23 12.07 12.22 19.24-0.52 1.84-1.78 1.67-3.08 1.68-4.17 0-8.34-0.01-12.49-0.02z" fill="#102163"/>
<path d="m206.84 550.83h-12.48c-1.33 0-2.48 0.11-2.71-1.93-1.17-10.08 7.32-19.75 17-19.16 8.39 0.51 15.82 10.73 14.08 19.21-0.45 2.19-2 1.88-3.42 1.89-4.15 0.02-8.31 0-12.47-0.01z" fill="#102163"/>
<path d="m676.82 554.13c-0.20019-4.6586 0.45044-9.3147 1.92-13.74 2.5-6.77 7.69-10.57 14.67-10.66s12.5 3.49 14.82 10.34c3.0786 9.0364 3.1347 18.829 0.16 27.9-2.23 7-8 10.84-15.13 10.7-6.88-0.13-12.1-4-14.59-10.81-1.67-4.43-1.89-9.06-1.85-13.73z" fill="#102163"/>
<path d="m177.57 250.21c1-2-2.53-6.71 3.86-6.33 6.1 0.37 8.4 1.81 8.51 6.53 0.12 5-2.27 7-8.52 6.87-4.08-0.04-3.88 1.07-3.85-7.07z" fill="#102163"/>
<path d="m458.78 311.05l5.22 15.52c-10.15 0.9-10.15 0.9-7.3-8.39 0.6-1.96 1.15-3.94 2.08-7.13z" fill="#23205E"/>
<path d="m62.61 314.79c1.76-2.18-2.77-7.23 3.81-7 6.43 0.18 9 2.14 8.9 7.38s-2.46 6.81-8.66 7c-6.9 0.21-2.33-5.01-4.05-7.38z" fill="#0C1F62"/>
<path d="m581.88 324.25c0.037048 2.318-0.11008 4.6353-0.44 6.93-0.32159 1.7605-1.5596 3.2148-3.2461 3.8135-1.6865 0.59864-3.5644 0.25026-4.9239-0.91348-3.43-3-2.93-7.17-2.35-11.15 0.49-3.31 2-6 5.46-7 3.32-0.95 6.07-0.95 5.43 3.87-0.096976 1.4918-0.096976 2.9882 0 4.48l0.07-0.03z" fill="#102163"/>
<path d="m290.56 265.55c-0.11 3.71-0.92 6.51-5 6.4-3.09-0.08-4.46-2.13-4.36-5 0.13-3.44 2.26-4.9 5.62-4.9 2.68 0.03 4.18 1.02 3.74 3.5z" fill="#23205E"/>
<path d="m589.61 261.74c0.072354-1.6795 0.27294-3.351 0.6-5 0.77-2.79 2.55-4.63 5.67-4.61 2.93 0 4.52 1.76 5.28 4.38 0.98998 3.3509 1.0488 6.9082 0.17 10.29-0.79 3.16-2.65 5-5.93 4.86-3.08-0.14-4.72-2.19-5.29-5.05-0.31-1.61-0.35-3.3-0.5-4.87z" fill="#102163"/>
<path d="m468.94 260.38c-1.74-1.74-5.46 1.57-5.39-2.59 0.06-3.17 1.9-5.84 5.66-5.7 3.48 0.13 5.17 2.66 5.06 5.7-0.15 4.21-3.86 0.72-5.33 2.59z" fill="#23205E"/>
<path d="m133.41 260.18c-1.6-1.48-5.18 1.69-5.26-2.3-0.06-3.19 1.87-5.78 5.44-5.8 3.28 0 5.22 2.18 5.29 5.34 0.12 4.66-3.75 1.28-5.47 2.76z" fill="#23205E"/>
<path d="m306.37 326.7c-0.1378 1.6043-0.39857 3.1956-0.78 4.76-0.71167 2.3578-2.8921 3.9646-5.3549 3.9462s-4.6189-1.6579-5.2951-4.0262c-1.0297-3.3365-1.1299-6.8907-0.29-10.28 0.73-3.06 2.28-5.21 5.67-5.18 3.65 0 5.22 2.42 5.7 5.7 0.21 1.48 0.21 2.97 0.35 5.08z" fill="#102163"/>
<path d="m723.46 260.16c-1.5-1.36-4.91 1.69-4.87-2.16 0-3.09 1.66-5.86 5.34-5.93s5.58 2.52 5.39 5.71c-0.26 4.22-4.03 0.9-5.86 2.38z" fill="#23205E"/>
<path d="m391 326.05c-0.083405 1.3404-0.23695 2.6756-0.46 4-0.68 3.25-2.45 5.53-6.05 5.35-3.35-0.17-5-2.47-5.39-5.52-0.29795-2.4621-0.3482-4.9479-0.15-7.42 0.27-3.63 1.76-6.51 6-6.54 4 0 5.17 3 5.84 6.23 0.15558 1.294 0.22573 2.5968 0.21 3.9z" fill="#102163"/>
<path d="m225.38 260.7c0.05 7.74-1.93 11-6.11 11s-6.29-3.59-6.1-10.18c0.066449-1.4851 0.26727-2.9611 0.6-4.41 0.67-3.12 2.49-5 5.86-4.91s4.86 2.43 5.39 5.47c0.24 1.24 0.31 2.57 0.36 3.03z" fill="#102163"/>
<path d="m393.54 262.26c-0.13133 1.7772-0.3954 3.5422-0.79 5.28-0.57125 2.5417-2.9109 4.2869-5.51 4.11-2.4209 0.064845-4.5673-1.547-5.18-3.89-1.1481-3.4852-1.242-7.2317-0.27-10.77 0.81-3.13 2.62-5 5.94-4.85 3.16 0.12 4.66 2.22 5.24 5.06 0.33 1.61 0.38 3.28 0.57 5.06z" fill="#102163"/>
<path d="m186.9 324c-1.51-1.47-5.13 1.87-5.2-2.26-0.05-3.19 1.68-5.74 5.4-5.82s5.48 2.72 5.37 5.77c-0.13 3.81-3.68 1.15-5.57 2.31z" fill="#23205E"/>
<path d="m611.53 324.3c-1.9-1.48-5.3 1.28-5.23-2.5 0.06-3.09 1.68-5.81 5.42-5.89 3.45-0.08 5.23 2.07 5.34 5.23 0.17 5.22-4.27 0.86-5.53 3.16z" fill="#23205E"/>
<path d="m124.81 324c-1.7-1.37-5.33 1.59-5.37-2.27 0-3 1.71-5.8 5.48-5.85 3.48 0 5.2 2.18 5.33 5.29 0.2 4.72-3.73 1.45-5.44 2.83z" fill="#23205E"/>
</g>
</g>
</svg>
